<svg xmlns="http://www.w3.org/2000/svg" xmlns:xlink="http://www.w3.org/1999/xlink" width="1080" zoomAndPan="magnify" viewBox="0 0 810 809.999993" height="1080" preserveAspectRatio="xMidYMid meet" version="1.0"><defs><clipPath id="7632ba8628"><path d="M 87 73 L 738.125 73 L 738.125 724 L 87 724 Z M 87 73 " clip-rule="nonzero"/></clipPath><clipPath id="20e9db619a"><path d="M 87 697 L 738.125 697 L 738.125 724 L 87 724 Z M 87 697 " clip-rule="nonzero"/></clipPath><clipPath id="e060dbf54e"><path d="M 611 45 L 646 45 L 646 80 L 611 80 Z M 611 45 " clip-rule="nonzero"/></clipPath><clipPath id="d930222038"><path d="M 624.304688 37.222656 L 653.6875 66.605469 L 638.242188 82.046875 L 608.859375 52.667969 Z M 624.304688 37.222656 " clip-rule="nonzero"/></clipPath><clipPath id="2d9aa2246e"><path d="M 613.136719 56.945312 C 612.582031 56.390625 612.144531 55.71875 611.820312 54.933594 C 610.570312 51.835938 612.050781 48.320312 615.148438 47.070312 C 623.359375 43.71875 632.699219 45.613281 638.964844 51.882812 C 645.230469 58.148438 647.125 67.488281 643.796875 75.71875 C 642.546875 78.816406 639.011719 80.320312 635.9375 79.046875 C 632.835938 77.800781 631.335938 74.261719 632.605469 71.1875 C 634.085938 67.488281 633.230469 63.257812 630.410156 60.4375 C 627.589844 57.613281 623.382812 56.78125 619.683594 58.261719 C 617.394531 59.210938 614.804688 58.609375 613.136719 56.945312 Z M 613.136719 56.945312 " clip-rule="nonzero"/></clipPath><clipPath id="2e643f7ee5"><path d="M 46 515 L 72 515 L 72 557 L 46 557 Z M 46 515 " clip-rule="nonzero"/></clipPath><clipPath id="b71068e298"><path d="M 50.753906 559.410156 L 42.203125 518.75 L 63.578125 514.253906 L 72.128906 554.917969 Z M 50.753906 559.410156 " clip-rule="nonzero"/></clipPath><clipPath id="e36dff5064"><path d="M 70.886719 548.996094 C 71.046875 549.765625 71.046875 550.566406 70.890625 551.402344 C 70.242188 554.679688 67.082031 556.8125 63.804688 556.164062 C 55.097656 554.488281 48.3125 547.796875 46.488281 539.125 C 44.664062 530.453125 48.183594 521.59375 55.46875 516.519531 C 58.207031 514.609375 61.992188 515.28125 63.871094 518.027344 C 65.785156 520.765625 65.109375 524.550781 62.363281 526.429688 C 59.101562 528.71875 57.507812 532.730469 58.328125 536.636719 C 59.148438 540.539062 62.21875 543.535156 66.125 544.316406 C 68.5625 544.773438 70.402344 546.691406 70.886719 548.996094 Z M 70.886719 548.996094 " clip-rule="nonzero"/></clipPath><clipPath id="67f9f33032"><path d="M 708.269531 627.746094 L 749.820312 627.746094 L 749.820312 649.589844 L 708.269531 649.589844 Z M 708.269531 627.746094 " clip-rule="nonzero"/></clipPath><clipPath id="1f9af684dd"><path d="M 714.320312 649.589844 C 713.535156 649.589844 712.75 649.425781 711.964844 649.097656 C 708.890625 647.789062 707.453125 644.257812 708.757812 641.183594 C 712.191406 633.011719 720.140625 627.746094 729 627.746094 C 737.859375 627.746094 745.808594 633.011719 749.273438 641.183594 C 750.582031 644.257812 749.140625 647.824219 746.070312 649.097656 C 742.996094 650.40625 739.429688 648.96875 738.15625 645.894531 C 736.585938 642.230469 732.988281 639.84375 729 639.84375 C 725.011719 639.84375 721.445312 642.230469 719.878906 645.894531 C 718.929688 648.183594 716.671875 649.589844 714.320312 649.589844 Z M 714.320312 649.589844 " clip-rule="nonzero"/></clipPath></defs><g clip-path="url(#7632ba8628)"><path fill="#caddff" d="M 572.855469 664.507812 C 735.933594 562.640625 738.125 379.558594 738.070312 371.164062 C 737.488281 279.429688 695.359375 146.898438 581.496094 96.132812 C 527.535156 72.074219 442.230469 59.617188 381.414062 100.136719 C 324.628906 137.96875 349.238281 181.992188 286.585938 257.558594 C 214.429688 344.582031 156.394531 332.824219 108.015625 408.832031 C 76.058594 459.03125 90.15625 519.789062 94.199219 537.21875 C 123.839844 664.984375 279.417969 708.902344 296.871094 713.542969 C 435.390625 750.371094 549.410156 679.152344 572.855469 664.507812 " fill-opacity="1" fill-rule="nonzero"/></g><path fill="#ffffff" d="M 712.269531 539.710938 L 229.964844 539.710938 C 216.40625 539.710938 205.417969 528.722656 205.417969 515.171875 L 205.417969 140.011719 C 205.417969 126.460938 216.40625 115.476562 229.964844 115.476562 L 712.269531 115.476562 C 725.832031 115.476562 736.820312 126.460938 736.820312 140.011719 L 736.820312 515.171875 C 736.820312 528.722656 725.832031 539.710938 712.269531 539.710938 " fill-opacity="1" fill-rule="nonzero"/><path fill="#99b9ff" d="M 736.945312 167.746094 L 205.539062 167.746094 L 205.539062 140.074219 C 205.539062 126.484375 216.558594 115.472656 230.148438 115.472656 L 712.332031 115.472656 C 725.925781 115.472656 736.945312 126.484375 736.945312 140.074219 L 736.945312 167.746094 " fill-opacity="1" fill-rule="nonzero"/><path fill="#caddff" d="M 676.378906 500.371094 L 265.859375 500.371094 C 254.628906 500.371094 245.523438 491.269531 245.523438 480.042969 L 245.523438 225.210938 C 245.523438 213.988281 254.628906 204.886719 265.859375 204.886719 L 676.378906 204.886719 C 687.613281 204.886719 696.71875 213.988281 696.71875 225.210938 L 696.71875 480.042969 C 696.71875 491.269531 687.613281 500.371094 676.378906 500.371094 " fill-opacity="1" fill-rule="nonzero"/><path fill="#000000" d="M 712.363281 540.882812 L 500.542969 540.882812 C 499.894531 540.882812 499.367188 540.355469 499.367188 539.710938 C 499.367188 539.0625 499.894531 538.535156 500.542969 538.535156 L 712.363281 538.535156 C 725.199219 538.535156 735.648438 528.09375 735.648438 515.257812 L 735.648438 139.925781 C 735.648438 127.09375 725.199219 116.652344 712.363281 116.652344 L 452.191406 116.652344 C 451.546875 116.652344 451.023438 116.128906 451.023438 115.476562 C 451.023438 114.824219 451.546875 114.300781 452.191406 114.300781 L 712.363281 114.300781 C 726.496094 114.300781 738 125.796875 738 139.925781 L 738 515.257812 C 738 529.390625 726.496094 540.882812 712.363281 540.882812 " fill-opacity="1" fill-rule="nonzero"/><path fill="#ffffff" d="M 660.261719 142.542969 C 660.261719 147.476562 656.265625 151.464844 651.332031 151.464844 C 646.40625 151.464844 642.40625 147.476562 642.40625 142.542969 C 642.40625 137.617188 646.40625 133.621094 651.332031 133.621094 C 656.265625 133.621094 660.261719 137.617188 660.261719 142.542969 " fill-opacity="1" fill-rule="nonzero"/><path fill="#ffffff" d="M 689.453125 142.539062 C 689.453125 147.46875 685.460938 151.464844 680.527344 151.464844 C 675.597656 151.464844 671.597656 147.46875 671.597656 142.539062 C 671.597656 137.613281 675.597656 133.617188 680.527344 133.617188 C 685.460938 133.617188 689.453125 137.613281 689.453125 142.539062 " fill-opacity="1" fill-rule="nonzero"/><path fill="#ffffff" d="M 718.640625 142.539062 C 718.640625 147.46875 714.644531 151.464844 709.714844 151.464844 C 704.78125 151.464844 700.785156 147.46875 700.785156 142.539062 C 700.785156 137.613281 704.78125 133.617188 709.714844 133.617188 C 714.644531 133.617188 718.640625 137.613281 718.640625 142.539062 " fill-opacity="1" fill-rule="nonzero"/><path fill="#ffffff" d="M 418.421875 342.421875 L 111.136719 342.421875 C 99.089844 342.421875 89.320312 332.660156 89.320312 320.613281 L 89.320312 98.515625 C 89.320312 86.46875 99.089844 76.707031 111.136719 76.707031 L 418.421875 76.707031 C 430.472656 76.707031 440.242188 86.46875 440.242188 98.515625 L 440.242188 320.613281 C 440.242188 332.660156 430.472656 342.421875 418.421875 342.421875 " fill-opacity="1" fill-rule="nonzero"/><path fill="#99b9ff" d="M 409.042969 329.488281 L 119.734375 329.488281 C 110.644531 329.488281 103.277344 322.125 103.277344 313.039062 L 103.277344 106.089844 C 103.277344 97.007812 110.644531 89.644531 119.734375 89.644531 L 409.042969 89.644531 C 418.132812 89.644531 425.496094 97.007812 425.496094 106.089844 L 425.496094 313.039062 C 425.496094 322.125 418.132812 329.488281 409.042969 329.488281 " fill-opacity="1" fill-rule="nonzero"/><path fill="#000000" d="M 204.625 343.59375 L 111.0625 343.59375 C 98.425781 343.59375 88.144531 333.320312 88.144531 320.6875 L 88.144531 98.4375 C 88.144531 85.804688 98.425781 75.53125 111.0625 75.53125 L 418.496094 75.53125 C 431.136719 75.53125 441.417969 85.804688 441.417969 98.4375 L 441.417969 251.820312 C 441.417969 252.46875 440.890625 252.996094 440.238281 252.996094 C 439.59375 252.996094 439.0625 252.46875 439.0625 251.820312 L 439.0625 98.4375 C 439.0625 87.105469 429.839844 77.878906 418.496094 77.878906 L 111.0625 77.878906 C 99.722656 77.878906 90.496094 87.105469 90.496094 98.4375 L 90.496094 320.6875 C 90.496094 332.027344 99.722656 341.25 111.0625 341.25 L 204.625 341.25 C 205.277344 341.25 205.800781 341.773438 205.800781 342.421875 C 205.800781 343.070312 205.277344 343.59375 204.625 343.59375 " fill-opacity="1" fill-rule="nonzero"/><path fill="#000000" d="M 418.496094 343.597656 L 283.65625 343.597656 C 283.007812 343.597656 282.480469 343.070312 282.480469 342.421875 C 282.480469 341.773438 283.007812 341.246094 283.65625 341.246094 L 418.496094 341.246094 C 424.667969 341.246094 430.460938 338.511719 434.386719 333.746094 C 434.796875 333.246094 435.539062 333.171875 436.042969 333.585938 C 436.542969 333.996094 436.613281 334.734375 436.203125 335.238281 C 431.828125 340.546875 425.375 343.597656 418.496094 343.597656 " fill-opacity="1" fill-rule="nonzero"/><path fill="#caddff" d="M 377.597656 122.253906 L 329.238281 122.253906 C 326.972656 122.253906 325.128906 120.414062 325.128906 118.148438 C 325.128906 115.878906 326.972656 114.042969 329.238281 114.042969 L 377.597656 114.042969 C 379.867188 114.042969 381.707031 115.878906 381.707031 118.148438 C 381.707031 120.414062 379.867188 122.253906 377.597656 122.253906 " fill-opacity="1" fill-rule="nonzero"/><path fill="#caddff" d="M 397.273438 139.832031 L 329.238281 139.832031 C 326.96875 139.832031 325.128906 137.996094 325.128906 135.730469 C 325.128906 133.460938 326.96875 131.625 329.238281 131.625 L 397.273438 131.625 C 399.539062 131.625 401.382812 133.460938 401.382812 135.730469 C 401.382812 137.996094 399.539062 139.832031 397.273438 139.832031 " fill-opacity="1" fill-rule="nonzero"/><path fill="#caddff" d="M 346.3125 157.058594 L 329.238281 157.058594 C 326.972656 157.058594 325.128906 155.21875 325.128906 152.953125 C 325.128906 150.6875 326.972656 148.847656 329.238281 148.847656 L 346.3125 148.847656 C 348.578125 148.847656 350.417969 150.6875 350.417969 152.953125 C 350.417969 155.21875 348.578125 157.058594 346.3125 157.058594 " fill-opacity="1" fill-rule="nonzero"/><path fill="#caddff" d="M 395.765625 157.058594 L 370.714844 157.058594 C 368.449219 157.058594 366.605469 155.21875 366.605469 152.953125 C 366.605469 150.6875 368.449219 148.847656 370.714844 148.847656 L 395.765625 148.847656 C 398.035156 148.847656 399.875 150.6875 399.875 152.953125 C 399.875 155.21875 398.035156 157.058594 395.765625 157.058594 " fill-opacity="1" fill-rule="nonzero"/><path fill="#ffffff" d="M 136.050781 131.386719 L 136.050781 142.210938 L 143.128906 142.210938 C 145.078125 142.210938 146.597656 141.746094 147.691406 140.820312 C 148.78125 139.890625 149.332031 138.609375 149.332031 136.976562 C 149.332031 133.304688 147.429688 131.445312 143.628906 131.386719 Z M 136.050781 125.546875 L 142.167969 125.546875 C 146.335938 125.472656 148.421875 123.8125 148.421875 120.5625 C 148.421875 118.746094 147.894531 117.4375 146.835938 116.636719 C 145.78125 115.839844 144.113281 115.441406 141.835938 115.441406 L 136.050781 115.441406 Z M 127.785156 148.847656 L 127.785156 108.75 L 141.835938 108.75 C 146.703125 108.75 150.394531 109.683594 152.914062 111.542969 C 155.429688 113.40625 156.6875 116.140625 156.6875 119.734375 C 156.6875 121.699219 156.179688 123.429688 155.171875 124.929688 C 154.160156 126.425781 152.753906 127.519531 150.957031 128.21875 C 153.011719 128.730469 154.632812 129.773438 155.816406 131.332031 C 157.003906 132.890625 157.59375 134.800781 157.59375 137.0625 C 157.59375 140.917969 156.367188 143.835938 153.902344 145.820312 C 151.441406 147.800781 147.933594 148.808594 143.378906 148.847656 L 127.785156 148.847656 " fill-opacity="1" fill-rule="nonzero"/><path fill="#ffffff" d="M 190.4375 148.847656 L 162.941406 148.847656 L 162.941406 143.394531 L 175.917969 129.570312 C 177.699219 127.625 179.015625 125.925781 179.871094 124.472656 C 180.726562 123.027344 181.152344 121.648438 181.152344 120.34375 C 181.152344 118.5625 180.703125 117.160156 179.800781 116.144531 C 178.902344 115.125 177.617188 114.613281 175.945312 114.613281 C 174.144531 114.613281 172.726562 115.238281 171.6875 116.476562 C 170.652344 117.714844 170.132812 119.34375 170.132812 121.363281 L 162.140625 121.363281 C 162.140625 118.917969 162.722656 116.691406 163.890625 114.671875 C 165.058594 112.652344 166.707031 111.066406 168.835938 109.921875 C 170.96875 108.773438 173.382812 108.199219 176.082031 108.199219 C 180.214844 108.199219 183.425781 109.191406 185.710938 111.175781 C 188 113.15625 189.140625 115.957031 189.140625 119.574219 C 189.140625 121.558594 188.628906 123.574219 187.601562 125.632812 C 186.570312 127.6875 184.808594 130.085938 182.308594 132.816406 L 173.1875 142.429688 L 190.4375 142.429688 L 190.4375 148.847656 " fill-opacity="1" fill-rule="nonzero"/><path fill="#ffffff" d="M 204.433594 131.386719 L 204.433594 142.210938 L 211.515625 142.210938 C 213.460938 142.210938 214.980469 141.746094 216.074219 140.820312 C 217.167969 139.890625 217.714844 138.609375 217.714844 136.976562 C 217.714844 133.304688 215.8125 131.445312 212.011719 131.386719 Z M 204.433594 125.546875 L 210.550781 125.546875 C 214.71875 125.472656 216.804688 123.8125 216.804688 120.5625 C 216.804688 118.746094 216.277344 117.4375 215.21875 116.636719 C 214.164062 115.839844 212.496094 115.441406 210.21875 115.441406 L 204.433594 115.441406 Z M 196.167969 148.847656 L 196.167969 108.75 L 210.21875 108.75 C 215.085938 108.75 218.777344 109.683594 221.292969 111.542969 C 223.8125 113.40625 225.070312 116.140625 225.070312 119.734375 C 225.070312 121.699219 224.566406 123.429688 223.554688 124.929688 C 222.542969 126.425781 221.140625 127.519531 219.339844 128.21875 C 221.394531 128.730469 223.019531 129.773438 224.203125 131.332031 C 225.386719 132.890625 225.980469 134.800781 225.980469 137.0625 C 225.980469 140.917969 224.746094 143.835938 222.285156 145.820312 C 219.824219 147.800781 216.316406 148.808594 211.761719 148.847656 L 196.167969 148.847656 " fill-opacity="1" fill-rule="nonzero"/><path fill="#ffffff" d="M 226.191406 290.691406 L 128.097656 290.691406 L 128.097656 165.289062 L 226.191406 165.289062 L 226.191406 290.691406 " fill-opacity="1" fill-rule="nonzero"/><path fill="#caddff" d="M 161.125 271.320312 L 139.757812 271.320312 L 139.757812 201.128906 L 161.125 201.128906 L 161.125 271.320312 " fill-opacity="1" fill-rule="nonzero"/><path fill="#caddff" d="M 187.828125 271.320312 L 166.460938 271.320312 L 166.460938 181.757812 L 187.828125 181.757812 L 187.828125 271.320312 " fill-opacity="1" fill-rule="nonzero"/><path fill="#caddff" d="M 214.53125 271.316406 L 193.160156 271.316406 L 193.160156 229.472656 L 214.53125 229.472656 L 214.53125 271.316406 " fill-opacity="1" fill-rule="nonzero"/><path fill="#caddff" d="M 284.5 191.035156 C 284.5 202.140625 275.496094 211.140625 264.386719 211.140625 C 253.28125 211.140625 244.277344 202.140625 244.277344 191.035156 C 244.277344 179.9375 253.28125 170.933594 264.386719 170.933594 C 275.496094 170.933594 284.5 179.9375 284.5 191.035156 " fill-opacity="1" fill-rule="nonzero"/><path fill="#ffffff" d="M 281.265625 191.035156 C 281.265625 200.355469 273.710938 207.902344 264.390625 207.902344 C 255.066406 207.902344 247.511719 200.355469 247.511719 191.035156 C 247.511719 181.722656 255.066406 174.167969 264.390625 174.167969 C 273.710938 174.167969 281.265625 181.722656 281.265625 191.035156 " fill-opacity="1" fill-rule="nonzero"/><path fill="#5479f7" d="M 262.839844 202.945312 L 262.839844 200.171875 C 260.886719 200.082031 258.988281 199.558594 257.875 198.917969 L 258.753906 195.5 C 259.980469 196.171875 261.703125 196.785156 263.601562 196.785156 C 265.265625 196.785156 266.40625 196.144531 266.40625 194.976562 C 266.40625 193.867188 265.472656 193.167969 263.308594 192.433594 C 260.183594 191.382812 258.050781 189.925781 258.050781 187.09375 C 258.050781 184.523438 259.863281 182.507812 262.988281 181.898438 L 262.988281 179.125 L 265.851562 179.125 L 265.851562 181.691406 C 267.804688 181.78125 269.121094 182.191406 270.085938 182.65625 L 269.238281 185.953125 C 268.480469 185.632812 267.132812 184.964844 265.03125 184.964844 C 263.132812 184.964844 262.519531 185.777344 262.519531 186.597656 C 262.519531 187.558594 263.542969 188.175781 266.023438 189.105469 C 269.5 190.332031 270.902344 191.941406 270.902344 194.566406 C 270.902344 197.167969 269.0625 199.382812 265.703125 199.96875 L 265.703125 202.945312 L 262.839844 202.945312 " fill-opacity="1" fill-rule="nonzero"/><path fill="#caddff" d="M 304.464844 135.015625 C 304.464844 149.980469 292.328125 162.109375 277.359375 162.109375 C 262.390625 162.109375 250.257812 149.980469 250.257812 135.015625 C 250.257812 120.058594 262.390625 107.925781 277.359375 107.925781 C 292.328125 107.925781 304.464844 120.058594 304.464844 135.015625 " fill-opacity="1" fill-rule="nonzero"/><path fill="#ffffff" d="M 300.105469 135.015625 C 300.105469 147.570312 289.921875 157.753906 277.359375 157.753906 C 264.800781 157.753906 254.613281 147.570312 254.613281 135.015625 C 254.613281 122.464844 264.800781 112.28125 277.359375 112.28125 C 289.921875 112.28125 300.105469 122.464844 300.105469 135.015625 " fill-opacity="1" fill-rule="nonzero"/><path fill="#5479f7" d="M 275.273438 151.066406 L 275.273438 147.332031 C 272.636719 147.210938 270.078125 146.507812 268.585938 145.640625 L 269.765625 141.039062 C 271.417969 141.945312 273.738281 142.769531 276.296875 142.769531 C 278.542969 142.769531 280.078125 141.902344 280.078125 140.328125 C 280.078125 138.832031 278.816406 137.886719 275.902344 136.90625 C 271.691406 135.488281 268.820312 133.519531 268.820312 129.707031 C 268.820312 126.246094 271.257812 123.527344 275.472656 122.699219 L 275.472656 118.964844 L 279.328125 118.964844 L 279.328125 122.425781 C 281.964844 122.542969 283.738281 123.097656 285.035156 123.726562 L 283.894531 128.171875 C 282.871094 127.738281 281.0625 126.832031 278.226562 126.832031 C 275.667969 126.832031 274.84375 127.933594 274.84375 129.035156 C 274.84375 130.335938 276.21875 131.164062 279.566406 132.417969 C 284.25 134.070312 286.136719 136.234375 286.136719 139.777344 C 286.136719 143.28125 283.660156 146.269531 279.132812 147.058594 L 279.132812 151.066406 L 275.273438 151.066406 " fill-opacity="1" fill-rule="nonzero"/><path fill="#000000" d="M 678.214844 500.21875 C 677.464844 496.320312 676.75 493.417969 676.109375 490.671875 C 671.34375 470.355469 666.226562 453.796875 662.492188 442.632812 L 652.363281 405.738281 L 527.394531 428.449219 C 527.394531 428.449219 523.351562 455.726562 515.097656 500.21875 L 678.214844 500.21875 " fill-opacity="1" fill-rule="nonzero"/><path fill="#000000" d="M 543.550781 495.5625 C 557.269531 495.5625 566.199219 480.625 560.058594 467.925781 C 558.652344 465.015625 557.21875 462.078125 555.808594 459.238281 C 545.269531 437.964844 515.09375 442.609375 511.332031 466.195312 C 511.269531 466.609375 510.429688 467.023438 510.378906 467.445312 C 508.425781 482.371094 519.914062 495.5625 534.464844 495.5625 L 543.550781 495.5625 " fill-opacity="1" fill-rule="nonzero"/><path fill="#5479f7" d="M 633.695312 232.058594 C 705.058594 251.664062 715.246094 275.878906 715.246094 328.316406 C 715.246094 374.035156 668.144531 399.21875 668.144531 399.21875 C 668.144531 399.21875 690.761719 474.652344 677.988281 481.960938 C 665.222656 489.265625 647.738281 493.394531 628.257812 485.992188 C 589.304688 471.195312 528.519531 454.441406 510.363281 467.4375 C 510.363281 467.4375 539.214844 345.429688 514.261719 298.195312 C 514.261719 298.195312 453.585938 282.261719 506.332031 246.179688 C 539.550781 223.457031 600.78125 223.015625 633.695312 232.058594 " fill-opacity="1" fill-rule="nonzero"/><path fill="#5479f7" d="M 525.8125 310.183594 C 509.0625 312.125 452.78125 329.074219 426.246094 325.121094 C 396.285156 320.65625 363.902344 266.457031 354.6875 249.957031 C 352.832031 246.632812 352.191406 242.722656 352.917969 238.953125 C 354.046875 233.117188 356.71875 224.792969 362.972656 221.238281 C 368.199219 218.265625 377.949219 213.214844 387.152344 223.195312 C 387.152344 223.195312 410.238281 259.273438 438.039062 260.148438 C 464.851562 260.996094 494.261719 224.660156 576.894531 228.105469 L 525.8125 310.183594 " fill-opacity="1" fill-rule="nonzero"/><path fill="#000000" d="M 372.164062 257.519531 C 363.898438 257.519531 358.574219 248.429688 358.351562 248.042969 C 358.023438 247.480469 358.21875 246.765625 358.785156 246.441406 C 359.34375 246.117188 360.0625 246.308594 360.386719 246.867188 C 360.433594 246.953125 365.292969 255.265625 372.296875 255.164062 C 377.675781 255.082031 383.027344 250.144531 388.21875 240.488281 C 388.519531 239.914062 389.230469 239.699219 389.808594 240.007812 C 390.375 240.3125 390.59375 241.027344 390.285156 241.597656 C 384.664062 252.070312 378.621094 257.421875 372.328125 257.515625 C 372.273438 257.519531 372.21875 257.519531 372.164062 257.519531 " fill-opacity="1" fill-rule="nonzero"/><path fill="#caddff" d="M 603.328125 376.933594 C 602.886719 376.933594 602.460938 376.683594 602.257812 376.253906 C 601.988281 375.660156 602.242188 374.964844 602.828125 374.6875 C 629.183594 362.507812 641.964844 344.640625 648.035156 331.789062 C 654.632812 317.855469 654.996094 306.644531 654.996094 306.53125 C 655.011719 305.882812 655.523438 305.367188 656.199219 305.382812 C 656.851562 305.402344 657.363281 305.941406 657.347656 306.589844 C 657.332031 307.0625 656.984375 318.324219 650.214844 332.6875 C 643.972656 345.917969 630.867188 364.316406 603.820312 376.824219 C 603.660156 376.898438 603.488281 376.933594 603.328125 376.933594 " fill-opacity="1" fill-rule="nonzero"/><path fill="#caddff" d="M 615.03125 413.710938 C 614.382812 413.710938 613.863281 413.199219 613.855469 412.554688 C 613.84375 411.902344 614.363281 411.371094 615.011719 411.363281 C 647.339844 410.980469 668.703125 398.96875 668.917969 398.847656 C 669.476562 398.527344 670.199219 398.71875 670.519531 399.277344 C 670.84375 399.84375 670.648438 400.5625 670.085938 400.886719 C 669.871094 401.011719 648.011719 413.320312 615.042969 413.710938 C 615.039062 413.710938 615.035156 413.710938 615.03125 413.710938 " fill-opacity="1" fill-rule="nonzero"/><path fill="#ffffff" d="M 584.96875 410.472656 C 584.96875 410.472656 591.621094 411.1875 604.78125 407.890625 C 614.730469 405.402344 611.792969 373.121094 599.695312 381.867188 C 589.589844 389.164062 583.679688 390.117188 583.679688 390.117188 L 573.9375 385.261719 C 570.113281 383.355469 566.007812 382.109375 561.796875 381.609375 C 545.003906 379.632812 546.007812 383.511719 546.007812 383.511719 C 545.285156 387.425781 546.695312 388.019531 549.777344 389.316406 L 562.914062 394.832031 C 564.734375 395.601562 565.152344 398.082031 563.683594 399.4375 C 561.402344 401.546875 558.769531 403.210938 555.910156 404.335938 C 550.734375 406.375 541.710938 409.664062 532.40625 411.765625 C 528.03125 412.753906 526.648438 418.167969 530.679688 420.175781 L 559.679688 422.3125 C 567.023438 422.851562 574.273438 420.304688 579.78125 415.242188 L 584.96875 410.472656 " fill-opacity="1" fill-rule="nonzero"/><path fill="#000000" d="M 547.148438 383.210938 C 547.148438 383.214844 547.148438 383.214844 547.152344 383.214844 C 547.148438 383.214844 547.148438 383.214844 547.148438 383.210938 Z M 547.152344 383.21875 Z M 547.152344 383.222656 Z M 531.011719 419.023438 L 559.761719 421.140625 C 566.742188 421.65625 573.746094 419.1875 578.984375 414.375 L 584.171875 409.609375 C 584.417969 409.382812 584.753906 409.269531 585.09375 409.304688 C 585.21875 409.320312 591.8125 409.925781 604.496094 406.753906 C 606.859375 406.160156 608.617188 403.210938 609.3125 398.660156 C 610.363281 391.75 608.488281 383.976562 605.296875 382.03125 C 603.898438 381.175781 602.292969 381.4375 600.382812 382.820312 C 590.171875 390.199219 584.117188 391.234375 583.863281 391.273438 C 583.625 391.3125 583.375 391.277344 583.152344 391.167969 L 573.414062 386.316406 C 569.660156 384.445312 565.703125 383.253906 561.65625 382.78125 C 549.328125 381.328125 547.390625 383.179688 547.183594 383.4375 C 547.191406 383.53125 547.183594 383.628906 547.164062 383.722656 C 546.613281 386.714844 547.167969 386.949219 550.234375 388.230469 L 563.367188 393.753906 C 564.585938 394.269531 565.453125 395.363281 565.6875 396.6875 C 565.921875 398.035156 565.46875 399.386719 564.480469 400.304688 C 562.078125 402.519531 559.34375 404.246094 556.34375 405.429688 C 550.566406 407.707031 541.769531 410.855469 532.667969 412.914062 C 530.683594 413.359375 529.636719 414.871094 529.480469 416.167969 C 529.335938 417.363281 529.894531 418.390625 531.011719 419.023438 Z M 561.585938 423.558594 C 560.917969 423.558594 560.253906 423.535156 559.585938 423.484375 L 530.59375 421.351562 C 530.4375 421.339844 530.292969 421.292969 530.152344 421.226562 C 527.996094 420.15625 526.875 418.160156 527.148438 415.886719 C 527.449219 413.34375 529.460938 411.226562 532.148438 410.621094 C 541.578125 408.488281 550.8125 405.078125 555.476562 403.238281 C 558.203125 402.167969 560.699219 400.597656 562.882812 398.578125 C 563.285156 398.203125 563.46875 397.652344 563.371094 397.09375 C 563.277344 396.550781 562.941406 396.125 562.457031 395.917969 L 549.320312 390.402344 C 546.246094 389.109375 544.019531 388.171875 544.824219 383.46875 C 544.804688 383.003906 544.953125 382.410156 545.4375 381.859375 C 547.222656 379.808594 552.621094 379.347656 561.929688 380.445312 C 566.246094 380.953125 570.464844 382.222656 574.460938 384.210938 L 583.835938 388.878906 C 585.214844 388.546875 590.648438 386.953125 599.003906 380.917969 C 602.402344 378.457031 604.96875 379.078125 606.523438 380.023438 C 611.050781 382.789062 612.699219 392.03125 611.636719 399.015625 C 610.789062 404.546875 608.398438 408.199219 605.066406 409.035156 C 593.808594 411.851562 587.253906 411.785156 585.390625 411.679688 L 580.578125 416.105469 C 575.363281 420.898438 568.535156 423.558594 561.585938 423.558594 " fill-opacity="1" fill-rule="nonzero"/><path fill="#ffffff" d="M 306.71875 173.558594 C 307.355469 171.636719 309.261719 170.511719 311.167969 170.933594 C 316.492188 172.105469 343.910156 178.140625 349.019531 179.300781 C 354.136719 180.464844 354.335938 186.152344 357.25 191.363281 C 359.78125 195.894531 368.5 212.5 378 224.070312 C 380.859375 227.554688 381.257812 232.554688 379.035156 236.511719 C 377.753906 238.785156 376.128906 241.019531 374.203125 242.332031 C 369.25 245.71875 365.523438 249.75 355.570312 225.949219 C 354.964844 224.5 353.941406 223.253906 352.625 222.386719 C 350.777344 221.167969 347.863281 218.953125 345.015625 215.582031 C 345.015625 215.582031 328.339844 235.925781 324.082031 194.609375 C 323.703125 190.9375 325.339844 187.363281 328.433594 185.554688 C 328.675781 185.410156 328.9375 185.265625 329.207031 185.125 L 309.234375 178.722656 C 307.148438 178.050781 306.003906 175.710938 306.71875 173.558594 " fill-opacity="1" fill-rule="nonzero"/><path fill="#000000" d="M 306.71875 173.558594 L 306.726562 173.558594 Z M 345.015625 214.40625 C 345.363281 214.40625 345.6875 214.558594 345.914062 214.824219 C 348.640625 218.050781 351.417969 220.183594 353.273438 221.40625 C 354.78125 222.398438 355.949219 223.8125 356.65625 225.5 C 361.394531 236.839844 365.136719 242.769531 368.078125 243.625 C 369.558594 244.054688 370.867188 243.222656 372.875 241.824219 L 373.539062 241.359375 C 375.066406 240.320312 376.570312 238.496094 378.007812 235.9375 C 380.003906 232.386719 379.632812 227.914062 377.089844 224.816406 C 368.558594 214.425781 360.640625 199.992188 357.265625 193.824219 C 356.851562 193.066406 356.496094 192.433594 356.222656 191.941406 C 355.304688 190.289062 354.664062 188.652344 354.046875 187.070312 C 352.558594 183.269531 351.582031 181.089844 348.761719 180.449219 C 343.140625 179.171875 311.234375 172.152344 310.914062 172.078125 C 309.601562 171.792969 308.28125 172.585938 307.835938 173.929688 C 307.578125 174.695312 307.640625 175.511719 308.007812 176.226562 C 308.34375 176.894531 308.910156 177.386719 309.59375 177.605469 L 329.566406 184.007812 C 330.015625 184.148438 330.339844 184.550781 330.378906 185.023438 C 330.421875 185.492188 330.175781 185.941406 329.757812 186.164062 C 329.503906 186.296875 329.257812 186.433594 329.027344 186.570312 C 326.390625 188.109375 324.914062 191.214844 325.25 194.496094 C 327.167969 213.125 331.511719 218.21875 334.808594 219.207031 C 339.339844 220.570312 344.058594 214.894531 344.101562 214.835938 C 344.328125 214.566406 344.660156 214.410156 345.007812 214.40625 C 345.011719 214.40625 345.011719 214.40625 345.015625 214.40625 Z M 368.867188 246.09375 C 368.402344 246.09375 367.921875 246.027344 367.421875 245.882812 C 363.59375 244.769531 359.730469 238.949219 354.484375 226.40625 C 353.964844 225.152344 353.097656 224.101562 351.980469 223.367188 C 350.195312 222.191406 347.609375 220.230469 344.992188 217.339844 C 343.136719 219.210938 338.777344 222.855469 334.132812 221.457031 C 328.335938 219.71875 324.5625 210.726562 322.910156 194.734375 C 322.539062 191.125 323.921875 187.660156 326.496094 185.488281 L 308.875 179.839844 C 307.589844 179.425781 306.535156 178.523438 305.910156 177.292969 C 305.269531 176.035156 305.15625 174.539062 305.601562 173.191406 C 306.425781 170.703125 308.925781 169.238281 311.417969 169.785156 C 311.738281 169.855469 343.652344 176.878906 349.28125 178.152344 C 353.457031 179.105469 354.804688 182.5625 356.234375 186.214844 C 356.824219 187.726562 357.4375 189.285156 358.273438 190.789062 C 358.554688 191.292969 358.910156 191.929688 359.328125 192.695312 C 362.675781 198.800781 370.515625 213.105469 378.910156 223.324219 C 382.0625 227.164062 382.527344 232.699219 380.058594 237.085938 C 378.441406 239.964844 376.695312 242.054688 374.867188 243.304688 L 374.21875 243.753906 C 372.5625 244.90625 370.859375 246.09375 368.867188 246.09375 " fill-opacity="1" fill-rule="nonzero"/><path fill="#000000" d="M 348.832031 207.429688 C 348.632812 207.429688 348.425781 207.378906 348.242188 207.269531 C 346.972656 206.53125 344.71875 204.941406 343.488281 204.058594 C 338.019531 200.140625 334.972656 196.25 333.644531 194.285156 C 332.679688 192.855469 332.1875 191.25 332.230469 189.640625 C 332.316406 186.488281 334.390625 185.765625 335.277344 185.457031 C 338.660156 184.277344 343.953125 187.453125 344.550781 187.820312 C 345.101562 188.160156 345.273438 188.886719 344.933594 189.4375 C 344.589844 189.988281 343.867188 190.160156 343.316406 189.820312 C 341.4375 188.667969 337.808594 187.0625 336.054688 187.675781 C 335.253906 187.957031 334.625 188.171875 334.585938 189.699219 C 334.554688 190.816406 334.90625 191.949219 335.59375 192.972656 C 336.835938 194.808594 339.683594 198.449219 344.832031 202.132812 C 346.894531 203.605469 348.5625 204.734375 349.425781 205.242188 C 349.984375 205.566406 350.175781 206.289062 349.847656 206.847656 C 349.632812 207.21875 349.238281 207.429688 348.832031 207.429688 " fill-opacity="1" fill-rule="nonzero"/><path fill="#000000" d="M 345.234375 216.996094 C 344.921875 216.996094 344.609375 216.871094 344.378906 216.625 C 339.847656 211.808594 340.117188 206.648438 340.132812 206.433594 C 340.171875 205.785156 340.730469 205.300781 341.378906 205.335938 C 342.027344 205.378906 342.515625 205.929688 342.476562 206.574219 C 342.46875 206.765625 342.292969 210.976562 346.09375 215.015625 C 346.539062 215.488281 346.515625 216.230469 346.042969 216.675781 C 345.816406 216.890625 345.527344 216.996094 345.234375 216.996094 " fill-opacity="1" fill-rule="nonzero"/><path fill="#ffffff" d="M 607.773438 230.832031 L 605.960938 181.960938 L 571.667969 199.964844 L 572.042969 230.851562 C 572.289062 237.738281 577.953125 241.578125 577.953125 241.578125 C 584.960938 246.902344 594.777344 245.9375 601.921875 240.808594 L 603.578125 239.617188 C 606.34375 237.628906 607.929688 234.308594 607.773438 230.832031 " fill-opacity="1" fill-rule="nonzero"/><path fill="#000000" d="M 572.851562 200.671875 L 573.21875 230.835938 C 573.445312 237.027344 578.558594 240.570312 578.609375 240.605469 C 584.800781 245.3125 594.085938 244.984375 601.234375 239.851562 L 602.890625 238.660156 C 605.355469 236.894531 606.738281 233.988281 606.597656 230.882812 C 606.597656 230.878906 606.597656 230.875 606.597656 230.871094 L 604.855469 183.871094 Z M 588.90625 246.34375 C 584.683594 246.34375 580.609375 245.070312 577.238281 242.511719 C 577.039062 242.378906 571.136719 238.285156 570.867188 230.890625 L 570.488281 199.980469 C 570.484375 199.539062 570.730469 199.132812 571.121094 198.925781 L 605.414062 180.921875 C 605.773438 180.734375 606.203125 180.742188 606.550781 180.945312 C 606.902344 181.148438 607.121094 181.515625 607.136719 181.917969 L 608.949219 230.78125 C 609.117188 234.679688 607.371094 238.339844 604.261719 240.570312 L 602.605469 241.761719 C 598.363281 244.808594 593.550781 246.34375 588.90625 246.34375 " fill-opacity="1" fill-rule="nonzero"/><path fill="#000000" d="M 556.101562 125.996094 C 565.257812 125.449219 553.746094 135.140625 587.601562 124.972656 C 601.085938 120.921875 594.265625 137.105469 597.765625 136.0625 C 610.6875 132.21875 610.246094 132.335938 616.550781 134.039062 C 620.730469 135.167969 623.453125 143.085938 622.667969 149.003906 C 621.628906 156.816406 615.363281 158.835938 609.816406 175.335938 C 605.914062 186.929688 606.871094 193.96875 602.351562 195.660156 C 597.785156 197.371094 594.414062 191.070312 589.285156 192.550781 C 582.65625 194.464844 583.964844 206.273438 577.507812 211.175781 C 573.4375 214.261719 563.964844 215.699219 548.777344 208.105469 C 546.320312 206.871094 545.050781 204.003906 545.78125 201.277344 C 546.710938 197.789062 547.914062 193.382812 549.402344 189.273438 C 556.5 169.691406 563.277344 165.265625 560.820312 160.195312 C 557.058594 152.421875 542.761719 156.886719 540.394531 150.5 C 537.933594 143.875 543.566406 126.742188 556.101562 125.996094 " fill-opacity="1" fill-rule="nonzero"/><path fill="#ffffff" d="M 588.050781 159.703125 L 585.433594 164.734375 C 584.199219 167.097656 583.125 169.550781 582.222656 172.074219 C 580.519531 176.800781 577.300781 184.800781 575.539062 189.324219 C 569.875 203.855469 552.492188 187.894531 552.492188 187.894531 L 551.285156 183.890625 L 548.945312 182.914062 C 548.492188 182.722656 548.074219 182.433594 547.773438 182.039062 C 547.027344 181.046875 547.023438 179.730469 547.660156 178.757812 C 551.148438 173.453125 558.433594 161.542969 561.054688 150.851562 C 561.054688 150.851562 575.96875 146.890625 588.050781 159.703125 " fill-opacity="1" fill-rule="nonzero"/><path fill="#000000" d="M 553.519531 187.234375 C 555.011719 188.539062 563.328125 195.476562 569.328125 194.074219 C 571.613281 193.542969 573.292969 191.847656 574.4375 188.898438 C 574.921875 187.660156 575.511719 186.164062 576.152344 184.546875 C 577.816406 180.335938 579.882812 175.097656 581.117188 171.675781 C 582.035156 169.117188 583.136719 166.597656 584.390625 164.191406 L 586.621094 159.910156 C 576.671875 149.890625 564.890625 151.3125 562.011719 151.847656 C 559.28125 162.292969 552.496094 173.550781 548.640625 179.40625 C 548.253906 179.992188 548.285156 180.765625 548.714844 181.332031 C 548.902344 181.582031 549.191406 181.742188 549.402344 181.832031 L 551.734375 182.804688 C 552.0625 182.945312 552.304688 183.21875 552.40625 183.550781 Z M 567.691406 196.605469 C 560.332031 196.605469 552.078125 189.105469 551.699219 188.757812 C 551.542969 188.617188 551.425781 188.429688 551.367188 188.230469 L 550.320312 184.761719 L 548.492188 183.996094 C 547.8125 183.707031 547.238281 183.277344 546.839844 182.746094 C 545.8125 181.390625 545.746094 179.53125 546.675781 178.113281 C 549.785156 173.390625 557.292969 161.257812 559.914062 150.574219 C 560.015625 150.15625 560.332031 149.828125 560.753906 149.71875 C 561.386719 149.550781 576.484375 145.726562 588.910156 158.898438 C 589.25 159.261719 589.324219 159.800781 589.09375 160.246094 L 586.472656 165.273438 C 585.269531 167.589844 584.210938 170.011719 583.328125 172.472656 C 582.082031 175.921875 580.007812 181.183594 578.335938 185.410156 C 577.699219 187.023438 577.109375 188.515625 576.632812 189.75 C 575.195312 193.429688 572.914062 195.65625 569.855469 196.367188 C 569.148438 196.527344 568.421875 196.605469 567.691406 196.605469 " fill-opacity="1" fill-rule="nonzero"/><path fill="#ffffff" d="M 584.355469 177.253906 C 584.355469 177.253906 590.636719 165.15625 595.359375 169.277344 C 600.078125 173.398438 592.835938 186.535156 584.355469 177.253906 " fill-opacity="1" fill-rule="nonzero"/><path fill="#000000" d="M 559.332031 164.789062 C 558.339844 165.226562 557.769531 166.71875 557.628906 169.21875 C 557.367188 173.898438 558.296875 175.839844 559.125 176.636719 C 559.714844 177.203125 560.5 177.4375 561.515625 177.34375 C 561.609375 177.324219 562.082031 177.066406 562.609375 176.128906 C 563.75 174.085938 564.34375 170.246094 562.585938 165.589844 C 562.488281 165.308594 562.171875 164.929688 561.609375 164.691406 C 560.921875 164.40625 560.117188 164.441406 559.332031 164.789062 Z M 561.109375 179.710938 C 559.683594 179.710938 558.441406 179.238281 557.496094 178.324219 C 555.75 176.644531 555.027344 173.621094 555.28125 169.089844 C 555.476562 165.585938 556.492188 163.476562 558.382812 162.640625 C 559.761719 162.027344 561.230469 161.988281 562.515625 162.527344 C 563.597656 162.976562 564.425781 163.792969 564.792969 164.761719 C 566.925781 170.433594 566.019531 175.117188 564.460938 177.609375 C 563.679688 178.859375 562.707031 179.59375 561.734375 179.683594 C 561.519531 179.703125 561.3125 179.710938 561.109375 179.710938 " fill-opacity="1" fill-rule="nonzero"/><path fill="#000000" d="M 590.027344 168.242188 C 589.972656 168.242188 589.921875 168.238281 589.871094 168.234375 L 561.253906 164.496094 C 560.609375 164.410156 560.152344 163.820312 560.234375 163.179688 C 560.320312 162.535156 560.90625 162.082031 561.550781 162.164062 L 590.175781 165.902344 C 590.820312 165.984375 591.277344 166.574219 591.1875 167.21875 C 591.109375 167.8125 590.605469 168.242188 590.027344 168.242188 " fill-opacity="1" fill-rule="nonzero"/><path fill="#000000" d="M 549.078125 174.414062 L 549.082031 174.417969 Z M 549.199219 174.492188 Z M 548.570312 176.648438 C 548.398438 176.648438 548.234375 176.613281 548.070312 176.535156 C 547.335938 176.183594 546.699219 175.164062 546.171875 173.496094 C 545.28125 170.648438 544.976562 166.445312 546.828125 163.164062 C 547.484375 162.011719 548.457031 161.28125 549.648438 161.058594 C 552.488281 160.515625 555.640625 162.996094 555.984375 163.28125 C 556.488281 163.691406 556.566406 164.425781 556.152344 164.933594 C 555.742188 165.4375 555.007812 165.511719 554.503906 165.101562 C 553.832031 164.5625 551.59375 163.082031 550.089844 163.363281 C 549.761719 163.425781 549.289062 163.59375 548.878906 164.320312 C 546.730469 168.128906 548.402344 173.644531 549.179688 174.46875 C 549.695312 174.773438 549.898438 175.429688 549.636719 175.984375 C 549.433594 176.402344 549.011719 176.648438 548.570312 176.648438 " fill-opacity="1" fill-rule="nonzero"/><path fill="#ffffff" d="M 479.550781 434.21875 C 479.160156 434.21875 478.78125 434.027344 478.554688 433.671875 L 458.5 402.003906 C 458.152344 401.457031 458.3125 400.730469 458.863281 400.382812 C 459.414062 400.035156 460.136719 400.199219 460.484375 400.746094 L 480.542969 432.417969 C 480.890625 432.964844 480.722656 433.691406 480.175781 434.039062 C 479.980469 434.164062 479.765625 434.21875 479.550781 434.21875 " fill-opacity="1" fill-rule="nonzero"/><path fill="#ffffff" d="M 488.398438 434.21875 C 487.75 434.21875 487.222656 433.695312 487.222656 433.046875 L 487.222656 401.375 C 487.222656 400.726562 487.75 400.199219 488.398438 400.199219 C 489.042969 400.199219 489.570312 400.726562 489.570312 401.375 L 489.570312 433.046875 C 489.570312 433.695312 489.042969 434.21875 488.398438 434.21875 " fill-opacity="1" fill-rule="nonzero"/><path fill="#ffffff" d="M 474.238281 446.789062 C 473.96875 446.789062 473.695312 446.699219 473.476562 446.507812 L 443.984375 421.371094 C 443.488281 420.949219 443.425781 420.207031 443.851562 419.714844 C 444.269531 419.222656 445.011719 419.164062 445.507812 419.582031 L 475.003906 444.71875 C 475.496094 445.140625 475.554688 445.882812 475.132812 446.378906 C 474.902344 446.648438 474.570312 446.789062 474.238281 446.789062 " fill-opacity="1" fill-rule="nonzero"/><path fill="#ffffff" d="M 175.136719 701.402344 L 161.566406 657.6875 C 161.566406 657.6875 149.648438 656.234375 145.464844 655.792969 C 72.148438 648.011719 108.941406 501.449219 169.945312 467.183594 C 207.429688 446.132812 252.289062 443.277344 295.988281 445.144531 C 326.726562 446.457031 356.570312 445.535156 384.269531 462.101562 C 423.617188 485.636719 457.347656 526.191406 478.21875 588.394531 L 497.15625 701.402344 L 175.136719 701.402344 " fill-opacity="1" fill-rule="nonzero"/><path fill="#000000" d="M 176.003906 700.230469 L 495.765625 700.230469 L 477.074219 588.679688 C 457.636719 530.804688 426.214844 488.558594 383.667969 463.113281 C 359.316406 448.542969 333.511719 447.648438 306.195312 446.703125 C 302.789062 446.582031 299.367188 446.464844 295.933594 446.316406 C 258.539062 444.71875 210.484375 445.761719 170.523438 468.207031 C 129.875 491.039062 97.65625 567.484375 107.84375 616.929688 C 111.082031 632.640625 120.257812 651.9375 145.585938 654.621094 C 149.734375 655.0625 161.589844 656.507812 161.710938 656.519531 C 162.167969 656.578125 162.554688 656.894531 162.691406 657.339844 Z M 497.15625 702.578125 L 175.136719 702.578125 C 174.621094 702.578125 174.167969 702.246094 174.015625 701.75 L 160.671875 658.761719 C 157.980469 658.433594 148.855469 657.332031 145.339844 656.960938 C 124.171875 654.714844 110.410156 641.035156 105.539062 617.402344 C 100.773438 594.265625 105.285156 562.589844 117.613281 532.664062 C 130.359375 501.714844 149.226562 477.472656 169.371094 466.160156 C 209.851562 443.421875 258.324219 442.355469 296.035156 443.96875 C 299.460938 444.113281 302.875 444.234375 306.277344 444.351562 C 333.910156 445.3125 360.003906 446.21875 384.875 461.09375 C 427.933594 486.851562 459.714844 529.554688 479.332031 588.019531 C 479.351562 588.078125 479.367188 588.136719 479.378906 588.199219 L 498.316406 701.210938 C 498.371094 701.550781 498.277344 701.902344 498.050781 702.164062 C 497.832031 702.425781 497.503906 702.578125 497.15625 702.578125 " fill-opacity="1" fill-rule="nonzero"/><path fill="#000000" d="M 264.667969 379.144531 C 255.8125 383.601562 249.140625 384.242188 244.328125 383.96875 C 226.945312 382.972656 215.796875 368.964844 213.566406 366.160156 C 202.042969 351.683594 196.488281 327.910156 206.257812 313.949219 C 213.289062 303.894531 222.144531 307.683594 230.242188 296.441406 C 239.433594 283.679688 230.011719 273.269531 238.492188 262.101562 C 248.257812 249.238281 269.773438 250.21875 273.644531 250.394531 C 286.921875 251.003906 288.5 257.585938 301.054688 257.246094 C 313.867188 256.898438 315.5625 250.464844 327.324219 250.394531 C 336.667969 250.339844 350.285156 254.320312 356.386719 265.121094 C 364.042969 278.675781 356.210938 296.53125 347.121094 305.957031 C 336.207031 317.269531 328.519531 311.199219 313.238281 320.417969 C 286.746094 336.386719 293.078125 364.835938 264.667969 379.144531 " fill-opacity="1" fill-rule="nonzero"/><path fill="#ffffff" d="M 314 439.40625 L 306.824219 394.8125 C 308.40625 394.632812 321.613281 392.332031 323.125 391.582031 C 335.355469 385.492188 331.957031 354.804688 331.957031 354.804688 L 338.753906 346.6875 L 318.476562 301.320312 C 296.9375 319.261719 289.253906 301.644531 267.933594 310.472656 C 246.617188 319.300781 258.183594 343.023438 258.183594 343.023438 C 258.183594 343.023438 240.761719 335.355469 244.484375 352.195312 C 247.296875 364.914062 256.570312 365.710938 262.671875 365.199219 L 251.308594 441.671875 C 251.308594 441.671875 214.734375 452.0625 207.664062 453.929688 C 216.867188 453.496094 280.507812 481.164062 352.691406 450.929688 L 314 439.40625 " fill-opacity="1" fill-rule="nonzero"/><path fill="#000000" d="M 213.226562 453.628906 C 214.863281 454.011719 216.789062 454.496094 219.007812 455.058594 C 241.144531 460.652344 292.460938 473.628906 349.15625 451.105469 L 313.664062 440.535156 C 313.230469 440.40625 312.910156 440.039062 312.839844 439.597656 L 305.667969 394.996094 C 305.617188 394.679688 305.695312 394.355469 305.890625 394.101562 C 306.085938 393.84375 306.375 393.679688 306.695312 393.644531 C 308.597656 393.429688 321.367188 391.132812 322.601562 390.53125 C 333.957031 384.875 330.820312 355.234375 330.789062 354.9375 C 330.75 354.617188 330.847656 354.296875 331.054688 354.054688 L 337.382812 346.5 L 318.027344 303.199219 C 306.046875 312.6875 298.207031 311.375 289.921875 309.992188 C 283.699219 308.953125 277.265625 307.878906 268.382812 311.554688 C 262.898438 313.832031 259.222656 317.339844 257.457031 321.992188 C 253.902344 331.367188 259.1875 342.398438 259.238281 342.507812 C 259.453125 342.953125 259.371094 343.484375 259.03125 343.839844 C 258.6875 344.195312 258.160156 344.296875 257.710938 344.101562 C 255.59375 343.175781 249.503906 341.261719 246.746094 343.523438 C 245.074219 344.898438 244.703125 347.730469 245.632812 351.941406 C 247.605469 360.867188 253.140625 364.816406 262.574219 364.023438 C 262.929688 363.996094 263.28125 364.132812 263.53125 364.394531 C 263.777344 364.65625 263.886719 365.015625 263.835938 365.371094 L 252.472656 441.84375 C 252.40625 442.300781 252.074219 442.675781 251.632812 442.804688 C 251.324219 442.890625 225.546875 450.210938 213.226562 453.628906 Z M 281.21875 466.234375 C 253.632812 466.234375 231.214844 460.566406 218.433594 457.335938 C 213.140625 455.996094 209.308594 455.023438 207.71875 455.109375 C 207.117188 455.128906 206.59375 454.707031 206.503906 454.109375 C 206.410156 453.515625 206.78125 452.949219 207.363281 452.792969 C 213.789062 451.09375 245.0625 442.222656 250.257812 440.75 L 261.296875 366.460938 C 251.507812 366.816406 245.472656 362.105469 243.335938 352.449219 C 242.199219 347.300781 242.84375 343.683594 245.253906 341.707031 C 248.242188 339.257812 253.113281 340.144531 256.089844 341.03125 C 254.609375 336.984375 252.386719 328.730469 255.261719 321.15625 C 257.261719 315.875 261.375 311.921875 267.484375 309.386719 C 276.988281 305.449219 284.066406 306.632812 290.308594 307.671875 C 298.667969 309.074219 305.886719 310.277344 317.722656 300.417969 C 318.003906 300.183594 318.378906 300.089844 318.742188 300.175781 C 319.097656 300.257812 319.398438 300.503906 319.546875 300.839844 L 339.828125 346.207031 C 340.011719 346.621094 339.945312 347.101562 339.65625 347.445312 L 333.175781 355.183594 C 333.585938 359.382812 335.726562 386.621094 323.648438 392.632812 C 322.136719 393.386719 311.882812 395.207031 308.175781 395.800781 L 315.042969 438.492188 L 353.027344 449.804688 C 353.503906 449.945312 353.839844 450.371094 353.867188 450.863281 C 353.890625 451.363281 353.605469 451.820312 353.144531 452.011719 C 327.4375 462.78125 302.753906 466.234375 281.21875 466.234375 " fill-opacity="1" fill-rule="nonzero"/><path fill="#000000" d="M 301.980469 396.320312 C 284.023438 396.320312 275.632812 382.421875 275.542969 382.269531 C 275.214844 381.710938 275.402344 380.988281 275.964844 380.660156 C 276.523438 380.332031 277.242188 380.519531 277.570312 381.078125 C 277.945312 381.710938 286.859375 396.355469 306.667969 393.644531 C 307.308594 393.558594 307.902344 394.007812 307.992188 394.652344 C 308.078125 395.292969 307.628906 395.886719 306.984375 395.972656 C 305.242188 396.210938 303.574219 396.320312 301.980469 396.320312 " fill-opacity="1" fill-rule="nonzero"/><path fill="#5479f7" d="M 275.039062 389.515625 C 265.324219 389.515625 256.207031 384.019531 251.800781 374.871094 L 246.757812 364.390625 C 246.476562 363.804688 246.722656 363.105469 247.308594 362.820312 C 247.894531 362.539062 248.597656 362.789062 248.878906 363.371094 L 253.917969 373.851562 C 258.917969 384.226562 270.578125 389.433594 281.640625 386.222656 L 306.363281 379.054688 C 306.988281 378.871094 307.640625 379.230469 307.820312 379.851562 C 308 380.480469 307.640625 381.128906 307.019531 381.3125 L 282.296875 388.480469 C 279.882812 389.179688 277.441406 389.515625 275.039062 389.515625 " fill-opacity="1" fill-rule="nonzero"/><path fill="#caddff" d="M 243.289062 344.191406 C 242.84375 344.191406 242.421875 343.9375 242.222656 343.511719 C 241.667969 342.320312 228.703125 314.113281 237.054688 292.117188 C 240.476562 283.101562 247.039062 276.445312 256.558594 272.328125 C 257.15625 272.066406 257.847656 272.339844 258.105469 272.9375 C 258.363281 273.53125 258.089844 274.222656 257.492188 274.484375 C 248.578125 278.339844 242.441406 284.550781 239.253906 292.945312 C 231.25 314.027344 244.21875 342.230469 244.351562 342.515625 C 244.625 343.101562 244.371094 343.804688 243.785156 344.082031 C 243.625 344.152344 243.453125 344.191406 243.289062 344.191406 " fill-opacity="1" fill-rule="nonzero"/><path fill="#5479f7" d="M 316.0625 380.074219 C 316.527344 376.382812 313.863281 373.007812 310.101562 372.53125 C 306.347656 372.058594 302.921875 374.664062 302.453125 378.355469 C 301.988281 382.042969 304.65625 385.417969 308.410156 385.894531 C 312.171875 386.371094 315.59375 383.761719 316.0625 380.074219 " fill-opacity="1" fill-rule="nonzero"/><path fill="#5479f7" d="M 266.527344 353.34375 C 267.835938 343 261.203125 333.632812 251.710938 332.433594 C 250.667969 332.300781 246.808594 332.207031 245.796875 332.273438 C 237.558594 332.828125 233.316406 339.785156 232.148438 349 C 230.890625 358.933594 234.679688 368.21875 243.570312 369.984375 C 243.9375 370.058594 246.570312 370.269531 246.949219 370.273438 C 257.355469 370.304688 265.21875 363.695312 266.527344 353.34375 " fill-opacity="1" fill-rule="nonzero"/><path fill="#99b9ff" d="M 262.417969 353.007812 C 263.527344 342.636719 256.710938 333.40625 247.195312 332.390625 C 237.679688 331.378906 229.070312 338.964844 227.964844 349.335938 C 226.855469 359.707031 233.671875 368.941406 243.1875 369.953125 C 252.703125 370.96875 261.3125 363.382812 262.417969 353.007812 " fill-opacity="1" fill-rule="nonzero"/><path fill="#ffffff" d="M 228.355469 365.820312 C 227.984375 365.777344 227.964844 365.261719 228.328125 365.191406 C 235.8125 363.722656 254.753906 359.125 250.890625 350.652344 C 249.46875 347.535156 233.863281 349.746094 227.496094 350.589844 C 221.128906 351.429688 201.363281 368.433594 197.0625 381.765625 C 193.757812 391.996094 192.320312 408.382812 189.613281 418.777344 C 189.613281 418.777344 88.5 551.875 99.738281 605.496094 C 113.742188 672.308594 179.445312 647.882812 191.707031 616.730469 C 202.570312 589.128906 206.710938 462.902344 207.511719 434.488281 C 208.824219 431.019531 212.242188 422.503906 215.261719 419.335938 C 219.089844 415.324219 238.898438 406.78125 239.542969 398.152344 C 240.03125 391.601562 229.113281 384.171875 223.816406 380.96875 C 222.964844 380.449219 223.320312 379.132812 224.320312 379.136719 C 227.40625 379.136719 232.230469 379.660156 236.9375 382.289062 C 244.734375 386.648438 253.066406 384.292969 250.710938 378.890625 C 248.59375 374.039062 237.3125 366.859375 228.355469 365.820312 " fill-opacity="1" fill-rule="nonzero"/><path fill="#000000" d="M 244.230469 350.214844 C 243.476562 350.214844 242.621094 350.234375 241.652344 350.28125 C 237.078125 350.5 231.886719 351.1875 228.449219 351.648438 L 227.648438 351.753906 C 221.6875 352.542969 202.34375 369.234375 198.179688 382.128906 C 196.355469 387.78125 195.09375 395.429688 193.871094 402.828125 C 192.886719 408.804688 191.953125 414.457031 190.75 419.074219 L 190.695312 419.300781 L 190.550781 419.484375 C 189.542969 420.816406 89.886719 552.765625 100.890625 605.253906 C 106.152344 630.347656 119.664062 645.066406 138.949219 646.691406 C 159.421875 648.417969 183.5625 634.214844 190.613281 616.300781 C 201.472656 588.710938 205.617188 459.980469 206.335938 434.457031 L 206.34375 434.257812 L 206.410156 434.074219 C 208.09375 429.636719 211.363281 421.71875 214.410156 418.527344 C 215.699219 417.175781 218.363281 415.53125 221.738281 413.449219 C 228.589844 409.222656 237.96875 403.429688 238.371094 398.066406 C 238.679688 393.917969 233.011719 387.90625 223.207031 381.976562 C 222.367188 381.464844 221.980469 380.480469 222.246094 379.535156 C 222.507812 378.59375 223.339844 377.960938 224.320312 377.960938 C 227.644531 377.964844 232.628906 378.539062 237.511719 381.265625 C 242.378906 383.980469 247.386719 383.855469 249.242188 382.175781 C 250.023438 381.46875 250.152344 380.546875 249.632812 379.359375 C 247.691406 374.910156 236.75 367.980469 228.21875 366.984375 C 227.476562 366.902344 226.921875 366.300781 226.890625 365.558594 C 226.863281 364.820312 227.371094 364.183594 228.101562 364.035156 C 239.8125 361.746094 247.925781 358.199219 249.796875 354.558594 C 250.363281 353.460938 250.371094 352.34375 249.820312 351.144531 C 249.816406 351.132812 249.3125 350.214844 244.230469 350.214844 Z M 142.523438 649.191406 C 141.253906 649.191406 139.996094 649.136719 138.75 649.035156 C 126.933594 648.035156 106 641.085938 98.589844 605.738281 C 93.867188 583.199219 107.613281 544.738281 139.453125 491.425781 C 162.160156 453.398438 186.445312 421.023438 188.535156 418.257812 C 189.683594 413.78125 190.59375 408.273438 191.554688 402.445312 C 192.789062 394.960938 194.066406 387.222656 195.941406 381.40625 C 200.417969 367.539062 220.78125 350.292969 227.339844 349.421875 L 228.136719 349.316406 C 242.132812 347.457031 250.515625 346.996094 251.960938 350.167969 C 252.816406 352.039062 252.792969 353.878906 251.890625 355.628906 C 249.335938 360.59375 239.9375 363.726562 232.59375 365.472656 C 241.132812 367.824219 249.859375 374.003906 251.789062 378.417969 C 252.707031 380.523438 252.351562 382.527344 250.820312 383.914062 C 247.910156 386.550781 241.695312 386.296875 236.363281 383.316406 C 232.25 381.019531 228.027344 380.402344 225.007812 380.320312 C 231.359375 384.230469 241.222656 391.441406 240.714844 398.238281 C 240.226562 404.796875 230.660156 410.703125 222.972656 415.449219 C 219.871094 417.367188 217.191406 419.015625 216.109375 420.152344 C 213.230469 423.167969 209.78125 431.835938 208.683594 434.71875 C 207.945312 460.777344 203.773438 589.277344 192.800781 617.160156 C 189.335938 625.960938 181.59375 634.5 171.5625 640.585938 C 162.3125 646.195312 152.140625 649.191406 142.523438 649.191406 " fill-opacity="1" fill-rule="nonzero"/><path fill="#99b9ff" d="M 155.640625 659.074219 C 151.519531 659.074219 148.917969 658.785156 148.652344 658.753906 C 148.007812 658.679688 147.546875 658.097656 147.621094 657.449219 C 147.695312 656.808594 148.277344 656.347656 148.925781 656.417969 C 149.085938 656.4375 165.414062 658.238281 182.726562 652.492188 C 205.792969 644.832031 219.597656 628.097656 223.757812 602.753906 C 223.859375 602.109375 224.464844 601.679688 225.105469 601.785156 C 225.746094 601.886719 226.179688 602.492188 226.078125 603.132812 C 220.703125 635.898438 199.898438 649.285156 183.390625 654.746094 C 172.488281 658.351562 162.160156 659.074219 155.640625 659.074219 " fill-opacity="1" fill-rule="nonzero"/><path fill="#ffffff" d="M 529.355469 571.957031 L 393.144531 571.957031 C 388.644531 571.957031 385.875 567.027344 388.226562 563.1875 L 472.628906 425.21875 C 474.433594 422.269531 477.632812 420.476562 481.085938 420.476562 L 616.167969 420.476562 C 621.164062 420.476562 624.234375 425.949219 621.625 430.210938 L 537.808594 567.21875 C 536.011719 570.160156 532.808594 571.957031 529.355469 571.957031 " fill-opacity="1" fill-rule="nonzero"/><path fill="#000000" d="M 481.085938 421.65625 C 478.066406 421.65625 475.214844 423.25 473.632812 425.828125 L 389.230469 563.800781 C 388.351562 565.234375 388.320312 566.96875 389.140625 568.4375 C 389.964844 569.90625 391.460938 570.78125 393.144531 570.78125 L 529.355469 570.78125 C 532.378906 570.78125 535.234375 569.179688 536.8125 566.605469 L 620.625 429.597656 C 621.625 427.964844 621.660156 425.992188 620.722656 424.320312 C 619.785156 422.652344 618.085938 421.65625 616.171875 421.65625 Z M 529.355469 573.128906 L 393.144531 573.128906 C 390.601562 573.128906 388.335938 571.804688 387.09375 569.589844 C 385.84375 567.367188 385.894531 564.746094 387.226562 562.570312 L 471.628906 424.601562 C 473.628906 421.332031 477.253906 419.304688 481.085938 419.304688 L 616.171875 419.304688 C 618.945312 419.304688 621.414062 420.746094 622.773438 423.171875 C 624.136719 425.59375 624.078125 428.453125 622.628906 430.820312 L 538.8125 567.828125 C 536.816406 571.101562 533.191406 573.128906 529.355469 573.128906 " fill-opacity="1" fill-rule="nonzero"/><path fill="#99b9ff" d="M 561.40625 483.980469 L 465.714844 483.980469 L 471.296875 474.835938 L 566.992188 474.835938 L 561.40625 483.980469 " fill-opacity="1" fill-rule="nonzero"/><path fill="#99b9ff" d="M 572.332031 466.078125 L 476.640625 466.078125 L 493.703125 438.113281 L 589.402344 438.113281 L 572.332031 466.078125 " fill-opacity="1" fill-rule="nonzero"/><path fill="#000000" d="M 526.421875 687.132812 L 376.429688 687.132812 L 487.625 516.195312 C 491.097656 510.855469 497.152344 507.617188 503.660156 507.617188 L 625.386719 507.617188 C 633.117188 507.617188 637.816406 515.890625 633.6875 522.234375 L 526.421875 687.132812 " fill-opacity="1" fill-rule="nonzero"/><path fill="#caddff" d="M 558.410156 567.554688 C 553.539062 575.050781 543.058594 581.125 535.003906 581.125 C 526.945312 581.125 524.367188 575.050781 529.242188 567.554688 C 534.113281 560.066406 544.597656 553.992188 552.648438 553.992188 C 560.710938 553.992188 563.289062 560.066406 558.410156 567.554688 " fill-opacity="1" fill-rule="nonzero"/><path fill="#000000" d="M 512.421875 701.402344 L 260.78125 701.402344 C 252.75 701.402344 246.242188 694.898438 246.242188 686.871094 L 246.242188 685.910156 L 526.960938 685.910156 L 526.960938 686.871094 C 526.960938 694.898438 520.453125 701.402344 512.421875 701.402344 " fill-opacity="1" fill-rule="nonzero"/><path fill="#ffffff" d="M 518.617188 688.464844 L 389.804688 688.464844 C 389.160156 688.464844 388.632812 687.9375 388.632812 687.289062 C 388.632812 686.636719 389.160156 686.109375 389.804688 686.109375 L 518.617188 686.109375 C 519.269531 686.109375 519.792969 686.636719 519.792969 687.289062 C 519.792969 687.9375 519.269531 688.464844 518.617188 688.464844 " fill-opacity="1" fill-rule="nonzero"/><g clip-path="url(#20e9db619a)"><path fill="#99b9ff" d="M 87.609375 697.855469 L 738.070312 697.855469 L 738.070312 723.992188 L 87.609375 723.992188 L 87.609375 697.855469 " fill-opacity="1" fill-rule="nonzero"/></g><path fill="#000000" d="M 560.882812 718.777344 C 560.230469 718.777344 559.707031 718.25 559.707031 717.605469 L 559.707031 704.246094 C 559.707031 703.59375 560.230469 703.070312 560.882812 703.070312 C 561.53125 703.070312 562.054688 703.59375 562.054688 704.246094 L 562.054688 717.605469 C 562.054688 718.25 561.53125 718.777344 560.882812 718.777344 " fill-opacity="1" fill-rule="nonzero"/><path fill="#ffffff" d="M 95.707031 471.761719 C 95.613281 471.761719 95.523438 471.753906 95.425781 471.726562 C 94.796875 471.574219 94.410156 470.9375 94.566406 470.304688 C 94.734375 469.632812 111.640625 402.617188 153.050781 373.953125 C 153.585938 373.582031 154.320312 373.71875 154.691406 374.25 C 155.058594 374.785156 154.925781 375.515625 154.390625 375.886719 C 113.714844 404.039062 97.011719 470.203125 96.847656 470.867188 C 96.71875 471.402344 96.238281 471.761719 95.707031 471.761719 " fill-opacity="1" fill-rule="nonzero"/><path fill="#ffffff" d="M 114.132812 449.019531 C 113.980469 449.019531 113.828125 448.984375 113.675781 448.925781 C 113.078125 448.667969 112.800781 447.980469 113.050781 447.382812 C 119.789062 431.449219 127.617188 417.535156 136.3125 406.035156 C 136.707031 405.515625 137.445312 405.414062 137.960938 405.804688 C 138.476562 406.195312 138.582031 406.933594 138.191406 407.449219 C 129.609375 418.796875 121.882812 432.539062 115.21875 448.300781 C 115.027344 448.746094 114.59375 449.019531 114.132812 449.019531 " fill-opacity="1" fill-rule="nonzero"/><path fill="#ffffff" d="M 311.714844 175.996094 C 311.078125 175.996094 310.554688 175.488281 310.539062 174.84375 C 310.523438 174.199219 311.039062 173.664062 311.6875 173.648438 L 315.855469 173.554688 C 316.484375 173.523438 317.042969 174.058594 317.054688 174.707031 C 317.070312 175.355469 316.554688 175.894531 315.90625 175.910156 L 311.738281 175.996094 C 311.730469 175.996094 311.722656 175.996094 311.714844 175.996094 " fill-opacity="1" fill-rule="nonzero"/><path fill="#ffffff" d="M 297.128906 176.304688 C 296.492188 176.304688 295.96875 175.796875 295.953125 175.15625 C 295.9375 174.507812 296.453125 173.96875 297.105469 173.957031 L 301.269531 173.867188 C 301.894531 173.84375 302.457031 174.367188 302.472656 175.015625 C 302.484375 175.664062 301.972656 176.203125 301.324219 176.214844 L 297.152344 176.304688 C 297.144531 176.304688 297.136719 176.304688 297.128906 176.304688 " fill-opacity="1" fill-rule="nonzero"/><path fill="#ffffff" d="M 306.464844 170.976562 C 305.820312 170.976562 305.292969 170.453125 305.289062 169.808594 L 305.257812 165.707031 C 305.25 165.054688 305.773438 164.523438 306.421875 164.519531 C 306.425781 164.519531 306.429688 164.519531 306.433594 164.519531 C 307.078125 164.519531 307.605469 165.039062 307.609375 165.683594 L 307.640625 169.789062 C 307.648438 170.4375 307.125 170.972656 306.476562 170.976562 C 306.472656 170.976562 306.46875 170.976562 306.464844 170.976562 " fill-opacity="1" fill-rule="nonzero"/><path fill="#ffffff" d="M 306.578125 185.339844 C 305.933594 185.339844 305.410156 184.824219 305.40625 184.175781 L 305.371094 180.070312 C 305.367188 179.421875 305.890625 178.890625 306.539062 178.886719 C 306.542969 178.886719 306.542969 178.886719 306.546875 178.886719 C 307.191406 178.886719 307.71875 179.40625 307.722656 180.050781 L 307.753906 184.15625 C 307.761719 184.804688 307.238281 185.335938 306.589844 185.339844 C 306.585938 185.339844 306.582031 185.339844 306.578125 185.339844 " fill-opacity="1" fill-rule="nonzero"/><path fill="#ffffff" d="M 378.804688 381.113281 C 377.832031 381.113281 376.859375 381.3125 375.949219 381.710938 C 374.21875 382.472656 372.898438 383.855469 372.222656 385.625 C 370.8125 389.320312 372.699219 393.539062 376.4375 395.023438 C 378.261719 395.753906 380.238281 395.726562 382.003906 394.949219 C 383.730469 394.191406 385.054688 392.804688 385.730469 391.042969 C 387.140625 387.34375 385.25 383.125 381.511719 381.636719 C 380.632812 381.285156 379.714844 381.113281 378.804688 381.113281 Z M 379.144531 397.902344 C 377.941406 397.902344 376.730469 397.671875 375.566406 397.210938 C 370.648438 395.25 368.160156 389.675781 370.027344 384.785156 C 370.925781 382.429688 372.691406 380.574219 375 379.5625 C 377.351562 378.53125 379.972656 378.492188 382.382812 379.453125 C 387.304688 381.414062 389.792969 386.988281 387.925781 391.875 C 387.027344 394.234375 385.257812 396.089844 382.949219 397.101562 C 381.734375 397.636719 380.441406 397.902344 379.144531 397.902344 " fill-opacity="1" fill-rule="nonzero"/><path fill="#ffffff" d="M 351.398438 396.597656 C 350.824219 396.597656 350.253906 396.71875 349.71875 396.953125 C 348.707031 397.394531 347.933594 398.207031 347.539062 399.242188 C 346.710938 401.417969 347.824219 403.894531 350.023438 404.773438 C 351.097656 405.199219 352.257812 405.1875 353.292969 404.730469 C 354.308594 404.285156 355.078125 403.472656 355.472656 402.4375 C 356.304688 400.269531 355.1875 397.785156 352.988281 396.90625 C 352.472656 396.703125 351.933594 396.597656 351.398438 396.597656 Z M 351.617188 407.433594 C 350.789062 407.433594 349.953125 407.273438 349.152344 406.960938 C 345.765625 405.609375 344.058594 401.773438 345.34375 398.402344 C 345.964844 396.78125 347.183594 395.5 348.777344 394.800781 C 350.394531 394.089844 352.199219 394.066406 353.859375 394.726562 C 357.246094 396.074219 358.957031 399.914062 357.667969 403.277344 C 357.050781 404.90625 355.832031 406.183594 354.242188 406.882812 C 353.402344 407.25 352.511719 407.433594 351.617188 407.433594 " fill-opacity="1" fill-rule="nonzero"/><g clip-path="url(#e060dbf54e)"><g clip-path="url(#d930222038)"><g clip-path="url(#2d9aa2246e)"><path fill="#5479f7" d="M 624.304688 37.222656 L 653.628906 66.542969 L 638.183594 81.988281 L 608.859375 52.667969 Z M 624.304688 37.222656 " fill-opacity="1" fill-rule="nonzero"/></g></g></g><g clip-path="url(#2e643f7ee5)"><g clip-path="url(#b71068e298)"><g clip-path="url(#e36dff5064)"><path fill="#5479f7" d="M 50.753906 559.410156 L 42.222656 518.832031 L 63.597656 514.335938 L 72.128906 554.917969 Z M 50.753906 559.410156 " fill-opacity="1" fill-rule="nonzero"/></g></g></g><g clip-path="url(#67f9f33032)"><g clip-path="url(#1f9af684dd)"><path fill="#5479f7" d="M 708.269531 627.746094 L 749.734375 627.746094 L 749.734375 649.589844 L 708.269531 649.589844 Z M 708.269531 627.746094 " fill-opacity="1" fill-rule="nonzero"/></g></g></svg>