<svg xmlns="http://www.w3.org/2000/svg" xmlns:xlink="http://www.w3.org/1999/xlink" width="1080" zoomAndPan="magnify" viewBox="0 0 810 809.999993" height="1080" preserveAspectRatio="xMidYMid meet" version="1.0"><defs><clipPath id="25244b1ad4"><path d="M 51 32 L 810 32 L 810 804 L 51 804 Z M 51 32 " clip-rule="nonzero"/></clipPath><clipPath id="4c17c5d4ca"><path d="M 389.128906 -70.964844 L 906.664062 530.53125 L 397.269531 968.820312 L -120.269531 367.324219 Z M 389.128906 -70.964844 " clip-rule="nonzero"/></clipPath><clipPath id="b8d1c10dd4"><path d="M 389.128906 -70.964844 L 906.664062 530.53125 L 397.269531 968.820312 L -120.269531 367.324219 Z M 389.128906 -70.964844 " clip-rule="nonzero"/></clipPath></defs><g clip-path="url(#25244b1ad4)"><g clip-path="url(#4c17c5d4ca)"><g clip-path="url(#b8d1c10dd4)"><path fill="#0e2982" d="M 300.960938 34.675781 C 257.230469 43.085938 226.023438 82.40625 201.351562 119.902344 C 176.667969 157.398438 151.109375 198.632812 109.765625 216.003906 C 97.265625 221.257812 83.570312 224.167969 72.644531 232.285156 C 51.777344 247.785156 47.59375 278.21875 55.75 301.878906 C 63.898438 325.535156 81.578125 344.179688 98.1875 362.699219 C 114.792969 381.21875 131.289062 401.375 136.183594 426.027344 C 146.117188 476.058594 105.957031 525.25 104.164062 576.71875 C 102.800781 615.808594 124.261719 651.945312 153.074219 677.296875 C 181.886719 702.65625 217.605469 718.9375 252.796875 734.890625 C 304.921875 758.519531 357.484375 782.292969 413.765625 794.882812 C 466.097656 806.585938 522.429688 808.148438 574.164062 789.886719 C 625.90625 771.625 672.285156 731.457031 689.359375 679.671875 C 703.363281 637.1875 699.683594 585.683594 733.183594 555.222656 C 752.867188 537.324219 781.855469 531.046875 798.664062 510.46875 C 837.046875 463.460938 790.695312 395.816406 756.011719 365.617188 C 714.511719 329.476562 660.535156 315.90625 605.515625 313.09375 C 569.925781 311.269531 530.292969 314.6875 502.292969 290.109375 C 460.570312 253.492188 455.792969 183.667969 435.957031 134.46875 C 414.589844 81.449219 367.425781 21.890625 300.960938 34.675781 " fill-opacity="1" fill-rule="nonzero"/></g></g></g><path fill="#caddff" d="M 463.714844 120.261719 C 477.917969 124.6875 540.925781 145.257812 603.84375 199.851562 C 619.085938 213.078125 678.273438 264.734375 704.597656 336.601562 C 749.398438 458.925781 698.207031 646.824219 543.789062 721.613281 C 363.925781 808.726562 136.722656 701.5 84.90625 558.007812 C 61.925781 494.367188 60.886719 388.824219 118.785156 319.234375 C 165.382812 263.226562 245.066406 236.613281 241.976562 183.636719 C 240.488281 158.121094 221.234375 151.070312 226.578125 134.996094 C 239.246094 96.882812 363.355469 88.976562 463.714844 120.261719 " fill-opacity="1" fill-rule="nonzero"/><path fill="#99b9ff" d="M 106.335938 107.550781 L 263.386719 169.457031 C 271.511719 172.664062 273.410156 183.316406 266.882812 189.128906 L 247.78125 206.144531 C 242.949219 210.449219 242.523438 217.851562 246.816406 222.691406 L 329.808594 316.167969 C 334.109375 321.007812 341.523438 321.449219 346.363281 317.144531 L 457.597656 218.386719 C 462.4375 214.089844 469.851562 214.527344 474.152344 219.371094 L 696.40625 468.90625 C 700.703125 473.746094 700.265625 481.160156 695.421875 485.460938 L 654.761719 521.566406 C 649.917969 525.863281 642.503906 525.425781 638.203125 520.578125 L 467.59375 329.277344 C 463.292969 324.433594 455.878906 323.992188 451.03125 328.292969 L 339.84375 427.019531 C 335 431.316406 327.589844 430.878906 323.285156 426.035156 L 188.730469 274.492188 C 184.421875 269.640625 176.996094 269.207031 172.152344 273.523438 L 151.554688 291.875 C 144.984375 297.734375 134.542969 294.53125 132.382812 286 L 90.660156 121.34375 C 88.320312 112.082031 97.445312 104.046875 106.335938 107.550781 " fill-opacity="1" fill-rule="nonzero"/><path fill="#5479f7" d="M 233.65625 665.164062 L 233.65625 709.328125 C 233.65625 731.402344 215.765625 749.292969 193.6875 749.292969 L 164.921875 749.292969 C 142.847656 749.292969 124.953125 731.402344 124.953125 709.328125 L 124.953125 665.164062 L 233.65625 665.164062 " fill-opacity="1" fill-rule="nonzero"/><path fill="#99b9ff" d="M 330.722656 516.621094 C 320.464844 525.839844 300.382812 539.746094 263.542969 552.472656 C 201.386719 573.945312 184.140625 639.007812 184.140625 639.007812 C 291.234375 659.117188 327.316406 558.734375 337.066406 520.476562 C 338.015625 516.761719 333.566406 514.058594 330.722656 516.621094 " fill-opacity="1" fill-rule="nonzero"/><path fill="#5479f7" d="M 178.699219 642.824219 C 178.851562 642.824219 179.007812 642.792969 179.15625 642.730469 C 231.816406 620.535156 268.167969 592.691406 289.394531 573.234375 C 312.417969 552.132812 323.140625 536.03125 323.242188 535.871094 C 323.601562 535.328125 323.453125 534.597656 322.90625 534.238281 C 322.363281 533.878906 321.632812 534.03125 321.273438 534.574219 C 321.171875 534.734375 310.566406 550.644531 287.726562 571.566406 C 266.652344 590.871094 230.550781 618.511719 178.238281 640.558594 C 177.640625 640.8125 177.359375 641.503906 177.613281 642.105469 C 177.800781 642.550781 178.238281 642.824219 178.699219 642.824219 " fill-opacity="1" fill-rule="nonzero"/><path fill="#5479f7" d="M 179.308594 663.054688 C 179.941406 663.054688 180.46875 662.542969 180.484375 661.898438 L 187 328.433594 C 187.015625 327.785156 186.496094 327.25 185.847656 327.238281 C 185.222656 327.199219 184.65625 327.742188 184.644531 328.390625 L 178.125 661.851562 C 178.113281 662.503906 178.628906 663.039062 179.277344 663.054688 C 179.285156 663.054688 179.296875 663.054688 179.308594 663.054688 " fill-opacity="1" fill-rule="nonzero"/><path fill="#5479f7" d="M 183.785156 476.230469 C 184.105469 476.230469 184.421875 476.105469 184.652344 475.851562 C 185.097656 475.371094 185.066406 474.625 184.582031 474.1875 L 135.105469 428.777344 C 134.625 428.339844 133.875 428.375 133.4375 428.847656 C 132.996094 429.328125 133.027344 430.078125 133.507812 430.511719 L 182.992188 475.921875 C 183.21875 476.128906 183.503906 476.230469 183.785156 476.230469 " fill-opacity="1" fill-rule="nonzero"/><path fill="#5479f7" d="M 185.824219 449.445312 C 185.992188 449.445312 186.164062 449.410156 186.324219 449.332031 L 238.039062 425.160156 C 238.625 424.882812 238.878906 424.179688 238.601562 423.589844 C 238.328125 423 237.625 422.75 237.035156 423.027344 L 185.328125 447.199219 C 184.738281 447.476562 184.480469 448.175781 184.757812 448.765625 C 184.960938 449.191406 185.386719 449.445312 185.824219 449.445312 " fill-opacity="1" fill-rule="nonzero"/><path fill="#000000" d="M 120.246094 549.117188 C 120.246094 582.296875 147.140625 609.191406 180.316406 609.191406 C 213.492188 609.191406 240.390625 582.296875 240.390625 549.117188 C 240.390625 515.941406 213.492188 489.046875 180.316406 489.046875 C 147.140625 489.046875 120.246094 515.941406 120.246094 549.117188 " fill-opacity="1" fill-rule="nonzero"/><path fill="#99b9ff" d="M 119.460938 547.335938 C 119.460938 579.53125 145.558594 605.625 177.746094 605.625 C 209.9375 605.625 236.035156 579.53125 236.035156 547.335938 C 236.035156 515.144531 209.9375 489.046875 177.746094 489.046875 C 145.558594 489.046875 119.460938 515.144531 119.460938 547.335938 " fill-opacity="1" fill-rule="nonzero"/><path fill="#000000" d="M 177.75 490.226562 C 209.234375 490.226562 234.859375 515.847656 234.859375 547.335938 C 234.859375 578.824219 209.234375 604.445312 177.75 604.445312 C 146.257812 604.445312 120.640625 578.824219 120.640625 547.335938 C 120.640625 515.847656 146.257812 490.226562 177.75 490.226562 Z M 177.75 606.804688 C 210.539062 606.804688 237.214844 580.128906 237.214844 547.335938 C 237.214844 514.546875 210.539062 487.871094 177.75 487.871094 C 144.960938 487.871094 118.285156 514.546875 118.285156 547.335938 C 118.285156 580.128906 144.960938 606.804688 177.75 606.804688 " fill-opacity="1" fill-rule="nonzero"/><path fill="#ffffff" d="M 128.832031 547.335938 C 128.832031 574.351562 150.734375 596.25 177.75 596.25 C 204.761719 596.25 226.664062 574.351562 226.664062 547.335938 C 226.664062 520.320312 204.761719 498.417969 177.75 498.417969 C 150.734375 498.417969 128.832031 520.320312 128.832031 547.335938 " fill-opacity="1" fill-rule="nonzero"/><path fill="#000000" d="M 136.621094 575.011719 C 136.84375 575.011719 137.066406 574.949219 137.261719 574.820312 C 137.808594 574.46875 137.964844 573.742188 137.609375 573.191406 C 135.132812 569.355469 133.230469 565.199219 131.945312 560.832031 C 131.761719 560.210938 131.097656 559.855469 130.480469 560.035156 C 129.855469 560.222656 129.5 560.875 129.683594 561.5 C 131.03125 566.082031 133.035156 570.445312 135.628906 574.472656 C 135.859375 574.820312 136.234375 575.011719 136.621094 575.011719 " fill-opacity="1" fill-rule="nonzero"/><path fill="#000000" d="M 133.714844 527.175781 C 134.15625 527.175781 134.578125 526.933594 134.78125 526.515625 C 142.839844 509.910156 159.304688 499.601562 177.75 499.601562 C 192.902344 499.601562 207.300781 506.902344 216.269531 519.140625 C 216.65625 519.660156 217.394531 519.777344 217.917969 519.390625 C 218.445312 519.007812 218.558594 518.273438 218.175781 517.746094 C 208.761719 504.910156 193.648438 497.242188 177.75 497.242188 C 158.390625 497.242188 141.117188 508.066406 132.65625 525.488281 C 132.375 526.070312 132.617188 526.773438 133.207031 527.058594 C 133.371094 527.140625 133.546875 527.175781 133.714844 527.175781 " fill-opacity="1" fill-rule="nonzero"/><path fill="#000000" d="M 177.746094 597.429688 C 205.371094 597.429688 227.84375 574.957031 227.84375 547.335938 C 227.84375 538.753906 225.636719 530.289062 221.464844 522.851562 C 221.140625 522.285156 220.425781 522.082031 219.859375 522.402344 C 219.289062 522.71875 219.085938 523.4375 219.40625 524.007812 C 223.382812 531.089844 225.484375 539.160156 225.484375 547.335938 C 225.484375 573.660156 204.070312 595.074219 177.746094 595.074219 C 177.097656 595.074219 176.570312 595.601562 176.570312 596.25 C 176.570312 596.902344 177.097656 597.429688 177.746094 597.429688 " fill-opacity="1" fill-rule="nonzero"/><path fill="#5479f7" d="M 182.230469 581.871094 L 182.230469 573.828125 C 187.902344 573.574219 193.402344 572.054688 196.621094 570.1875 L 194.082031 560.285156 C 190.527344 562.234375 185.535156 564.007812 180.03125 564.007812 C 175.203125 564.007812 171.902344 562.148438 171.902344 558.761719 C 171.902344 555.542969 174.613281 553.511719 180.875 551.394531 C 189.933594 548.351562 196.109375 544.117188 196.109375 535.90625 C 196.109375 528.460938 190.863281 522.617188 181.804688 520.835938 L 181.804688 512.796875 L 173.511719 512.796875 L 173.511719 520.246094 C 167.839844 520.5 164.03125 521.6875 161.238281 523.039062 L 163.695312 532.605469 C 165.894531 531.675781 169.789062 529.726562 175.882812 529.726562 C 181.386719 529.726562 183.160156 532.097656 183.160156 534.46875 C 183.160156 537.261719 180.199219 539.039062 173.003906 541.746094 C 162.929688 545.300781 158.867188 549.957031 158.867188 557.574219 C 158.867188 565.113281 164.199219 571.542969 173.933594 573.238281 L 173.933594 581.871094 L 182.230469 581.871094 " fill-opacity="1" fill-rule="nonzero"/><path fill="#000000" d="M 71.761719 423.234375 C 71.761719 448.550781 92.289062 469.074219 117.601562 469.074219 C 142.921875 469.074219 163.449219 448.550781 163.449219 423.234375 C 163.449219 397.917969 142.921875 377.390625 117.601562 377.390625 C 92.289062 377.390625 71.761719 397.917969 71.761719 423.234375 " fill-opacity="1" fill-rule="nonzero"/><path fill="#99b9ff" d="M 71.160156 421.871094 C 71.160156 446.441406 91.074219 466.351562 115.644531 466.351562 C 140.210938 466.351562 160.125 446.441406 160.125 421.871094 C 160.125 397.308594 140.210938 377.386719 115.644531 377.386719 C 91.074219 377.386719 71.160156 397.308594 71.160156 421.871094 " fill-opacity="1" fill-rule="nonzero"/><path fill="#000000" d="M 115.640625 378.566406 C 139.519531 378.566406 158.941406 397.992188 158.941406 421.871094 C 158.941406 445.75 139.519531 465.175781 115.640625 465.175781 C 91.765625 465.175781 72.339844 445.75 72.339844 421.871094 C 72.339844 397.992188 91.765625 378.566406 115.640625 378.566406 Z M 115.640625 467.535156 C 140.820312 467.535156 161.304688 447.046875 161.304688 421.871094 C 161.304688 396.695312 140.820312 376.210938 115.640625 376.210938 C 90.464844 376.210938 69.984375 396.695312 69.984375 421.871094 C 69.984375 447.046875 90.464844 467.535156 115.640625 467.535156 " fill-opacity="1" fill-rule="nonzero"/><path fill="#ffffff" d="M 78.316406 421.875 C 78.316406 442.488281 95.027344 459.203125 115.644531 459.203125 C 136.261719 459.203125 152.96875 442.488281 152.96875 421.875 C 152.96875 401.257812 136.261719 384.542969 115.644531 384.542969 C 95.027344 384.542969 78.316406 401.257812 78.316406 421.875 " fill-opacity="1" fill-rule="nonzero"/><path fill="#000000" d="M 84.257812 443.269531 C 84.476562 443.269531 84.703125 443.207031 84.898438 443.082031 C 85.445312 442.726562 85.601562 442 85.246094 441.453125 C 83.375 438.546875 81.925781 435.398438 80.957031 432.09375 C 80.773438 431.46875 80.113281 431.113281 79.488281 431.296875 C 78.867188 431.480469 78.511719 432.132812 78.695312 432.757812 C 79.730469 436.28125 81.269531 439.636719 83.265625 442.730469 C 83.492188 443.082031 83.875 443.269531 84.257812 443.269531 " fill-opacity="1" fill-rule="nonzero"/><path fill="#000000" d="M 82.046875 406.769531 C 82.476562 406.769531 82.898438 406.527344 83.101562 406.105469 C 89.203125 393.53125 101.675781 385.726562 115.644531 385.726562 C 127.121094 385.726562 138.023438 391.253906 144.816406 400.523438 C 145.199219 401.046875 145.941406 401.15625 146.464844 400.773438 C 146.988281 400.386719 147.101562 399.652344 146.71875 399.125 C 139.480469 389.253906 127.863281 383.363281 115.644531 383.363281 C 100.992188 383.363281 87.382812 391.886719 80.984375 405.070312 C 80.699219 405.660156 80.945312 406.367188 81.527344 406.648438 C 81.695312 406.730469 81.867188 406.769531 82.046875 406.769531 " fill-opacity="1" fill-rule="nonzero"/><path fill="#000000" d="M 115.640625 460.378906 C 136.871094 460.378906 154.148438 443.105469 154.148438 421.871094 C 154.148438 415.273438 152.453125 408.765625 149.246094 403.046875 C 148.925781 402.484375 148.207031 402.277344 147.640625 402.597656 C 147.070312 402.914062 146.871094 403.636719 147.183594 404.203125 C 150.203125 409.566406 151.789062 415.675781 151.789062 421.871094 C 151.789062 441.800781 135.574219 458.023438 115.640625 458.023438 C 114.988281 458.023438 114.460938 458.546875 114.460938 459.199219 C 114.460938 459.851562 114.988281 460.378906 115.640625 460.378906 " fill-opacity="1" fill-rule="nonzero"/><path fill="#5479f7" d="M 119.058594 448.226562 L 119.058594 442.089844 C 123.390625 441.894531 127.589844 440.730469 130.042969 439.3125 L 128.105469 431.753906 C 125.394531 433.238281 121.578125 434.597656 117.382812 434.597656 C 113.699219 434.597656 111.179688 433.175781 111.179688 430.589844 C 111.179688 428.136719 113.246094 426.585938 118.03125 424.972656 C 124.941406 422.648438 129.65625 419.414062 129.65625 413.148438 C 129.65625 407.464844 125.648438 403.007812 118.742188 401.652344 L 118.742188 395.511719 L 112.410156 395.511719 L 112.410156 401.195312 C 108.082031 401.394531 105.175781 402.296875 103.042969 403.328125 L 104.917969 410.628906 C 106.59375 409.921875 109.566406 408.429688 114.222656 408.429688 C 118.417969 408.429688 119.773438 410.238281 119.773438 412.054688 C 119.773438 414.183594 117.515625 415.535156 112.023438 417.605469 C 104.339844 420.320312 101.234375 423.875 101.234375 429.6875 C 101.234375 435.4375 105.304688 440.347656 112.734375 441.636719 L 112.734375 448.226562 L 119.058594 448.226562 " fill-opacity="1" fill-rule="nonzero"/><path fill="#000000" d="M 204.378906 436.695312 C 204.378906 462.011719 224.902344 482.539062 250.222656 482.539062 C 275.539062 482.539062 296.066406 462.011719 296.066406 436.695312 C 296.066406 411.375 275.539062 390.851562 250.222656 390.851562 C 224.902344 390.851562 204.378906 411.375 204.378906 436.695312 " fill-opacity="1" fill-rule="nonzero"/><path fill="#99b9ff" d="M 203.78125 435.332031 C 203.78125 459.898438 223.699219 479.816406 248.261719 479.816406 C 272.832031 479.816406 292.742188 459.898438 292.742188 435.332031 C 292.742188 410.769531 272.832031 390.851562 248.261719 390.851562 C 223.699219 390.851562 203.78125 410.769531 203.78125 435.332031 " fill-opacity="1" fill-rule="nonzero"/><path fill="#000000" d="M 248.257812 392.027344 C 272.136719 392.027344 291.558594 411.449219 291.558594 435.332031 C 291.558594 459.207031 272.136719 478.632812 248.257812 478.632812 C 224.378906 478.632812 204.953125 459.207031 204.953125 435.332031 C 204.953125 411.449219 224.378906 392.027344 248.257812 392.027344 Z M 248.257812 480.992188 C 273.433594 480.992188 293.921875 460.507812 293.921875 435.332031 C 293.921875 410.148438 273.433594 389.667969 248.257812 389.667969 C 223.078125 389.667969 202.597656 410.148438 202.597656 435.332031 C 202.597656 460.507812 223.078125 480.992188 248.257812 480.992188 " fill-opacity="1" fill-rule="nonzero"/><path fill="#ffffff" d="M 210.929688 435.335938 C 210.929688 455.949219 227.644531 472.660156 248.261719 472.660156 C 268.878906 472.660156 285.589844 455.949219 285.589844 435.335938 C 285.589844 414.714844 268.878906 398.003906 248.261719 398.003906 C 227.644531 398.003906 210.929688 414.714844 210.929688 435.335938 " fill-opacity="1" fill-rule="nonzero"/><path fill="#000000" d="M 216.878906 456.730469 C 217.09375 456.730469 217.316406 456.671875 217.515625 456.542969 C 218.0625 456.191406 218.21875 455.464844 217.867188 454.914062 C 215.988281 452.007812 214.546875 448.859375 213.578125 445.554688 C 213.394531 444.929688 212.730469 444.574219 212.109375 444.753906 C 211.488281 444.9375 211.128906 445.597656 211.3125 446.21875 C 212.347656 449.738281 213.886719 453.09375 215.882812 456.191406 C 216.113281 456.539062 216.492188 456.730469 216.878906 456.730469 " fill-opacity="1" fill-rule="nonzero"/><path fill="#000000" d="M 214.65625 420.230469 C 215.09375 420.230469 215.511719 419.984375 215.71875 419.558594 C 221.820312 406.988281 234.289062 399.179688 248.257812 399.179688 C 259.734375 399.179688 270.636719 404.710938 277.429688 413.976562 C 277.816406 414.5 278.554688 414.617188 279.078125 414.234375 C 279.605469 413.84375 279.714844 413.105469 279.332031 412.582031 C 272.097656 402.714844 260.480469 396.824219 248.257812 396.824219 C 233.605469 396.824219 220 405.347656 213.59375 418.535156 C 213.316406 419.117188 213.554688 419.824219 214.144531 420.105469 C 214.304688 420.1875 214.488281 420.230469 214.65625 420.230469 " fill-opacity="1" fill-rule="nonzero"/><path fill="#000000" d="M 248.257812 473.839844 C 269.488281 473.839844 286.765625 456.5625 286.765625 435.332031 C 286.765625 428.734375 285.066406 422.222656 281.859375 416.507812 C 281.542969 415.941406 280.820312 415.738281 280.253906 416.058594 C 279.6875 416.375 279.484375 417.097656 279.804688 417.660156 C 282.816406 423.027344 284.40625 429.136719 284.40625 435.332031 C 284.40625 455.261719 268.1875 471.480469 248.257812 471.480469 C 247.609375 471.480469 247.078125 472.007812 247.078125 472.65625 C 247.078125 473.308594 247.609375 473.839844 248.257812 473.839844 " fill-opacity="1" fill-rule="nonzero"/><path fill="#5479f7" d="M 251.683594 461.6875 L 251.683594 455.546875 C 256.007812 455.359375 260.210938 454.195312 262.667969 452.773438 L 260.726562 445.210938 C 258.011719 446.703125 254.203125 448.058594 250.003906 448.058594 C 246.320312 448.058594 243.804688 446.632812 243.804688 444.054688 C 243.804688 441.59375 245.871094 440.046875 250.648438 438.4375 C 257.558594 436.109375 262.277344 432.878906 262.277344 426.613281 C 262.277344 420.925781 258.273438 416.464844 251.359375 415.113281 L 251.359375 408.976562 L 245.03125 408.976562 L 245.03125 414.660156 C 240.699219 414.851562 237.792969 415.761719 235.660156 416.789062 L 237.535156 424.09375 C 239.214844 423.382812 242.1875 421.894531 246.835938 421.894531 C 251.035156 421.894531 252.394531 423.707031 252.394531 425.511719 C 252.394531 427.644531 250.132812 429.003906 244.644531 431.070312 C 236.953125 433.78125 233.855469 437.335938 233.855469 443.144531 C 233.855469 448.898438 237.921875 453.808594 245.355469 455.097656 L 245.355469 461.6875 L 251.683594 461.6875 " fill-opacity="1" fill-rule="nonzero"/><path fill="#000000" d="M 144.851562 352.429688 C 144.851562 377.753906 165.375 398.277344 190.691406 398.277344 C 216.007812 398.277344 236.535156 377.753906 236.535156 352.429688 C 236.535156 327.113281 216.007812 306.589844 190.691406 306.589844 C 165.375 306.589844 144.851562 327.113281 144.851562 352.429688 " fill-opacity="1" fill-rule="nonzero"/><path fill="#99b9ff" d="M 144.253906 351.074219 C 144.253906 375.640625 164.167969 395.558594 188.738281 395.558594 C 213.300781 395.558594 233.214844 375.640625 233.214844 351.074219 C 233.214844 326.507812 213.300781 306.59375 188.738281 306.59375 C 164.167969 306.59375 144.253906 326.507812 144.253906 351.074219 " fill-opacity="1" fill-rule="nonzero"/><path fill="#000000" d="M 188.730469 307.765625 C 212.609375 307.765625 232.035156 327.191406 232.035156 351.070312 C 232.035156 374.949219 212.609375 394.371094 188.730469 394.371094 C 164.851562 394.371094 145.429688 374.949219 145.429688 351.070312 C 145.429688 327.191406 164.851562 307.765625 188.730469 307.765625 Z M 188.730469 396.730469 C 213.910156 396.730469 234.390625 376.246094 234.390625 351.070312 C 234.390625 325.890625 213.910156 305.410156 188.730469 305.410156 C 163.550781 305.410156 143.070312 325.890625 143.070312 351.070312 C 143.070312 376.246094 163.550781 396.730469 188.730469 396.730469 " fill-opacity="1" fill-rule="nonzero"/><path fill="#ffffff" d="M 151.402344 351.070312 C 151.402344 371.691406 168.117188 388.398438 188.730469 388.398438 C 209.347656 388.398438 226.058594 371.691406 226.058594 351.070312 C 226.058594 330.453125 209.347656 313.742188 188.730469 313.742188 C 168.117188 313.742188 151.402344 330.453125 151.402344 351.070312 " fill-opacity="1" fill-rule="nonzero"/><path fill="#000000" d="M 157.351562 372.476562 C 157.570312 372.476562 157.792969 372.410156 157.988281 372.285156 C 158.539062 371.929688 158.695312 371.199219 158.339844 370.65625 C 156.464844 367.753906 155.023438 364.605469 154.050781 361.292969 C 153.867188 360.671875 153.210938 360.316406 152.589844 360.5 C 151.960938 360.683594 151.605469 361.335938 151.789062 361.960938 C 152.824219 365.484375 154.363281 368.84375 156.363281 371.933594 C 156.585938 372.28125 156.96875 372.476562 157.351562 372.476562 " fill-opacity="1" fill-rule="nonzero"/><path fill="#000000" d="M 155.132812 335.96875 C 155.566406 335.96875 155.988281 335.71875 156.1875 335.304688 C 162.296875 322.730469 174.765625 314.917969 188.730469 314.917969 C 200.203125 314.917969 211.113281 320.449219 217.90625 329.71875 C 218.292969 330.246094 219.03125 330.355469 219.550781 329.972656 C 220.078125 329.589844 220.1875 328.847656 219.804688 328.324219 C 212.570312 318.457031 200.953125 312.5625 188.730469 312.5625 C 173.851562 312.5625 160.570312 320.878906 154.074219 334.273438 C 153.785156 334.859375 154.03125 335.566406 154.617188 335.847656 C 154.785156 335.925781 154.957031 335.96875 155.132812 335.96875 " fill-opacity="1" fill-rule="nonzero"/><path fill="#000000" d="M 188.730469 389.578125 C 209.964844 389.578125 227.238281 372.304688 227.238281 351.074219 C 227.238281 344.476562 225.542969 337.96875 222.335938 332.25 C 222.015625 331.683594 221.296875 331.484375 220.730469 331.800781 C 220.160156 332.121094 219.960938 332.835938 220.277344 333.40625 C 223.289062 338.769531 224.882812 344.882812 224.882812 351.074219 C 224.882812 371.003906 208.667969 387.226562 188.730469 387.226562 C 188.082031 387.226562 187.554688 387.75 187.554688 388.402344 C 187.554688 389.050781 188.082031 389.578125 188.730469 389.578125 " fill-opacity="1" fill-rule="nonzero"/><path fill="#5479f7" d="M 192.152344 377.429688 L 192.152344 371.292969 C 196.484375 371.097656 200.683594 369.9375 203.136719 368.511719 L 201.195312 360.953125 C 198.484375 362.441406 194.675781 363.800781 190.476562 363.800781 C 186.792969 363.800781 184.273438 362.375 184.273438 359.789062 C 184.273438 357.335938 186.34375 355.785156 191.125 354.171875 C 198.039062 351.851562 202.75 348.617188 202.75 342.351562 C 202.75 336.667969 198.742188 332.210938 191.835938 330.855469 L 191.835938 324.71875 L 185.5 324.71875 L 185.5 330.402344 C 181.175781 330.59375 178.265625 331.5 176.136719 332.53125 L 178.007812 339.832031 C 179.6875 339.121094 182.660156 337.636719 187.3125 337.636719 C 191.511719 337.636719 192.867188 339.445312 192.867188 341.253906 C 192.867188 343.386719 190.605469 344.746094 185.113281 346.8125 C 177.429688 349.523438 174.328125 353.074219 174.328125 358.886719 C 174.328125 364.636719 178.398438 369.546875 185.824219 370.839844 L 185.824219 377.429688 L 192.152344 377.429688 " fill-opacity="1" fill-rule="nonzero"/><path fill="#99b9ff" d="M 675.03125 740.601562 L 454.449219 740.601562 C 441.210938 740.601562 431.304688 728.445312 433.972656 715.480469 L 467.4375 552.800781 C 470.25 539.117188 482.292969 529.300781 496.261719 529.300781 L 685.464844 529.300781 L 675.03125 740.601562 " fill-opacity="1" fill-rule="nonzero"/><path fill="#000000" d="M 673.910156 739.417969 L 454.449219 739.417969 C 448.496094 739.417969 442.925781 736.773438 439.160156 732.15625 C 435.394531 727.539062 433.925781 721.546875 435.125 715.714844 L 468.589844 553.039062 C 471.28125 539.964844 482.917969 530.480469 496.261719 530.480469 L 684.226562 530.480469 Z M 454.449219 741.777344 L 675.03125 741.777344 C 675.660156 741.777344 676.179688 741.28125 676.207031 740.65625 L 686.640625 529.359375 C 686.65625 529.035156 686.539062 528.722656 686.316406 528.488281 C 686.09375 528.253906 685.785156 528.121094 685.464844 528.121094 L 496.261719 528.121094 C 481.804688 528.121094 469.195312 538.398438 466.285156 552.558594 L 432.816406 715.242188 C 431.476562 721.769531 433.121094 728.480469 437.332031 733.644531 C 441.542969 738.816406 447.785156 741.777344 454.449219 741.777344 " fill-opacity="1" fill-rule="nonzero"/><path fill="#5479f7" d="M 703.273438 740.601562 L 660.46875 740.601562 C 647.226562 740.601562 637.320312 728.445312 639.988281 715.480469 L 676.847656 536.296875 C 677.683594 532.222656 681.269531 529.300781 685.429688 529.300781 L 696.4375 529.300781 C 701 529.300781 704.800781 532.804688 705.171875 537.351562 L 720.25 722.183594 C 721.058594 732.101562 713.226562 740.601562 703.273438 740.601562 " fill-opacity="1" fill-rule="nonzero"/><path fill="#000000" d="M 696.4375 530.480469 C 700.359375 530.480469 703.679688 533.539062 703.996094 537.445312 L 719.074219 722.277344 C 719.441406 726.742188 717.96875 731.015625 714.929688 734.3125 C 711.894531 737.605469 707.753906 739.417969 703.273438 739.417969 L 660.46875 739.417969 C 654.511719 739.417969 648.9375 736.773438 645.175781 732.15625 C 641.410156 727.539062 639.941406 721.546875 641.140625 715.714844 L 678 536.535156 C 678.722656 533.027344 681.847656 530.480469 685.429688 530.480469 Z M 660.46875 741.777344 L 703.273438 741.777344 C 708.34375 741.777344 713.226562 739.640625 716.664062 735.90625 C 720.101562 732.179688 721.835938 727.140625 721.425781 722.085938 L 706.347656 537.253906 C 705.929688 532.136719 701.578125 528.121094 696.4375 528.121094 L 685.429688 528.121094 C 680.734375 528.121094 676.636719 531.460938 675.691406 536.0625 L 638.832031 715.242188 C 637.488281 721.769531 639.136719 728.480469 643.347656 733.644531 C 647.558594 738.816406 653.800781 741.777344 660.46875 741.777344 " fill-opacity="1" fill-rule="nonzero"/><path fill="#000000" d="M 660.46875 735.417969 L 689.632812 735.417969 C 690.28125 735.417969 690.8125 734.890625 690.8125 734.238281 C 690.8125 733.589844 690.28125 733.0625 689.632812 733.0625 L 660.46875 733.0625 C 656.429688 733.0625 652.652344 731.269531 650.105469 728.140625 C 647.554688 725.011719 646.558594 720.949219 647.371094 716.996094 L 659.46875 658.175781 C 659.601562 657.539062 659.191406 656.917969 658.554688 656.785156 C 657.914062 656.65625 657.292969 657.066406 657.160156 657.703125 L 645.0625 716.523438 C 644.105469 721.171875 645.277344 725.949219 648.277344 729.628906 C 651.277344 733.308594 655.71875 735.417969 660.46875 735.417969 " fill-opacity="1" fill-rule="nonzero"/><path fill="#000000" d="M 703.273438 735.417969 C 706.621094 735.417969 709.71875 734.0625 711.988281 731.597656 C 714.257812 729.136719 715.359375 725.9375 715.085938 722.601562 L 711.648438 680.480469 C 711.597656 679.832031 711.039062 679.34375 710.378906 679.402344 C 709.730469 679.457031 709.246094 680.023438 709.300781 680.671875 L 712.738281 722.792969 C 712.957031 725.46875 712.074219 728.027344 710.253906 730.003906 C 708.4375 731.972656 705.957031 733.0625 703.273438 733.0625 C 702.621094 733.0625 702.09375 733.589844 702.09375 734.238281 C 702.09375 734.890625 702.621094 735.417969 703.273438 735.417969 " fill-opacity="1" fill-rule="nonzero"/><path fill="#000000" d="M 700.910156 564.535156 C 700.945312 564.535156 700.976562 564.535156 701.007812 564.535156 C 701.65625 564.480469 702.140625 563.910156 702.085938 563.261719 L 701.371094 554.484375 C 701.320312 553.835938 700.761719 553.355469 700.101562 553.402344 C 699.453125 553.457031 698.96875 554.027344 699.023438 554.675781 L 699.738281 563.453125 C 699.789062 564.070312 700.304688 564.535156 700.910156 564.535156 " fill-opacity="1" fill-rule="nonzero"/><path fill="#000000" d="M 672.96875 587.898438 C 673.515625 587.898438 674.007812 587.511719 674.121094 586.953125 L 684.230469 537.816406 C 684.34375 537.25 684.851562 536.839844 685.429688 536.839844 L 696.4375 536.839844 C 697.070312 536.839844 697.609375 537.332031 697.660156 537.964844 L 698.128906 543.714844 C 698.183594 544.363281 698.75 544.847656 699.398438 544.792969 C 700.046875 544.742188 700.53125 544.171875 700.476562 543.523438 L 700.007812 537.773438 C 699.859375 535.929688 698.289062 534.484375 696.4375 534.484375 L 685.429688 534.484375 C 683.738281 534.484375 682.261719 535.6875 681.921875 537.34375 L 671.8125 586.480469 C 671.683594 587.117188 672.09375 587.738281 672.730469 587.871094 C 672.8125 587.886719 672.890625 587.898438 672.96875 587.898438 " fill-opacity="1" fill-rule="nonzero"/><path fill="#000000" d="M 472.273438 615.875 L 644.976562 615.875 C 650.667969 615.875 655.558594 612.003906 656.871094 606.46875 L 672.09375 542.199219 C 672.246094 541.566406 671.851562 540.929688 671.222656 540.78125 C 670.589844 540.628906 669.953125 541.023438 669.800781 541.65625 L 654.578125 605.925781 C 653.519531 610.394531 649.574219 613.515625 644.976562 613.515625 L 472.273438 613.515625 C 471.621094 613.515625 471.09375 614.042969 471.09375 614.695312 C 471.09375 615.34375 471.621094 615.875 472.273438 615.875 " fill-opacity="1" fill-rule="nonzero"/><path fill="#ffffff" d="M 578.320312 614.695312 L 573.480469 634.207031 C 572.699219 637.507812 569.753906 639.84375 566.359375 639.84375 L 532.152344 639.84375 C 528.429688 639.84375 525.730469 636.292969 526.730469 632.703125 L 531.738281 614.695312 L 578.320312 614.695312 " fill-opacity="1" fill-rule="nonzero"/><path fill="#000000" d="M 576.8125 615.875 L 572.339844 633.925781 C 571.675781 636.71875 569.21875 638.664062 566.359375 638.664062 L 532.152344 638.664062 C 530.75 638.664062 529.457031 638.023438 528.609375 636.90625 C 527.757812 635.789062 527.488281 634.371094 527.863281 633.019531 L 532.632812 615.875 Z M 532.152344 641.023438 L 566.359375 641.023438 C 570.316406 641.023438 573.71875 638.332031 574.628906 634.484375 L 579.464844 614.980469 C 579.550781 614.625 579.472656 614.257812 579.25 613.96875 C 579.023438 613.683594 578.683594 613.515625 578.320312 613.515625 L 531.738281 613.515625 C 531.210938 613.515625 530.746094 613.867188 530.601562 614.382812 L 525.59375 632.390625 C 525.019531 634.457031 525.433594 636.625 526.730469 638.332031 C 528.03125 640.042969 530.007812 641.023438 532.152344 641.023438 " fill-opacity="1" fill-rule="nonzero"/><path fill="#000000" d="M 467.339844 725.433594 L 629.21875 725.433594 C 629.867188 725.433594 630.394531 724.90625 630.394531 724.253906 C 630.394531 723.605469 629.867188 723.078125 629.21875 723.078125 L 467.339844 723.078125 C 466.6875 723.078125 466.160156 723.605469 466.160156 724.253906 C 466.160156 724.90625 466.6875 725.433594 467.339844 725.433594 " fill-opacity="1" fill-rule="nonzero"/><path fill="#5479f7" d="M 539.84375 521.917969 L 525.523438 521.917969 C 521.652344 521.917969 518.515625 525.054688 518.515625 528.921875 L 546.847656 528.921875 C 546.847656 525.054688 543.714844 521.917969 539.84375 521.917969 " fill-opacity="1" fill-rule="nonzero"/><path fill="#000000" d="M 545.550781 527.746094 L 519.8125 527.746094 C 520.359375 525.09375 522.714844 523.09375 525.523438 523.09375 L 539.84375 523.09375 C 542.652344 523.09375 545.003906 525.09375 545.550781 527.746094 Z M 518.515625 530.101562 L 546.847656 530.101562 C 547.5 530.101562 548.027344 529.574219 548.027344 528.921875 C 548.027344 524.410156 544.355469 520.738281 539.84375 520.738281 L 525.523438 520.738281 C 521.007812 520.738281 517.335938 524.410156 517.335938 528.921875 C 517.335938 529.574219 517.867188 530.101562 518.515625 530.101562 " fill-opacity="1" fill-rule="nonzero"/><path fill="#5479f7" d="M 654.625 521.917969 L 640.304688 521.917969 C 636.433594 521.917969 633.296875 525.054688 633.296875 528.921875 L 661.632812 528.921875 C 661.632812 525.054688 658.496094 521.917969 654.625 521.917969 " fill-opacity="1" fill-rule="nonzero"/><path fill="#000000" d="M 660.332031 527.746094 L 634.59375 527.746094 C 635.144531 525.09375 637.496094 523.09375 640.304688 523.09375 L 654.625 523.09375 C 657.433594 523.09375 659.785156 525.09375 660.332031 527.746094 Z M 633.296875 530.101562 L 661.632812 530.101562 C 662.28125 530.101562 662.808594 529.574219 662.808594 528.921875 C 662.808594 524.410156 659.136719 520.738281 654.625 520.738281 L 640.304688 520.738281 C 635.789062 520.738281 632.117188 524.410156 632.117188 528.921875 C 632.117188 529.574219 632.648438 530.101562 633.296875 530.101562 " fill-opacity="1" fill-rule="nonzero"/><path fill="#ffffff" d="M 650.886719 521.539062 L 653.195312 507.832031 C 654.832031 498.109375 648.277344 490.226562 638.554688 490.226562 L 552.675781 490.226562 C 542.953125 490.226562 533.746094 498.109375 532.109375 507.832031 L 529.800781 521.539062 L 536.371094 521.539062 L 538.167969 510.871094 C 539.441406 503.304688 546.609375 497.167969 554.175781 497.167969 L 634.714844 497.167969 C 642.285156 497.167969 647.382812 503.304688 646.109375 510.871094 L 644.3125 521.539062 L 650.886719 521.539062 " fill-opacity="1" fill-rule="nonzero"/><path fill="#000000" d="M 535.375 520.363281 L 531.191406 520.363281 L 533.269531 508.027344 C 534.8125 498.863281 543.519531 491.40625 552.675781 491.40625 L 638.554688 491.40625 C 642.855469 491.40625 646.625 493.0625 649.160156 496.058594 C 651.753906 499.121094 652.773438 503.234375 652.03125 507.636719 L 649.890625 520.363281 L 645.707031 520.363281 L 647.273438 511.066406 C 647.953125 507.023438 646.992188 503.21875 644.570312 500.355469 C 642.191406 497.542969 638.691406 495.992188 634.714844 495.992188 L 554.175781 495.992188 C 546.070312 495.992188 538.371094 502.582031 537.007812 510.675781 Z M 529.800781 522.71875 L 536.371094 522.71875 C 536.949219 522.71875 537.4375 522.304688 537.535156 521.734375 L 539.332031 511.066406 C 540.511719 504.054688 547.171875 498.351562 554.175781 498.351562 L 634.714844 498.351562 C 637.984375 498.351562 640.847656 499.605469 642.769531 501.875 C 644.738281 504.203125 645.511719 507.328125 644.949219 510.675781 L 643.152344 521.34375 C 643.09375 521.6875 643.191406 522.039062 643.414062 522.300781 C 643.636719 522.566406 643.96875 522.71875 644.3125 522.71875 L 650.886719 522.71875 C 651.460938 522.71875 651.953125 522.304688 652.050781 521.734375 L 654.355469 508.027344 C 655.214844 502.933594 654.007812 498.140625 650.960938 494.535156 C 647.96875 491 643.5625 489.050781 638.554688 489.050781 L 552.675781 489.050781 C 542.417969 489.050781 532.671875 497.386719 530.945312 507.636719 L 528.640625 521.34375 C 528.582031 521.6875 528.675781 522.039062 528.898438 522.300781 C 529.125 522.566406 529.453125 522.71875 529.800781 522.71875 " fill-opacity="1" fill-rule="nonzero"/><path fill="#99b9ff" d="M 634.289062 484.554688 L 558.851562 484.554688 C 555.808594 484.554688 552.929688 487.015625 552.417969 490.058594 L 551.308594 496.644531 C 550.796875 499.6875 552.847656 502.148438 555.886719 502.148438 L 631.328125 502.148438 C 634.367188 502.148438 637.246094 499.6875 637.757812 496.644531 L 638.867188 490.058594 C 639.378906 487.015625 637.328125 484.554688 634.289062 484.554688 " fill-opacity="1" fill-rule="nonzero"/><path fill="#000000" d="M 634.289062 485.730469 C 635.394531 485.730469 636.351562 486.148438 636.988281 486.898438 C 637.640625 487.675781 637.898438 488.722656 637.707031 489.863281 L 636.597656 496.449219 C 636.175781 498.945312 633.8125 500.972656 631.328125 500.972656 L 555.886719 500.972656 C 554.785156 500.972656 553.828125 500.558594 553.1875 499.804688 C 552.535156 499.035156 552.28125 497.980469 552.472656 496.84375 L 553.582031 490.253906 C 554 487.757812 556.363281 485.730469 558.851562 485.730469 Z M 555.886719 503.332031 L 631.328125 503.332031 C 634.914062 503.332031 638.320312 500.421875 638.921875 496.84375 L 640.027344 490.253906 C 640.335938 488.421875 639.898438 486.6875 638.785156 485.375 C 637.695312 484.085938 636.097656 483.375 634.289062 483.375 L 558.851562 483.375 C 555.265625 483.375 551.859375 486.285156 551.257812 489.863281 L 550.148438 496.449219 C 549.839844 498.285156 550.28125 500.015625 551.390625 501.328125 C 552.480469 502.621094 554.078125 503.332031 555.886719 503.332031 " fill-opacity="1" fill-rule="nonzero"/><path fill="#99b9ff" d="M 660.0625 725.433594 C 660.261719 725.433594 660.460938 725.382812 660.644531 725.28125 L 690.214844 708.429688 C 690.582031 708.226562 690.8125 707.832031 690.8125 707.410156 L 690.8125 541.925781 C 690.8125 541.277344 690.28125 540.75 689.632812 540.75 C 688.980469 540.75 688.453125 541.277344 688.453125 541.925781 L 688.453125 706.722656 L 659.480469 723.230469 C 658.914062 723.554688 658.71875 724.273438 659.039062 724.839844 C 659.257812 725.21875 659.652344 725.433594 660.0625 725.433594 " fill-opacity="1" fill-rule="nonzero"/><path fill="#000000" d="M 454.117188 344.527344 C 458.058594 345.511719 461.914062 342.21875 467.890625 337.117188 C 475.152344 330.921875 480.21875 326.597656 480.488281 319.640625 C 480.722656 313.53125 477.171875 307.855469 473.082031 304.824219 C 470.726562 303.085938 467.167969 302.28125 460.042969 300.675781 C 451.890625 298.839844 450.839844 299.566406 446.117188 297.714844 C 440.617188 295.558594 439.757812 293.679688 437.226562 294.15625 C 433.136719 294.929688 429.445312 300.96875 429.527344 306.601562 C 429.632812 314.058594 436.265625 315.175781 443.746094 327.339844 C 449.996094 337.511719 449.4375 343.359375 454.117188 344.527344 " fill-opacity="1" fill-rule="nonzero"/><path fill="#5479f7" d="M 475.355469 369.613281 C 462.050781 365.273438 441.78125 362.160156 417.546875 369.875 C 408.714844 372.6875 402.378906 380.464844 401.285156 389.675781 L 381.546875 503.328125 C 380.566406 511.589844 391.609375 519.625 399.390625 522.570312 C 407.519531 525.648438 419.804688 528.5625 437.199219 528.5625 C 455.851562 528.5625 469.40625 529.644531 476.964844 526.332031 C 483.246094 523.585938 492.695312 516.933594 493.011719 510.089844 L 491.640625 393.265625 C 492.136719 382.621094 485.488281 372.917969 475.355469 369.613281 " fill-opacity="1" fill-rule="nonzero"/><path fill="#5479f7" d="M 382.148438 418.449219 C 382.148438 418.449219 397.90625 374.804688 415.574219 370.609375 L 406.589844 432.449219 L 382.148438 418.449219 " fill-opacity="1" fill-rule="nonzero"/><path fill="#5479f7" d="M 518.992188 436.058594 C 518.992188 436.058594 512.6875 412.617188 507.851562 399.433594 C 498.074219 372.792969 477.152344 370.28125 477.152344 370.28125 L 477.152344 435.863281 L 518.992188 436.058594 " fill-opacity="1" fill-rule="nonzero"/><path fill="#000000" d="M 438.699219 381.949219 C 456.023438 381.949219 471.207031 374.867188 471.941406 374.519531 C 472.527344 374.242188 472.78125 373.535156 472.5 372.949219 C 472.222656 372.363281 471.519531 372.109375 470.929688 372.386719 C 470.730469 372.484375 450.625 381.855469 430.9375 379.066406 C 430.292969 378.976562 429.695312 379.421875 429.605469 380.066406 C 429.515625 380.707031 429.964844 381.308594 430.605469 381.398438 C 433.324219 381.785156 436.039062 381.949219 438.699219 381.949219 " fill-opacity="1" fill-rule="nonzero"/><path fill="#caddff" d="M 445.304688 458.085938 L 367.921875 457.96875 C 365.960938 457.964844 364.257812 456.628906 363.789062 454.726562 L 348.261719 391.714844 C 347.601562 389.027344 349.640625 386.425781 352.414062 386.429688 L 429.792969 386.546875 C 431.753906 386.550781 433.460938 387.890625 433.929688 389.796875 L 449.453125 452.800781 C 450.117188 455.492188 448.078125 458.09375 445.304688 458.085938 " fill-opacity="1" fill-rule="nonzero"/><path fill="#000000" d="M 445.304688 456.910156 L 445.304688 458.085938 L 445.304688 456.910156 L 367.925781 456.792969 C 366.503906 456.789062 365.273438 455.824219 364.929688 454.445312 L 349.40625 391.4375 C 349.179688 390.507812 349.386719 389.542969 349.976562 388.789062 C 350.566406 388.039062 351.453125 387.605469 352.410156 387.605469 L 429.792969 387.726562 C 431.214844 387.726562 432.441406 388.695312 432.785156 390.078125 L 448.3125 453.082031 C 448.539062 454.015625 448.332031 454.976562 447.742188 455.730469 C 447.152344 456.480469 446.265625 456.910156 445.3125 456.910156 C 445.308594 456.910156 445.308594 456.910156 445.304688 456.910156 Z M 445.3125 459.269531 C 446.996094 459.269531 448.558594 458.507812 449.59375 457.183594 C 450.636719 455.855469 451 454.15625 450.597656 452.519531 L 435.074219 389.511719 C 434.476562 387.078125 432.304688 385.375 429.796875 385.371094 L 352.414062 385.253906 C 352.414062 385.253906 352.410156 385.253906 352.410156 385.253906 C 350.726562 385.253906 349.164062 386.011719 348.125 387.332031 C 347.082031 388.660156 346.714844 390.363281 347.121094 391.996094 L 362.644531 455.007812 C 363.246094 457.445312 365.414062 459.144531 367.921875 459.148438 L 445.300781 459.269531 C 445.304688 459.269531 445.308594 459.269531 445.3125 459.269531 " fill-opacity="1" fill-rule="nonzero"/><path fill="#ffffff" d="M 353.964844 417.742188 L 356.230469 424.046875 L 374.851562 415.214844 C 374.851562 415.214844 385.066406 424.09375 360.25 435.402344 C 349.90625 440.121094 353.964844 417.742188 353.964844 417.742188 " fill-opacity="1" fill-rule="nonzero"/><path fill="#000000" d="M 374.570312 416.652344 C 375.148438 417.402344 375.996094 418.882812 375.691406 420.898438 C 375.230469 423.921875 372.097656 428.710938 359.761719 434.332031 C 357.511719 435.355469 356.636719 434.675781 356.351562 434.449219 C 354.371094 432.910156 354.121094 427.566406 354.507812 422.746094 L 355.117188 424.445312 C 355.230469 424.757812 355.472656 425.011719 355.78125 425.132812 C 356.085938 425.261719 356.433594 425.253906 356.734375 425.109375 Z M 357.65625 437.242188 C 358.589844 437.242188 359.621094 436.988281 360.738281 436.476562 C 371.449219 431.59375 377.265625 426.449219 378.027344 421.195312 C 378.636719 416.996094 375.746094 414.433594 375.621094 414.328125 C 375.269531 414.015625 374.765625 413.949219 374.34375 414.152344 L 356.902344 422.421875 L 355.078125 417.34375 C 354.894531 416.84375 354.394531 416.519531 353.871094 416.566406 C 353.339844 416.609375 352.902344 417.007812 352.804688 417.53125 C 352.527344 419.070312 350.214844 432.664062 354.902344 436.308594 C 355.703125 436.929688 356.621094 437.242188 357.65625 437.242188 " fill-opacity="1" fill-rule="nonzero"/><path fill="#ffffff" d="M 467.414062 400.183594 C 467.414062 400.183594 502.164062 419.761719 509.332031 425.90625 C 516.5 432.046875 524.273438 436.710938 514.136719 450.101562 C 504.003906 463.496094 460.960938 409.730469 460.960938 409.730469 C 460.960938 409.730469 452.675781 411.089844 449.800781 399.804688 C 449.800781 399.804688 435.816406 400.285156 435.3125 395.894531 L 455.046875 392.390625 C 457.597656 391.941406 460.207031 392.78125 462.015625 394.636719 L 467.414062 400.183594 " fill-opacity="1" fill-rule="nonzero"/><path fill="#000000" d="M 467.414062 400.183594 L 467.40625 400.183594 Z M 456.417969 393.453125 C 458.191406 393.453125 459.910156 394.164062 461.167969 395.460938 L 466.570312 401.003906 C 466.648438 401.085938 466.738281 401.15625 466.835938 401.207031 C 467.179688 401.40625 501.566406 420.800781 508.566406 426.800781 C 509.121094 427.277344 509.683594 427.746094 510.242188 428.214844 C 516.738281 433.640625 521.871094 437.929688 513.199219 449.390625 C 512.359375 450.496094 511.230469 451.046875 509.75 451.066406 C 509.71875 451.066406 509.683594 451.066406 509.65625 451.066406 C 495.730469 451.070312 462.21875 409.417969 461.882812 408.992188 C 461.617188 408.660156 461.195312 408.496094 460.769531 408.570312 C 460.484375 408.609375 453.5 409.550781 450.945312 399.511719 C 450.808594 398.976562 450.316406 398.605469 449.761719 398.625 C 445.28125 398.773438 439.265625 398.1875 437.207031 396.753906 L 455.25 393.550781 C 455.640625 393.484375 456.027344 393.453125 456.417969 393.453125 Z M 509.671875 453.421875 C 509.707031 453.421875 509.742188 453.421875 509.78125 453.421875 C 512.007812 453.390625 513.789062 452.515625 515.078125 450.816406 C 525.105469 437.5625 518.316406 431.890625 511.753906 426.40625 C 511.203125 425.945312 510.648438 425.484375 510.101562 425.011719 C 503.09375 419.003906 470.9375 400.820312 468.140625 399.242188 L 462.859375 393.816406 C 460.777344 391.675781 457.777344 390.710938 454.839844 391.234375 L 435.109375 394.730469 C 434.496094 394.839844 434.074219 395.40625 434.144531 396.023438 C 434.683594 400.753906 445.113281 401.054688 448.914062 401.003906 C 451.671875 410.324219 458.246094 410.996094 460.429688 410.945312 C 464.429688 415.890625 495.289062 453.417969 509.671875 453.421875 " fill-opacity="1" fill-rule="nonzero"/><path fill="#ffffff" d="M 426.121094 683.628906 L 437.644531 718.007812 C 437.644531 718.007812 425.09375 716.9375 423.890625 717.171875 C 422.691406 717.40625 408.011719 685.816406 408.011719 685.816406 L 426.121094 683.628906 " fill-opacity="1" fill-rule="nonzero"/><path fill="#000000" d="M 423.730469 716.007812 C 423.707031 716.007812 423.6875 716.011719 423.667969 716.015625 C 423.6875 716.011719 423.707031 716.007812 423.730469 716.007812 Z M 425.308594 684.914062 L 435.960938 716.683594 C 432.445312 716.398438 426.453125 715.945312 424.308594 715.972656 C 422.472656 713.492188 414.804688 697.585938 409.765625 686.792969 Z M 437.644531 719.191406 C 438.003906 719.191406 438.34375 719.023438 438.570312 718.738281 C 438.816406 718.425781 438.886719 718.011719 438.761719 717.636719 L 427.238281 683.253906 C 427.058594 682.722656 426.535156 682.390625 425.980469 682.457031 L 407.871094 684.648438 C 407.496094 684.695312 407.164062 684.914062 406.980469 685.246094 C 406.800781 685.574219 406.785156 685.976562 406.941406 686.316406 C 406.980469 686.394531 410.660156 694.3125 414.441406 702.097656 C 422.476562 718.652344 422.957031 718.558594 424.117188 718.328125 C 424.925781 718.21875 431.585938 718.675781 437.542969 719.183594 C 437.578125 719.1875 437.609375 719.191406 437.644531 719.191406 " fill-opacity="1" fill-rule="nonzero"/><path fill="#5479f7" d="M 435.003906 710.457031 C 435.003906 710.457031 417.675781 703.351562 414.46875 712.265625 C 410.394531 723.605469 404.019531 740.910156 404.019531 740.910156 C 402.941406 743.917969 405.015625 747.132812 408.207031 747.386719 C 414.539062 747.898438 423.984375 748.308594 428.386719 746.765625 C 435.335938 744.328125 446.859375 722.34375 446.859375 722.34375 L 443.308594 703.632812 C 443.308594 703.632812 437.023438 702.746094 435.003906 710.457031 " fill-opacity="1" fill-rule="nonzero"/><path fill="#000000" d="M 445.625 722.15625 C 442.308594 728.410156 433.230469 743.820312 427.996094 745.65625 C 424.789062 746.78125 417.796875 746.980469 408.300781 746.214844 C 407.148438 746.121094 406.125 745.511719 405.5 744.542969 C 404.878906 743.570312 404.742188 742.394531 405.128906 741.308594 C 405.191406 741.144531 411.546875 723.878906 415.578125 712.664062 C 416.074219 711.289062 416.980469 710.324219 418.359375 709.710938 C 423.921875 707.238281 434.453125 711.5 434.558594 711.542969 C 434.875 711.671875 435.230469 711.660156 435.53125 711.507812 C 435.832031 711.355469 436.058594 711.082031 436.144531 710.75 C 437.476562 705.660156 440.777344 704.863281 442.328125 704.777344 Z M 418.40625 749.027344 C 422.507812 749.027344 426.335938 748.734375 428.777344 747.878906 C 435.953125 745.359375 446.703125 725.179688 447.90625 722.886719 C 448.027344 722.652344 448.070312 722.382812 448.019531 722.121094 L 444.464844 703.410156 C 444.371094 702.914062 443.972656 702.535156 443.472656 702.464844 C 443.40625 702.453125 436.847656 701.621094 434.246094 708.90625 C 431.125 707.789062 422.707031 705.199219 417.402344 707.554688 C 415.433594 708.429688 414.074219 709.882812 413.363281 711.867188 C 409.332031 723.074219 402.980469 740.328125 402.917969 740.5 C 402.273438 742.292969 402.492188 744.230469 403.519531 745.820312 C 404.546875 747.410156 406.222656 748.410156 408.109375 748.5625 C 411.289062 748.820312 414.941406 749.027344 418.40625 749.027344 " fill-opacity="1" fill-rule="nonzero"/><path fill="#000000" d="M 408.460938 741.078125 L 426.261719 741.078125 C 426.910156 741.078125 427.4375 740.550781 427.4375 739.898438 C 427.4375 739.25 426.910156 738.722656 426.261719 738.722656 L 408.460938 738.722656 C 407.808594 738.722656 407.28125 739.25 407.28125 739.898438 C 407.28125 740.550781 407.808594 741.078125 408.460938 741.078125 " fill-opacity="1" fill-rule="nonzero"/><path fill="#ffffff" d="M 458.796875 692.074219 L 454.878906 726.660156 L 439.128906 722.34375 L 440.339844 691.179688 L 458.796875 692.074219 " fill-opacity="1" fill-rule="nonzero"/><path fill="#000000" d="M 457.484375 693.191406 L 453.863281 725.160156 L 440.339844 721.453125 L 441.472656 692.414062 Z M 454.878906 727.839844 C 455.113281 727.839844 455.34375 727.769531 455.539062 727.636719 C 455.824219 727.445312 456.011719 727.132812 456.050781 726.792969 L 459.964844 692.207031 C 460 691.882812 459.902344 691.558594 459.691406 691.3125 C 459.480469 691.066406 459.175781 690.914062 458.851562 690.898438 L 440.398438 690 C 440.082031 689.980469 439.773438 690.097656 439.542969 690.3125 C 439.3125 690.519531 439.175781 690.820312 439.164062 691.132812 L 437.949219 722.296875 C 437.929688 722.84375 438.289062 723.332031 438.816406 723.476562 L 454.570312 727.796875 C 454.667969 727.824219 454.773438 727.839844 454.878906 727.839844 " fill-opacity="1" fill-rule="nonzero"/><path fill="#5479f7" d="M 456.367188 752.140625 L 431.445312 752.140625 C 428.070312 752.140625 425.480469 749.152344 425.976562 745.816406 C 426.808594 740.1875 429.519531 730.851562 437.644531 718.007812 C 438.53125 716.605469 440.082031 715.757812 441.742188 715.757812 L 449.316406 715.757812 C 450.625 715.757812 451.722656 716.742188 451.859375 718.042969 L 452.429688 723.511719 L 455.726562 719.152344 C 455.726562 719.152344 461.621094 731.558594 461.894531 746.515625 C 461.953125 749.605469 459.453125 752.140625 456.367188 752.140625 " fill-opacity="1" fill-rule="nonzero"/><path fill="#000000" d="M 455.445312 721.484375 C 457.03125 725.429688 460.511719 735.308594 460.71875 746.539062 C 460.738281 747.710938 460.296875 748.820312 459.472656 749.660156 C 458.648438 750.5 457.542969 750.964844 456.367188 750.964844 L 431.445312 750.964844 C 430.175781 750.964844 428.972656 750.414062 428.148438 749.457031 C 427.324219 748.5 426.957031 747.234375 427.140625 745.988281 C 427.949219 740.527344 430.601562 731.347656 438.640625 718.640625 C 439.308594 717.589844 440.496094 716.933594 441.742188 716.933594 L 449.316406 716.933594 C 450.027344 716.933594 450.613281 717.464844 450.683594 718.164062 L 451.257812 723.632812 C 451.304688 724.113281 451.648438 724.515625 452.113281 724.648438 C 452.578125 724.777344 453.078125 724.609375 453.371094 724.222656 Z M 431.445312 753.320312 L 456.367188 753.320312 C 458.179688 753.320312 459.882812 752.605469 461.152344 751.308594 C 462.425781 750.015625 463.105469 748.308594 463.070312 746.492188 C 462.796875 731.457031 457.039062 719.164062 456.792969 718.648438 C 456.617188 718.277344 456.257812 718.023438 455.851562 717.980469 C 455.441406 717.9375 455.039062 718.117188 454.789062 718.441406 L 453.292969 720.421875 L 453.027344 717.917969 C 452.828125 716.015625 451.234375 714.578125 449.316406 714.578125 L 441.742188 714.578125 C 439.664062 714.578125 437.757812 715.625 436.648438 717.378906 C 428.386719 730.433594 425.652344 739.957031 424.808594 745.644531 C 424.523438 747.570312 425.089844 749.519531 426.363281 750.992188 C 427.636719 752.472656 429.488281 753.320312 431.445312 753.320312 " fill-opacity="1" fill-rule="nonzero"/><path fill="#000000" d="M 428.386719 747.363281 L 458.21875 747.363281 C 458.871094 747.363281 459.398438 746.835938 459.398438 746.1875 C 459.398438 745.535156 458.871094 745.003906 458.21875 745.003906 L 428.386719 745.003906 C 427.734375 745.003906 427.210938 745.535156 427.210938 746.1875 C 427.210938 746.835938 427.734375 747.363281 428.386719 747.363281 " fill-opacity="1" fill-rule="nonzero"/><path fill="#000000" d="M 399.640625 484.371094 C 400.296875 482.777344 401.617188 481.554688 403.257812 481.042969 C 412.375 478.183594 444.144531 470.648438 476.847656 491.621094 C 478.390625 492.613281 479.378906 494.273438 479.511719 496.101562 C 480.695312 512.71875 485.101562 599.605469 457.617188 702.476562 L 439.105469 701.160156 L 435.328125 525.265625 C 435.328125 525.265625 407.902344 589.75 430.203125 692.375 L 410.949219 695.929688 C 410.949219 695.929688 382.765625 658.875 377.71875 602.25 C 373.257812 552.160156 394.644531 496.539062 399.640625 484.371094 " fill-opacity="1" fill-rule="nonzero"/><path fill="#ffffff" d="M 452.898438 621.179688 C 452.917969 621.179688 452.933594 621.179688 452.949219 621.175781 C 470.453125 620.421875 472.429688 596.703125 472.445312 596.460938 C 472.496094 595.8125 472.007812 595.246094 471.363281 595.195312 C 470.699219 595.148438 470.144531 595.632812 470.097656 596.285156 C 470.082031 596.503906 468.257812 618.160156 452.851562 618.824219 C 452.199219 618.851562 451.695312 619.402344 451.722656 620.050781 C 451.75 620.683594 452.269531 621.179688 452.898438 621.179688 " fill-opacity="1" fill-rule="nonzero"/><path fill="#ffffff" d="M 433.71875 542.570312 C 434.355469 542.570312 434.875 542.066406 434.894531 541.429688 L 435.546875 519.421875 C 435.558594 519.027344 435.371094 518.65625 435.046875 518.425781 L 423.507812 510.3125 C 422.972656 509.933594 422.238281 510.066406 421.863281 510.597656 C 421.488281 511.128906 421.617188 511.863281 422.152344 512.242188 L 433.171875 519.988281 L 432.539062 541.359375 C 432.519531 542.007812 433.03125 542.546875 433.679688 542.570312 C 433.695312 542.570312 433.707031 542.570312 433.71875 542.570312 " fill-opacity="1" fill-rule="nonzero"/><path fill="#ffffff" d="M 461.8125 364.109375 C 458.410156 361.855469 456.425781 357.996094 456.519531 353.917969 L 456.902344 336.988281 C 457.019531 336.878906 457.132812 336.769531 457.25 336.667969 C 457.25 336.667969 464.03125 337.117188 465.019531 333.664062 C 466.007812 330.210938 461.210938 329.546875 461.210938 329.546875 C 461.210938 329.546875 465.738281 320.011719 454.023438 320.128906 C 450.875 320.15625 449.753906 314.9375 444.585938 313.769531 C 444.585938 313.769531 442.035156 313.550781 439.445312 320.25 L 433.777344 328.636719 L 436.609375 330.191406 C 435.910156 333.382812 435.609375 336.902344 436.039062 340.628906 C 436.164062 341.703125 436.902344 342.605469 437.933594 342.9375 C 438.78125 343.214844 439.929688 343.507812 441.285156 343.664062 L 440.371094 355 C 439.972656 359.960938 437.367188 364.480469 433.292969 367.335938 C 429.359375 370.097656 425.726562 372.046875 425.726562 372.046875 C 425.726562 372.046875 446.621094 374.90625 470.640625 369.421875 C 470.640625 369.421875 466 366.882812 461.8125 364.109375 " fill-opacity="1" fill-rule="nonzero"/><path fill="#000000" d="M 444.488281 314.941406 Z M 467.371094 368.917969 C 450.808594 372.261719 436.046875 371.734375 429.488281 371.230469 C 430.777344 370.445312 432.34375 369.441406 433.972656 368.300781 C 438.355469 365.222656 441.117188 360.40625 441.542969 355.09375 L 442.457031 343.761719 C 442.507812 343.128906 442.050781 342.570312 441.417969 342.492188 C 440.34375 342.371094 439.296875 342.140625 438.296875 341.820312 C 437.707031 341.625 437.28125 341.109375 437.210938 340.496094 C 436.832031 337.222656 437.019531 333.839844 437.757812 330.445312 C 437.871094 329.933594 437.632812 329.410156 437.175781 329.15625 L 435.476562 328.226562 L 440.421875 320.910156 C 440.46875 320.835938 440.511719 320.757812 440.542969 320.675781 C 442.429688 315.800781 444.136719 315.066406 444.511719 314.964844 C 446.785156 315.535156 448.132812 317.023438 449.4375 318.464844 C 450.707031 319.859375 452.015625 321.304688 453.996094 321.304688 C 454.070312 321.304688 454.152344 321.300781 454.226562 321.300781 C 457.355469 321.300781 459.398438 322.027344 460.3125 323.453125 C 461.699219 325.628906 460.160156 329.007812 460.144531 329.042969 C 459.984375 329.378906 459.996094 329.773438 460.171875 330.105469 C 460.351562 330.4375 460.675781 330.660156 461.046875 330.714844 C 461.574219 330.789062 463.207031 331.203125 463.773438 332.078125 C 463.914062 332.292969 464.078125 332.660156 463.886719 333.339844 C 463.335938 335.257812 459.226562 335.617188 457.328125 335.488281 C 457.003906 335.464844 456.675781 335.585938 456.4375 335.808594 L 456.105469 336.121094 C 455.871094 336.335938 455.734375 336.640625 455.726562 336.957031 L 455.339844 353.890625 C 455.238281 358.421875 457.410156 362.609375 461.164062 365.089844 C 463.335938 366.53125 465.648438 367.917969 467.371094 368.917969 Z M 439.667969 373.953125 C 447.949219 373.953125 459.085938 373.265625 470.902344 370.570312 C 471.378906 370.464844 471.742188 370.066406 471.808594 369.582031 C 471.875 369.097656 471.636719 368.621094 471.203125 368.386719 C 471.160156 368.363281 466.558594 365.839844 462.464844 363.125 C 459.394531 361.09375 457.613281 357.660156 457.695312 353.945312 L 458.0625 337.867188 C 460.179688 337.890625 465.148438 337.507812 466.152344 333.988281 C 466.488281 332.8125 466.347656 331.707031 465.746094 330.785156 C 465.015625 329.664062 463.753906 329.046875 462.769531 328.71875 C 463.253906 327.128906 463.714844 324.410156 462.296875 322.1875 C 460.898438 320 458.09375 318.910156 454.011719 318.945312 C 453.105469 318.953125 452.351562 318.167969 451.183594 316.882812 C 449.746094 315.296875 447.957031 313.324219 444.847656 312.621094 C 444.796875 312.609375 444.742188 312.601562 444.691406 312.59375 C 444.117188 312.542969 441.148438 312.664062 438.394531 319.699219 L 432.796875 327.980469 C 432.613281 328.253906 432.554688 328.59375 432.632812 328.914062 C 432.710938 329.238281 432.917969 329.511719 433.210938 329.671875 L 435.28125 330.808594 C 434.632812 334.167969 434.492188 337.511719 434.871094 340.765625 C 435.042969 342.296875 436.105469 343.585938 437.570312 344.058594 C 438.363281 344.316406 439.183594 344.523438 440.019531 344.671875 L 439.195312 354.90625 C 438.820312 359.519531 436.425781 363.699219 432.617188 366.371094 C 428.789062 369.054688 425.207031 370.988281 425.171875 371.011719 C 424.71875 371.25 424.476562 371.753906 424.566406 372.253906 C 424.660156 372.757812 425.0625 373.144531 425.570312 373.214844 C 425.675781 373.230469 431.164062 373.953125 439.667969 373.953125 " fill-opacity="1" fill-rule="nonzero"/><path fill="#ffffff" d="M 441.285156 343.664062 C 441.285156 343.664062 448.71875 343.925781 451.671875 339.882812 L 441.285156 343.664062 " fill-opacity="1" fill-rule="nonzero"/><path fill="#000000" d="M 441.585938 344.851562 C 443.171875 344.851562 449.6875 344.59375 452.625 340.578125 C 453.007812 340.050781 452.890625 339.3125 452.367188 338.929688 C 451.839844 338.546875 451.101562 338.664062 450.71875 339.1875 C 448.597656 342.089844 443.222656 342.558594 441.324219 342.488281 C 440.652344 342.46875 440.128906 342.976562 440.109375 343.621094 C 440.082031 344.273438 440.589844 344.820312 441.242188 344.84375 C 441.277344 344.84375 441.394531 344.851562 441.585938 344.851562 " fill-opacity="1" fill-rule="nonzero"/><path fill="#000000" d="M 372.117188 732.0625 C 372.703125 732.0625 373.214844 731.625 373.285156 731.027344 C 373.363281 730.382812 372.90625 729.792969 372.257812 729.714844 C 347.433594 726.671875 323.152344 719.917969 300.085938 709.640625 C 288.546875 704.5 277.332031 698.472656 266.761719 691.726562 C 266.214844 691.378906 265.484375 691.539062 265.136719 692.085938 C 264.78125 692.636719 264.945312 693.363281 265.496094 693.714844 C 276.164062 700.519531 287.480469 706.605469 299.125 711.792969 C 322.410156 722.167969 346.914062 728.984375 371.972656 732.054688 C 372.023438 732.058594 372.066406 732.0625 372.117188 732.0625 " fill-opacity="1" fill-rule="nonzero"/><path fill="#000000" d="M 383.910156 745.265625 C 384.53125 745.265625 385.054688 744.777344 385.082031 744.148438 C 385.113281 743.496094 384.609375 742.945312 383.960938 742.914062 C 350.988281 741.320312 318.898438 733.660156 288.59375 720.160156 C 274.761719 713.996094 261.410156 706.632812 248.910156 698.285156 C 248.371094 697.921875 247.644531 698.066406 247.277344 698.609375 C 246.914062 699.148438 247.0625 699.878906 247.601562 700.242188 C 260.210938 708.667969 273.679688 716.09375 287.640625 722.3125 C 318.210938 735.933594 350.582031 743.660156 383.847656 745.265625 C 383.867188 745.265625 383.886719 745.265625 383.910156 745.265625 " fill-opacity="1" fill-rule="nonzero"/><path fill="#000000" d="M 101.234375 310.871094 C 101.886719 310.871094 102.414062 310.34375 102.414062 309.691406 L 102.414062 303.601562 C 102.414062 302.945312 101.886719 302.421875 101.234375 302.421875 C 100.582031 302.421875 100.058594 302.945312 100.058594 303.601562 L 100.058594 309.691406 C 100.058594 310.34375 100.582031 310.871094 101.234375 310.871094 " fill-opacity="1" fill-rule="nonzero"/><path fill="#000000" d="M 101.234375 325.0625 C 101.886719 325.0625 102.414062 324.535156 102.414062 323.882812 L 102.414062 317.792969 C 102.414062 317.144531 101.886719 316.613281 101.234375 316.613281 C 100.582031 316.613281 100.058594 317.144531 100.058594 317.792969 L 100.058594 323.882812 C 100.058594 324.535156 100.582031 325.0625 101.234375 325.0625 " fill-opacity="1" fill-rule="nonzero"/><path fill="#000000" d="M 105.289062 314.917969 L 111.375 314.917969 C 112.027344 314.917969 112.554688 314.390625 112.554688 313.742188 C 112.554688 313.089844 112.027344 312.5625 111.375 312.5625 L 105.289062 312.5625 C 104.632812 312.5625 104.105469 313.089844 104.105469 313.742188 C 104.105469 314.390625 104.632812 314.917969 105.289062 314.917969 " fill-opacity="1" fill-rule="nonzero"/><path fill="#000000" d="M 91.089844 314.917969 L 97.1875 314.917969 C 97.835938 314.917969 98.367188 314.394531 98.367188 313.742188 C 98.367188 313.09375 97.835938 312.5625 97.1875 312.5625 L 91.089844 312.5625 C 90.4375 312.5625 89.914062 313.09375 89.914062 313.742188 C 89.914062 314.394531 90.4375 314.917969 91.089844 314.917969 " fill-opacity="1" fill-rule="nonzero"/><path fill="#000000" d="M 649.269531 298.5625 C 649.46875 298.5625 649.667969 298.507812 649.851562 298.40625 C 650.417969 298.082031 650.613281 297.363281 650.292969 296.796875 C 629.003906 259.40625 592.878906 226.804688 566.328125 206.039062 C 537.582031 183.554688 513.535156 169.710938 513.292969 169.570312 C 512.730469 169.246094 512.007812 169.441406 511.683594 170.007812 C 511.363281 170.570312 511.558594 171.289062 512.121094 171.613281 C 513.074219 172.160156 607.847656 227.015625 648.242188 297.960938 C 648.460938 298.34375 648.859375 298.5625 649.269531 298.5625 " fill-opacity="1" fill-rule="nonzero"/><path fill="#000000" d="M 665.339844 299.460938 C 665.507812 299.460938 665.675781 299.425781 665.839844 299.347656 C 666.429688 299.074219 666.683594 298.371094 666.40625 297.777344 C 639.183594 239.863281 559.828125 183.222656 559.03125 182.65625 C 558.496094 182.28125 557.761719 182.40625 557.386719 182.933594 C 557.011719 183.46875 557.136719 184.203125 557.667969 184.578125 C 558.460938 185.140625 637.316406 241.433594 664.273438 298.785156 C 664.472656 299.210938 664.898438 299.460938 665.339844 299.460938 " fill-opacity="1" fill-rule="nonzero"/><path fill="#000000" d="M 671.738281 304.328125 C 672.097656 304.328125 672.460938 304.394531 672.8125 304.535156 C 673.527344 304.820312 674.089844 305.371094 674.394531 306.082031 C 674.695312 306.792969 674.707031 307.578125 674.417969 308.292969 C 674.132812 309.011719 673.582031 309.574219 672.871094 309.875 C 672.164062 310.179688 671.378906 310.191406 670.660156 309.902344 C 669.941406 309.613281 669.378906 309.066406 669.078125 308.355469 C 668.773438 307.644531 668.765625 306.859375 669.050781 306.144531 C 669.503906 305.015625 670.589844 304.328125 671.738281 304.328125 Z M 671.738281 312.472656 C 672.433594 312.472656 673.136719 312.328125 673.800781 312.042969 C 675.085938 311.492188 676.085938 310.472656 676.605469 309.171875 C 677.128906 307.871094 677.109375 306.445312 676.558594 305.15625 C 676.007812 303.867188 674.988281 302.871094 673.6875 302.347656 C 671 301.269531 667.941406 302.578125 666.863281 305.265625 C 666.34375 306.570312 666.359375 307.996094 666.910156 309.28125 C 667.460938 310.570312 668.480469 311.570312 669.78125 312.089844 C 670.414062 312.339844 671.074219 312.472656 671.738281 312.472656 " fill-opacity="1" fill-rule="nonzero"/><path fill="#000000" d="M 505.6875 158.234375 L 496.148438 169.121094 L 488.804688 155.097656 Z M 495.902344 172.363281 C 496.238281 172.363281 496.5625 172.226562 496.789062 171.964844 L 508.824219 158.226562 C 509.101562 157.910156 509.1875 157.464844 509.050781 157.066406 C 508.910156 156.667969 508.570312 156.371094 508.152344 156.296875 L 486.847656 152.339844 C 486.40625 152.257812 485.953125 152.433594 485.6875 152.800781 C 485.417969 153.160156 485.382812 153.644531 485.589844 154.042969 L 494.859375 171.734375 C 495.039062 172.078125 495.375 172.3125 495.761719 172.359375 C 495.808594 172.363281 495.855469 172.363281 495.902344 172.363281 " fill-opacity="1" fill-rule="nonzero"/><path fill="#ffffff" d="M 364.695312 256.25 C 364.976562 256.25 365.261719 256.148438 365.484375 255.945312 C 365.972656 255.511719 366.007812 254.765625 365.574219 254.28125 L 313.960938 196.953125 C 313.523438 196.464844 312.78125 196.429688 312.296875 196.863281 C 311.8125 197.296875 311.773438 198.046875 312.207031 198.527344 L 363.820312 255.859375 C 364.058594 256.117188 364.375 256.25 364.695312 256.25 " fill-opacity="1" fill-rule="nonzero"/><path fill="#ffffff" d="M 346.628906 213.824219 C 346.910156 213.824219 347.191406 213.726562 347.414062 213.519531 C 347.898438 213.085938 347.9375 212.339844 347.503906 211.859375 L 284.019531 141.339844 C 283.578125 140.851562 282.839844 140.816406 282.355469 141.25 C 281.871094 141.683594 281.828125 142.429688 282.265625 142.914062 L 345.746094 213.433594 C 345.984375 213.695312 346.304688 213.824219 346.628906 213.824219 " fill-opacity="1" fill-rule="nonzero"/><path fill="#000000" d="M 337.199219 299.457031 C 337.484375 299.457031 337.761719 299.363281 337.988281 299.15625 C 338.472656 298.722656 338.511719 297.976562 338.078125 297.492188 L 286.464844 240.160156 C 286.027344 239.679688 285.285156 239.640625 284.796875 240.074219 C 284.316406 240.507812 284.277344 241.253906 284.714844 241.734375 L 336.328125 299.070312 C 336.558594 299.328125 336.878906 299.457031 337.199219 299.457031 " fill-opacity="1" fill-rule="nonzero"/><path fill="#000000" d="M 298.496094 242.128906 C 298.78125 242.128906 299.0625 242.027344 299.289062 241.820312 C 299.773438 241.382812 299.804688 240.636719 299.363281 240.15625 L 272.597656 210.894531 C 272.152344 210.414062 271.40625 210.382812 270.929688 210.820312 C 270.449219 211.257812 270.414062 212.003906 270.855469 212.488281 L 297.628906 241.746094 C 297.859375 242.003906 298.175781 242.128906 298.496094 242.128906 " fill-opacity="1" fill-rule="nonzero"/><path fill="#000000" d="M 493.011719 286.914062 C 493.664062 286.914062 494.191406 286.386719 494.191406 285.734375 L 494.191406 279.644531 C 494.191406 278.992188 493.664062 278.464844 493.011719 278.464844 C 492.363281 278.464844 491.835938 278.992188 491.835938 279.644531 L 491.835938 285.734375 C 491.835938 286.386719 492.363281 286.914062 493.011719 286.914062 " fill-opacity="1" fill-rule="nonzero"/><path fill="#000000" d="M 493.011719 301.105469 C 493.664062 301.105469 494.191406 300.578125 494.191406 299.925781 L 494.191406 293.835938 C 494.191406 293.183594 493.664062 292.65625 493.011719 292.65625 C 492.363281 292.65625 491.835938 293.183594 491.835938 293.835938 L 491.835938 299.925781 C 491.835938 300.578125 492.363281 301.105469 493.011719 301.105469 " fill-opacity="1" fill-rule="nonzero"/><path fill="#000000" d="M 497.0625 290.964844 L 503.15625 290.964844 C 503.808594 290.964844 504.332031 290.433594 504.332031 289.785156 C 504.332031 289.132812 503.808594 288.605469 503.15625 288.605469 L 497.0625 288.605469 C 496.410156 288.605469 495.886719 289.132812 495.886719 289.785156 C 495.886719 290.433594 496.410156 290.964844 497.0625 290.964844 " fill-opacity="1" fill-rule="nonzero"/><path fill="#000000" d="M 482.871094 290.964844 L 488.960938 290.964844 C 489.613281 290.964844 490.140625 290.433594 490.140625 289.785156 C 490.140625 289.132812 489.613281 288.605469 488.960938 288.605469 L 482.871094 288.605469 C 482.222656 288.605469 481.691406 289.132812 481.691406 289.785156 C 481.691406 290.433594 482.222656 290.964844 482.871094 290.964844 " fill-opacity="1" fill-rule="nonzero"/></svg>