<svg xmlns="http://www.w3.org/2000/svg" xmlns:xlink="http://www.w3.org/1999/xlink" width="1080" zoomAndPan="magnify" viewBox="0 0 810 809.999993" height="1080" preserveAspectRatio="xMidYMid meet" version="1.0"><defs><clipPath id="fbec5e4c6f"><path d="M 24 17 L 804.1875 17 L 804.1875 798 L 24 798 Z M 24 17 " clip-rule="nonzero"/></clipPath><clipPath id="569277d451"><path d="M 459 65 L 804.1875 65 L 804.1875 578 L 459 578 Z M 459 65 " clip-rule="nonzero"/></clipPath><clipPath id="36a5912e5b"><path d="M 24 766 L 804.1875 766 L 804.1875 798 L 24 798 Z M 24 766 " clip-rule="nonzero"/></clipPath><clipPath id="41e835a339"><path d="M 0 541 L 1 541 L 1 590 L 0 590 Z M 0 541 " clip-rule="nonzero"/></clipPath><clipPath id="02480963ff"><path d="M -23.816406 593.21875 L -33.886719 545.332031 L -8.714844 540.039062 L 1.355469 587.925781 Z M -23.816406 593.21875 " clip-rule="nonzero"/></clipPath><clipPath id="7e1e1773a3"><path d="M -0.109375 580.953125 C 0.0820312 581.859375 0.0820312 582.800781 -0.105469 583.785156 C -0.867188 587.644531 -4.585938 590.160156 -8.445312 589.398438 C -18.699219 587.421875 -26.691406 579.539062 -28.839844 569.328125 C -30.988281 559.117188 -26.847656 548.683594 -18.265625 542.707031 C -15.039062 540.457031 -10.582031 541.25 -8.367188 544.484375 C -6.117188 547.707031 -6.910156 552.164062 -10.144531 554.378906 C -13.984375 557.074219 -15.863281 561.796875 -14.898438 566.394531 C -13.929688 570.992188 -10.316406 574.523438 -5.714844 575.445312 C -2.847656 575.980469 -0.679688 578.242188 -0.109375 580.953125 Z M -0.109375 580.953125 " clip-rule="nonzero"/></clipPath></defs><g clip-path="url(#fbec5e4c6f)"><path fill="#caddff" d="M 605.976562 726.40625 C 801.558594 604.082031 804.1875 384.222656 804.121094 374.140625 C 803.425781 263.980469 752.898438 104.832031 616.339844 43.867188 C 551.621094 14.972656 449.3125 0.015625 376.375 48.671875 C 308.269531 94.105469 337.789062 146.96875 262.644531 237.714844 C 176.109375 342.21875 106.503906 328.101562 48.480469 419.375 C 10.15625 479.65625 27.0625 552.625 31.910156 573.550781 C 67.460938 726.980469 254.050781 779.722656 274.980469 785.292969 C 441.109375 829.519531 577.855469 743.992188 605.976562 726.40625 " fill-opacity="1" fill-rule="nonzero"/></g><path fill="#ffffff" d="M 773.179688 576.546875 L 194.738281 576.546875 C 178.480469 576.546875 165.296875 563.347656 165.296875 547.078125 L 165.296875 96.558594 C 165.296875 80.289062 178.480469 67.09375 194.738281 67.09375 L 773.179688 67.09375 C 789.441406 67.09375 802.625 80.289062 802.625 96.558594 L 802.625 547.078125 C 802.625 563.347656 789.441406 576.546875 773.179688 576.546875 " fill-opacity="1" fill-rule="nonzero"/><path fill="#99b9ff" d="M 802.769531 129.863281 L 165.445312 129.863281 L 165.445312 96.636719 C 165.445312 80.316406 178.660156 67.089844 194.960938 67.089844 L 773.25 67.089844 C 789.558594 67.089844 802.769531 80.316406 802.769531 96.636719 L 802.769531 129.863281 " fill-opacity="1" fill-rule="nonzero"/><path fill="#caddff" d="M 730.132812 529.300781 L 237.785156 529.300781 C 224.316406 529.300781 213.398438 518.375 213.398438 504.894531 L 213.398438 198.871094 C 213.398438 185.394531 224.316406 174.464844 237.785156 174.464844 L 730.132812 174.464844 C 743.609375 174.464844 754.527344 185.394531 754.527344 198.871094 L 754.527344 504.894531 C 754.527344 518.375 743.609375 529.300781 730.132812 529.300781 " fill-opacity="1" fill-rule="nonzero"/><g clip-path="url(#569277d451)"><path fill="#000000" d="M 773.289062 577.953125 L 519.246094 577.953125 C 518.472656 577.953125 517.835938 577.320312 517.835938 576.546875 C 517.835938 575.765625 518.472656 575.132812 519.246094 575.132812 L 773.289062 575.132812 C 788.6875 575.132812 801.214844 562.59375 801.214844 547.179688 L 801.214844 96.457031 C 801.214844 81.042969 788.6875 68.503906 773.289062 68.503906 L 461.261719 68.503906 C 460.484375 68.503906 459.859375 67.875 459.859375 67.09375 C 459.859375 66.3125 460.484375 65.683594 461.261719 65.683594 L 773.289062 65.683594 C 790.238281 65.683594 804.035156 79.484375 804.035156 96.457031 L 804.035156 547.179688 C 804.035156 564.152344 790.238281 577.953125 773.289062 577.953125 " fill-opacity="1" fill-rule="nonzero"/></g><path fill="#ffffff" d="M 710.804688 99.597656 C 710.804688 105.519531 706.011719 110.3125 700.097656 110.3125 C 694.183594 110.3125 689.390625 105.519531 689.390625 99.597656 C 689.390625 93.683594 694.183594 88.886719 700.097656 88.886719 C 706.011719 88.886719 710.804688 93.683594 710.804688 99.597656 " fill-opacity="1" fill-rule="nonzero"/><path fill="#ffffff" d="M 745.8125 99.59375 C 745.8125 105.511719 741.023438 110.3125 735.109375 110.3125 C 729.195312 110.3125 724.398438 105.511719 724.398438 99.59375 C 724.398438 93.679688 729.195312 88.878906 735.109375 88.878906 C 741.023438 88.878906 745.8125 93.679688 745.8125 99.59375 " fill-opacity="1" fill-rule="nonzero"/><path fill="#ffffff" d="M 780.820312 99.59375 C 780.820312 105.511719 776.023438 110.3125 770.113281 110.3125 C 764.195312 110.3125 759.40625 105.511719 759.40625 99.59375 C 759.40625 93.679688 764.195312 88.878906 770.113281 88.878906 C 776.023438 88.878906 780.820312 93.679688 780.820312 99.59375 " fill-opacity="1" fill-rule="nonzero"/><path fill="#ffffff" d="M 420.761719 339.625 L 52.226562 339.625 C 37.777344 339.625 26.058594 327.902344 26.058594 313.4375 L 26.058594 46.726562 C 26.058594 32.261719 37.777344 20.539062 52.226562 20.539062 L 420.761719 20.539062 C 435.210938 20.539062 446.929688 32.261719 446.929688 46.726562 L 446.929688 313.4375 C 446.929688 327.902344 435.210938 339.625 420.761719 339.625 " fill-opacity="1" fill-rule="nonzero"/><path fill="#99b9ff" d="M 409.511719 324.09375 L 62.535156 324.09375 C 51.636719 324.09375 42.800781 315.253906 42.800781 304.339844 L 42.800781 55.820312 C 42.800781 44.914062 51.636719 36.074219 62.535156 36.074219 L 409.511719 36.074219 C 420.414062 36.074219 429.246094 44.914062 429.246094 55.820312 L 429.246094 304.339844 C 429.246094 315.253906 420.414062 324.09375 409.511719 324.09375 " fill-opacity="1" fill-rule="nonzero"/><path fill="#000000" d="M 164.351562 341.035156 L 52.136719 341.035156 C 36.980469 341.035156 24.652344 328.695312 24.652344 313.527344 L 24.652344 46.632812 C 24.652344 31.460938 36.980469 19.125 52.136719 19.125 L 420.851562 19.125 C 436.007812 19.125 448.339844 31.460938 448.339844 46.632812 L 448.339844 230.828125 C 448.339844 231.605469 447.707031 232.238281 446.925781 232.238281 C 446.152344 232.238281 445.515625 231.605469 445.515625 230.828125 L 445.515625 46.632812 C 445.515625 33.023438 434.453125 21.945312 420.851562 21.945312 L 52.136719 21.945312 C 38.535156 21.945312 27.472656 33.023438 27.472656 46.632812 L 27.472656 313.527344 C 27.472656 327.140625 38.535156 338.21875 52.136719 338.21875 L 164.351562 338.21875 C 165.128906 338.21875 165.761719 338.847656 165.761719 339.625 C 165.761719 340.40625 165.128906 341.035156 164.351562 341.035156 " fill-opacity="1" fill-rule="nonzero"/><path fill="#000000" d="M 420.851562 341.035156 L 259.132812 341.035156 C 258.351562 341.035156 257.722656 340.40625 257.722656 339.625 C 257.722656 338.847656 258.351562 338.214844 259.132812 338.214844 L 420.851562 338.214844 C 428.25 338.214844 435.199219 334.929688 439.90625 329.207031 C 440.398438 328.605469 441.292969 328.519531 441.890625 329.011719 C 442.492188 329.507812 442.578125 330.398438 442.082031 331 C 436.835938 337.375 429.097656 341.035156 420.851562 341.035156 " fill-opacity="1" fill-rule="nonzero"/><path fill="#caddff" d="M 371.796875 75.234375 L 313.800781 75.234375 C 311.082031 75.234375 308.871094 73.027344 308.871094 70.304688 C 308.871094 67.578125 311.082031 65.371094 313.800781 65.371094 L 371.796875 65.371094 C 374.519531 65.371094 376.726562 67.578125 376.726562 70.304688 C 376.726562 73.027344 374.519531 75.234375 371.796875 75.234375 " fill-opacity="1" fill-rule="nonzero"/><path fill="#caddff" d="M 395.394531 96.34375 L 313.796875 96.34375 C 311.078125 96.34375 308.871094 94.140625 308.871094 91.417969 C 308.871094 88.691406 311.078125 86.484375 313.796875 86.484375 L 395.394531 86.484375 C 398.113281 86.484375 400.320312 88.691406 400.320312 91.417969 C 400.320312 94.140625 398.113281 96.34375 395.394531 96.34375 " fill-opacity="1" fill-rule="nonzero"/><path fill="#caddff" d="M 334.273438 117.027344 L 313.800781 117.027344 C 311.082031 117.027344 308.871094 114.820312 308.871094 112.097656 C 308.871094 109.378906 311.082031 107.167969 313.800781 107.167969 L 334.273438 107.167969 C 336.996094 107.167969 339.203125 109.378906 339.203125 112.097656 C 339.203125 114.820312 336.996094 117.027344 334.273438 117.027344 " fill-opacity="1" fill-rule="nonzero"/><path fill="#caddff" d="M 393.589844 117.027344 L 363.542969 117.027344 C 360.824219 117.027344 358.617188 114.820312 358.617188 112.097656 C 358.617188 109.378906 360.824219 107.167969 363.542969 107.167969 L 393.589844 107.167969 C 396.3125 107.167969 398.515625 109.378906 398.515625 112.097656 C 398.515625 114.820312 396.3125 117.027344 393.589844 117.027344 " fill-opacity="1" fill-rule="nonzero"/><path fill="#ffffff" d="M 82.105469 86.199219 L 82.105469 99.199219 L 90.597656 99.199219 C 92.933594 99.199219 94.753906 98.640625 96.066406 97.527344 C 97.375 96.410156 98.03125 94.875 98.03125 92.914062 C 98.03125 88.503906 95.753906 86.269531 91.191406 86.199219 Z M 82.105469 79.1875 L 89.441406 79.1875 C 94.441406 79.101562 96.941406 77.105469 96.941406 73.203125 C 96.941406 71.019531 96.308594 69.453125 95.042969 68.488281 C 93.773438 67.53125 91.777344 67.054688 89.042969 67.054688 L 82.105469 67.054688 Z M 72.191406 107.167969 L 72.191406 59.015625 L 89.042969 59.015625 C 94.882812 59.015625 99.308594 60.136719 102.328125 62.371094 C 105.34375 64.609375 106.855469 67.894531 106.855469 72.210938 C 106.855469 74.566406 106.246094 76.644531 105.039062 78.449219 C 103.824219 80.242188 102.140625 81.558594 99.980469 82.394531 C 102.449219 83.011719 104.394531 84.261719 105.8125 86.132812 C 107.234375 88.003906 107.945312 90.300781 107.945312 93.015625 C 107.945312 97.644531 106.46875 101.148438 103.515625 103.53125 C 100.566406 105.910156 96.359375 107.125 90.894531 107.167969 L 72.191406 107.167969 " fill-opacity="1" fill-rule="nonzero"/><path fill="#ffffff" d="M 147.332031 107.171875 L 114.355469 107.171875 L 114.355469 100.617188 L 129.917969 84.019531 C 132.054688 81.683594 133.636719 79.640625 134.660156 77.898438 C 135.683594 76.160156 136.199219 74.503906 136.199219 72.941406 C 136.199219 70.800781 135.65625 69.117188 134.578125 67.894531 C 133.5 66.671875 131.957031 66.058594 129.953125 66.058594 C 127.792969 66.058594 126.089844 66.804688 124.847656 68.292969 C 123.601562 69.78125 122.980469 71.738281 122.980469 74.164062 L 113.398438 74.164062 C 113.398438 71.230469 114.097656 68.554688 115.496094 66.128906 C 116.894531 63.703125 118.871094 61.796875 121.425781 60.421875 C 123.980469 59.042969 126.878906 58.355469 130.117188 58.355469 C 135.074219 58.355469 138.921875 59.546875 141.664062 61.929688 C 144.40625 64.308594 145.78125 67.671875 145.78125 72.015625 C 145.78125 74.394531 145.160156 76.820312 143.929688 79.289062 C 142.695312 81.757812 140.582031 84.640625 137.585938 87.917969 L 126.648438 99.460938 L 147.332031 99.460938 L 147.332031 107.171875 " fill-opacity="1" fill-rule="nonzero"/><path fill="#ffffff" d="M 164.117188 86.199219 L 164.117188 99.199219 L 172.609375 99.199219 C 174.945312 99.199219 176.769531 98.640625 178.078125 97.527344 C 179.390625 96.410156 180.046875 94.875 180.046875 92.914062 C 180.046875 88.503906 177.765625 86.269531 173.207031 86.199219 Z M 164.117188 79.1875 L 171.453125 79.1875 C 176.453125 79.101562 178.957031 77.105469 178.957031 73.203125 C 178.957031 71.019531 178.324219 69.453125 177.054688 68.488281 C 175.789062 67.53125 173.789062 67.054688 171.058594 67.054688 L 164.117188 67.054688 Z M 154.207031 107.167969 L 154.207031 59.015625 L 171.058594 59.015625 C 176.894531 59.015625 181.320312 60.136719 184.339844 62.371094 C 187.359375 64.609375 188.867188 67.894531 188.867188 72.210938 C 188.867188 74.566406 188.261719 76.644531 187.050781 78.449219 C 185.839844 80.242188 184.15625 81.558594 181.996094 82.394531 C 184.460938 83.011719 186.40625 84.261719 187.828125 86.132812 C 189.25 88.003906 189.960938 90.300781 189.960938 93.015625 C 189.960938 97.644531 188.480469 101.148438 185.53125 103.53125 C 182.578125 105.910156 178.371094 107.125 172.910156 107.167969 L 154.207031 107.167969 " fill-opacity="1" fill-rule="nonzero"/><path fill="#ffffff" d="M 190.214844 277.507812 L 72.566406 277.507812 L 72.566406 126.914062 L 190.214844 126.914062 L 190.214844 277.507812 " fill-opacity="1" fill-rule="nonzero"/><path fill="#caddff" d="M 112.179688 254.242188 L 86.550781 254.242188 L 86.550781 169.953125 L 112.179688 169.953125 L 112.179688 254.242188 " fill-opacity="1" fill-rule="nonzero"/><path fill="#caddff" d="M 144.203125 254.242188 L 118.574219 254.242188 L 118.574219 146.691406 L 144.203125 146.691406 L 144.203125 254.242188 " fill-opacity="1" fill-rule="nonzero"/><path fill="#caddff" d="M 176.230469 254.238281 L 150.601562 254.238281 L 150.601562 203.988281 L 176.230469 203.988281 L 176.230469 254.238281 " fill-opacity="1" fill-rule="nonzero"/><path fill="#caddff" d="M 260.144531 157.832031 C 260.144531 171.164062 249.34375 181.972656 236.023438 181.972656 C 222.703125 181.972656 211.90625 171.164062 211.90625 157.832031 C 211.90625 144.503906 222.703125 133.691406 236.023438 133.691406 C 249.34375 133.691406 260.144531 144.503906 260.144531 157.832031 " fill-opacity="1" fill-rule="nonzero"/><path fill="#ffffff" d="M 256.265625 157.832031 C 256.265625 169.023438 247.203125 178.089844 236.023438 178.089844 C 224.84375 178.089844 215.78125 169.023438 215.78125 157.832031 C 215.78125 146.644531 224.84375 137.574219 236.023438 137.574219 C 247.203125 137.574219 256.265625 146.644531 256.265625 157.832031 " fill-opacity="1" fill-rule="nonzero"/><path fill="#5479f7" d="M 234.167969 172.136719 L 234.167969 168.804688 C 231.824219 168.695312 229.546875 168.066406 228.214844 167.296875 L 229.265625 163.195312 C 230.738281 164 232.804688 164.734375 235.078125 164.734375 C 237.074219 164.734375 238.441406 163.964844 238.441406 162.5625 C 238.441406 161.230469 237.324219 160.390625 234.730469 159.511719 C 230.980469 158.25 228.421875 156.496094 228.421875 153.097656 C 228.421875 150.011719 230.597656 147.589844 234.34375 146.855469 L 234.34375 143.527344 L 237.777344 143.527344 L 237.777344 146.613281 C 240.125 146.714844 241.699219 147.207031 242.855469 147.765625 L 241.839844 151.730469 C 240.929688 151.34375 239.316406 150.539062 236.796875 150.539062 C 234.519531 150.539062 233.785156 151.519531 233.785156 152.503906 C 233.785156 153.65625 235.007812 154.394531 237.988281 155.515625 C 242.15625 156.988281 243.835938 158.917969 243.835938 162.074219 C 243.835938 165.191406 241.628906 167.855469 237.601562 168.558594 L 237.601562 172.136719 L 234.167969 172.136719 " fill-opacity="1" fill-rule="nonzero"/><path fill="#caddff" d="M 284.089844 90.5625 C 284.089844 108.527344 269.535156 123.097656 251.582031 123.097656 C 233.628906 123.097656 219.074219 108.527344 219.074219 90.5625 C 219.074219 72.597656 233.628906 58.027344 251.582031 58.027344 C 269.535156 58.027344 284.089844 72.597656 284.089844 90.5625 " fill-opacity="1" fill-rule="nonzero"/><path fill="#ffffff" d="M 278.859375 90.558594 C 278.859375 105.636719 266.648438 117.863281 251.582031 117.863281 C 236.515625 117.863281 224.300781 105.636719 224.300781 90.558594 C 224.300781 75.484375 236.515625 63.257812 251.582031 63.257812 C 266.648438 63.257812 278.859375 75.484375 278.859375 90.558594 " fill-opacity="1" fill-rule="nonzero"/><path fill="#5479f7" d="M 249.082031 109.835938 L 249.082031 105.347656 C 245.917969 105.207031 242.847656 104.355469 241.054688 103.316406 L 242.472656 97.789062 C 244.453125 98.878906 247.238281 99.871094 250.308594 99.871094 C 253 99.871094 254.839844 98.832031 254.839844 96.9375 C 254.839844 95.144531 253.328125 94.007812 249.835938 92.828125 C 244.785156 91.128906 241.335938 88.765625 241.335938 84.183594 C 241.335938 80.027344 244.265625 76.761719 249.316406 75.769531 L 249.316406 71.285156 L 253.941406 71.285156 L 253.941406 75.4375 C 257.105469 75.582031 259.230469 76.246094 260.785156 77.003906 L 259.417969 82.339844 C 258.191406 81.820312 256.019531 80.730469 252.621094 80.730469 C 249.550781 80.730469 248.5625 82.054688 248.5625 83.375 C 248.5625 84.9375 250.210938 85.933594 254.226562 87.441406 C 259.84375 89.425781 262.109375 92.023438 262.109375 96.277344 C 262.109375 100.484375 259.136719 104.074219 253.707031 105.019531 L 253.707031 109.835938 L 249.082031 109.835938 " fill-opacity="1" fill-rule="nonzero"/><path fill="#000000" d="M 732.332031 529.121094 C 731.433594 524.4375 730.578125 520.953125 729.8125 517.65625 C 724.09375 493.261719 717.957031 473.375 713.476562 459.964844 L 701.332031 415.660156 L 551.453125 442.933594 C 551.453125 442.933594 546.601562 475.691406 536.703125 529.121094 L 732.332031 529.121094 " fill-opacity="1" fill-rule="nonzero"/><path fill="#000000" d="M 570.832031 523.527344 C 587.28125 523.527344 597.992188 505.589844 590.628906 490.339844 C 588.941406 486.84375 587.222656 483.316406 585.53125 479.90625 C 572.890625 454.359375 536.703125 459.9375 532.191406 488.261719 C 532.117188 488.757812 531.105469 489.257812 531.042969 489.761719 C 528.703125 507.6875 542.480469 523.527344 559.933594 523.527344 L 570.832031 523.527344 " fill-opacity="1" fill-rule="nonzero"/><path fill="#5479f7" d="M 678.941406 207.09375 C 764.53125 230.640625 776.75 259.71875 776.75 322.683594 C 776.75 377.59375 720.257812 407.832031 720.257812 407.832031 C 720.257812 407.832031 747.382812 498.417969 732.066406 507.191406 C 716.75 515.964844 695.78125 520.921875 672.421875 512.035156 C 625.703125 494.265625 552.800781 474.148438 531.027344 489.75 C 531.027344 489.75 565.628906 343.238281 535.703125 286.515625 C 535.703125 286.515625 462.933594 267.382812 526.191406 224.054688 C 566.03125 196.765625 639.464844 196.234375 678.941406 207.09375 " fill-opacity="1" fill-rule="nonzero"/><path fill="#5479f7" d="M 549.554688 300.910156 C 529.46875 303.242188 461.96875 323.59375 430.140625 318.847656 C 394.210938 313.488281 355.375 248.402344 344.324219 228.589844 C 342.09375 224.597656 341.328125 219.902344 342.203125 215.375 C 343.550781 208.363281 346.757812 198.367188 354.257812 194.097656 C 360.527344 190.53125 372.222656 184.46875 383.253906 196.453125 C 383.253906 196.453125 410.945312 239.773438 444.289062 240.828125 C 476.445312 241.84375 511.71875 198.210938 610.820312 202.34375 L 549.554688 300.910156 " fill-opacity="1" fill-rule="nonzero"/><path fill="#000000" d="M 365.28125 237.667969 C 355.367188 237.667969 348.980469 226.753906 348.714844 226.289062 C 348.324219 225.613281 348.554688 224.753906 349.234375 224.363281 C 349.90625 223.976562 350.765625 224.207031 351.15625 224.878906 C 351.214844 224.980469 357.039062 234.964844 365.441406 234.839844 C 371.890625 234.742188 378.308594 228.8125 384.535156 217.214844 C 384.898438 216.527344 385.75 216.269531 386.441406 216.636719 C 387.125 217.007812 387.386719 217.863281 387.015625 218.550781 C 380.269531 231.125 373.023438 237.550781 365.480469 237.664062 C 365.414062 237.667969 365.347656 237.667969 365.28125 237.667969 " fill-opacity="1" fill-rule="nonzero"/><path fill="#caddff" d="M 642.523438 381.070312 C 641.992188 381.070312 641.480469 380.769531 641.238281 380.25 C 640.917969 379.542969 641.21875 378.707031 641.925781 378.375 C 673.53125 363.746094 688.859375 342.289062 696.140625 326.859375 C 704.050781 310.125 704.488281 296.660156 704.488281 296.523438 C 704.507812 295.746094 705.121094 295.128906 705.933594 295.148438 C 706.710938 295.167969 707.328125 295.820312 707.308594 296.597656 C 707.289062 297.164062 706.875 310.6875 698.753906 327.9375 C 691.269531 343.828125 675.546875 365.917969 643.113281 380.9375 C 642.917969 381.027344 642.714844 381.070312 642.523438 381.070312 " fill-opacity="1" fill-rule="nonzero"/><path fill="#caddff" d="M 656.554688 425.238281 C 655.78125 425.238281 655.15625 424.617188 655.144531 423.84375 C 655.132812 423.0625 655.753906 422.425781 656.535156 422.417969 C 695.308594 421.957031 720.925781 407.53125 721.1875 407.386719 C 721.855469 407 722.71875 407.234375 723.109375 407.902344 C 723.496094 408.582031 723.261719 409.445312 722.585938 409.835938 C 722.328125 409.984375 696.113281 424.765625 656.570312 425.238281 C 656.566406 425.238281 656.5625 425.238281 656.554688 425.238281 " fill-opacity="1" fill-rule="nonzero"/><path fill="#ffffff" d="M 620.5 421.347656 C 620.5 421.347656 628.480469 422.203125 644.265625 418.242188 C 656.199219 415.253906 652.675781 376.492188 638.164062 386.996094 C 626.042969 395.757812 618.957031 396.902344 618.957031 396.902344 L 607.273438 391.074219 C 602.683594 388.78125 597.765625 387.285156 592.710938 386.683594 C 572.570312 384.308594 573.777344 388.96875 573.777344 388.96875 C 572.910156 393.671875 574.601562 394.382812 578.296875 395.941406 L 594.050781 402.5625 C 596.238281 403.488281 596.738281 406.464844 594.972656 408.09375 C 592.238281 410.625 589.082031 412.625 585.652344 413.976562 C 579.445312 416.425781 568.625 420.375 557.464844 422.898438 C 552.214844 424.085938 550.554688 430.589844 555.390625 433 L 590.171875 435.566406 C 598.980469 436.214844 607.679688 433.152344 614.28125 427.070312 L 620.5 421.347656 " fill-opacity="1" fill-rule="nonzero"/><path fill="#000000" d="M 575.144531 388.609375 C 575.144531 388.613281 575.144531 388.613281 575.148438 388.613281 C 575.144531 388.613281 575.144531 388.613281 575.144531 388.609375 Z M 575.148438 388.617188 Z M 575.148438 388.625 Z M 555.792969 431.613281 L 590.269531 434.15625 C 598.640625 434.777344 607.046875 431.8125 613.324219 426.03125 L 619.550781 420.3125 C 619.84375 420.035156 620.246094 419.902344 620.652344 419.945312 C 620.804688 419.960938 628.710938 420.691406 643.925781 416.878906 C 646.757812 416.167969 648.863281 412.625 649.699219 407.160156 C 650.957031 398.863281 648.710938 389.53125 644.882812 387.191406 C 643.203125 386.167969 641.28125 386.476562 638.988281 388.140625 C 626.746094 397 619.480469 398.242188 619.179688 398.292969 C 618.890625 398.335938 618.589844 398.296875 618.328125 398.164062 L 606.644531 392.339844 C 602.140625 390.09375 597.394531 388.660156 592.542969 388.089844 C 577.757812 386.347656 575.433594 388.570312 575.1875 388.878906 C 575.195312 388.992188 575.1875 389.113281 575.160156 389.226562 C 574.503906 392.816406 575.167969 393.097656 578.84375 394.636719 L 594.59375 401.269531 C 596.058594 401.886719 597.097656 403.199219 597.375 404.792969 C 597.660156 406.414062 597.117188 408.035156 595.929688 409.132812 C 593.050781 411.796875 589.769531 413.867188 586.171875 415.292969 C 579.242188 418.023438 568.691406 421.804688 557.777344 424.277344 C 555.398438 424.8125 554.140625 426.628906 553.957031 428.183594 C 553.78125 429.621094 554.449219 430.855469 555.792969 431.613281 Z M 592.457031 437.058594 C 591.660156 437.058594 590.863281 437.03125 590.0625 436.96875 L 555.289062 434.410156 C 555.105469 434.394531 554.929688 434.339844 554.761719 434.261719 C 552.175781 432.976562 550.828125 430.578125 551.15625 427.847656 C 551.519531 424.792969 553.933594 422.25 557.152344 421.527344 C 568.464844 418.964844 579.539062 414.867188 585.132812 412.660156 C 588.40625 411.375 591.394531 409.484375 594.015625 407.0625 C 594.5 406.609375 594.71875 405.949219 594.597656 405.277344 C 594.484375 404.628906 594.082031 404.117188 593.503906 403.871094 L 577.75 397.242188 C 574.0625 395.691406 571.390625 394.566406 572.355469 388.917969 C 572.332031 388.359375 572.511719 387.648438 573.089844 386.988281 C 575.234375 384.523438 581.707031 383.96875 592.875 385.289062 C 598.050781 385.894531 603.105469 387.421875 607.898438 389.808594 L 619.144531 395.417969 C 620.796875 395.019531 627.316406 393.101562 637.335938 385.851562 C 641.414062 382.902344 644.488281 383.648438 646.351562 384.78125 C 651.785156 388.101562 653.757812 399.203125 652.484375 407.585938 C 651.472656 414.230469 648.601562 418.617188 644.605469 419.617188 C 631.105469 423 623.246094 422.921875 621.007812 422.796875 L 615.234375 428.109375 C 608.984375 433.867188 600.792969 437.058594 592.457031 437.058594 " fill-opacity="1" fill-rule="nonzero"/><path fill="#ffffff" d="M 286.792969 136.84375 C 287.554688 134.539062 289.839844 133.1875 292.125 133.691406 C 298.511719 135.097656 331.394531 142.34375 337.523438 143.738281 C 343.660156 145.136719 343.902344 151.96875 347.398438 158.226562 C 350.433594 163.664062 360.886719 183.609375 372.28125 197.5 C 375.710938 201.6875 376.1875 207.691406 373.519531 212.441406 C 371.984375 215.171875 370.039062 217.851562 367.726562 219.433594 C 361.785156 223.496094 357.316406 228.339844 345.378906 199.757812 C 344.652344 198.015625 343.429688 196.519531 341.851562 195.480469 C 339.628906 194.015625 336.136719 191.355469 332.71875 187.308594 C 332.71875 187.308594 312.722656 211.738281 307.617188 162.125 C 307.160156 157.714844 309.125 153.421875 312.835938 151.25 C 313.128906 151.074219 313.4375 150.902344 313.761719 150.734375 L 289.808594 143.042969 C 287.304688 142.238281 285.9375 139.425781 286.792969 136.84375 " fill-opacity="1" fill-rule="nonzero"/><path fill="#000000" d="M 286.789062 136.84375 L 286.800781 136.84375 Z M 332.71875 185.894531 C 333.136719 185.894531 333.53125 186.078125 333.796875 186.398438 C 337.066406 190.273438 340.402344 192.835938 342.625 194.304688 C 344.433594 195.496094 345.835938 197.195312 346.679688 199.21875 C 352.367188 212.835938 356.851562 219.957031 360.382812 220.984375 C 362.160156 221.5 363.722656 220.5 366.132812 218.820312 L 366.929688 218.265625 C 368.761719 217.015625 370.566406 214.824219 372.292969 211.753906 C 374.683594 207.488281 374.238281 202.117188 371.1875 198.394531 C 360.957031 185.921875 351.464844 168.585938 347.414062 161.179688 C 346.914062 160.273438 346.492188 159.507812 346.164062 158.917969 C 345.0625 156.9375 344.292969 154.96875 343.550781 153.070312 C 341.769531 148.507812 340.597656 145.886719 337.210938 145.117188 C 330.472656 143.585938 292.207031 135.152344 291.824219 135.066406 C 290.25 134.722656 288.664062 135.675781 288.128906 137.289062 C 287.824219 138.207031 287.898438 139.191406 288.335938 140.050781 C 288.742188 140.847656 289.417969 141.4375 290.242188 141.703125 L 314.191406 149.390625 C 314.734375 149.558594 315.117188 150.042969 315.167969 150.613281 C 315.21875 151.171875 314.925781 151.714844 314.421875 151.980469 C 314.117188 152.140625 313.820312 152.304688 313.546875 152.46875 C 310.386719 154.316406 308.613281 158.046875 309.019531 161.984375 C 311.320312 184.359375 316.523438 190.472656 320.480469 191.660156 C 325.917969 193.296875 331.574219 186.480469 331.628906 186.414062 C 331.898438 186.089844 332.292969 185.902344 332.710938 185.894531 C 332.714844 185.894531 332.714844 185.894531 332.71875 185.894531 Z M 361.328125 223.949219 C 360.769531 223.949219 360.195312 223.871094 359.59375 223.695312 C 355.003906 222.359375 350.367188 215.367188 344.078125 200.304688 C 343.453125 198.800781 342.414062 197.539062 341.074219 196.65625 C 338.933594 195.246094 335.832031 192.890625 332.695312 189.421875 C 330.46875 191.664062 325.238281 196.042969 319.671875 194.363281 C 312.71875 192.273438 308.191406 181.476562 306.210938 162.273438 C 305.765625 157.9375 307.421875 153.777344 310.507812 151.167969 L 289.378906 144.386719 C 287.835938 143.890625 286.574219 142.804688 285.820312 141.324219 C 285.050781 139.816406 284.917969 138.019531 285.453125 136.402344 C 286.441406 133.414062 289.4375 131.65625 292.429688 132.3125 C 292.8125 132.394531 331.085938 140.828125 337.835938 142.363281 C 342.84375 143.503906 344.464844 147.652344 346.179688 152.042969 C 346.882812 153.859375 347.617188 155.730469 348.625 157.535156 C 348.957031 158.136719 349.382812 158.90625 349.886719 159.824219 C 353.902344 167.15625 363.304688 184.332031 373.371094 196.605469 C 377.152344 201.21875 377.707031 207.867188 374.746094 213.132812 C 372.808594 216.589844 370.714844 219.101562 368.523438 220.597656 L 367.746094 221.140625 C 365.757812 222.523438 363.714844 223.949219 361.328125 223.949219 " fill-opacity="1" fill-rule="nonzero"/><path fill="#000000" d="M 337.300781 177.519531 C 337.058594 177.519531 336.8125 177.457031 336.589844 177.324219 C 335.070312 176.4375 332.367188 174.53125 330.890625 173.472656 C 324.332031 168.765625 320.675781 164.09375 319.082031 161.730469 C 317.929688 160.015625 317.339844 158.085938 317.390625 156.15625 C 317.492188 152.371094 319.976562 151.503906 321.042969 151.132812 C 325.101562 149.714844 331.449219 153.53125 332.164062 153.972656 C 332.824219 154.378906 333.03125 155.25 332.621094 155.914062 C 332.210938 156.574219 331.34375 156.78125 330.683594 156.371094 C 328.433594 154.988281 324.078125 153.058594 321.972656 153.796875 C 321.015625 154.132812 320.257812 154.394531 320.210938 156.230469 C 320.175781 157.570312 320.597656 158.925781 321.421875 160.15625 C 322.910156 162.363281 326.328125 166.730469 332.5 171.15625 C 334.976562 172.929688 336.976562 174.28125 338.011719 174.890625 C 338.683594 175.28125 338.910156 176.144531 338.519531 176.820312 C 338.257812 177.265625 337.785156 177.519531 337.300781 177.519531 " fill-opacity="1" fill-rule="nonzero"/><path fill="#000000" d="M 332.988281 189.003906 C 332.609375 189.003906 332.234375 188.859375 331.960938 188.5625 C 326.523438 182.777344 326.847656 176.582031 326.863281 176.324219 C 326.910156 175.542969 327.585938 174.960938 328.359375 175.003906 C 329.136719 175.054688 329.722656 175.714844 329.679688 176.492188 C 329.667969 176.722656 329.457031 181.777344 334.015625 186.625 C 334.546875 187.195312 334.523438 188.085938 333.953125 188.621094 C 333.679688 188.878906 333.335938 189.003906 332.988281 189.003906 " fill-opacity="1" fill-rule="nonzero"/><path fill="#ffffff" d="M 647.851562 205.621094 L 645.679688 146.933594 L 604.550781 168.554688 L 605 205.644531 C 605.296875 213.914062 612.085938 218.523438 612.085938 218.523438 C 620.496094 224.917969 632.265625 223.761719 640.835938 217.601562 L 642.820312 216.171875 C 646.140625 213.78125 648.042969 209.796875 647.851562 205.621094 " fill-opacity="1" fill-rule="nonzero"/><path fill="#000000" d="M 605.972656 169.402344 L 606.410156 205.625 C 606.683594 213.0625 612.816406 217.316406 612.878906 217.359375 C 620.304688 223.011719 631.4375 222.613281 640.011719 216.453125 L 641.996094 215.023438 C 644.953125 212.898438 646.613281 209.410156 646.445312 205.683594 C 646.445312 205.679688 646.445312 205.671875 646.445312 205.667969 L 644.351562 149.226562 Z M 625.226562 224.25 C 620.160156 224.25 615.273438 222.722656 611.230469 219.648438 C 610.992188 219.488281 603.914062 214.574219 603.589844 205.695312 L 603.136719 168.574219 C 603.132812 168.042969 603.425781 167.554688 603.894531 167.304688 L 645.023438 145.683594 C 645.453125 145.460938 645.96875 145.46875 646.386719 145.714844 C 646.808594 145.957031 647.070312 146.398438 647.089844 146.878906 L 649.261719 205.5625 C 649.464844 210.242188 647.371094 214.636719 643.640625 217.316406 L 641.65625 218.746094 C 636.566406 222.40625 630.792969 224.25 625.226562 224.25 " fill-opacity="1" fill-rule="nonzero"/><path fill="#000000" d="M 585.878906 79.726562 C 596.863281 79.070312 583.058594 90.710938 623.660156 78.496094 C 639.832031 73.632812 631.652344 93.066406 635.847656 91.816406 C 651.347656 87.199219 650.816406 87.339844 658.382812 89.386719 C 663.394531 90.742188 666.65625 100.25 665.714844 107.355469 C 664.472656 116.738281 656.957031 119.160156 650.300781 138.976562 C 645.625 152.898438 646.773438 161.351562 641.351562 163.386719 C 635.875 165.4375 631.832031 157.875 625.683594 159.652344 C 617.730469 161.949219 619.296875 176.132812 611.554688 182.015625 C 606.671875 185.722656 595.308594 187.449219 577.101562 178.328125 C 574.148438 176.851562 572.628906 173.402344 573.507812 170.132812 C 574.621094 165.941406 576.0625 160.652344 577.847656 155.714844 C 586.359375 132.199219 594.484375 126.886719 591.542969 120.792969 C 587.027344 111.464844 569.882812 116.820312 567.042969 109.15625 C 564.09375 101.195312 570.847656 80.625 585.878906 79.726562 " fill-opacity="1" fill-rule="nonzero"/><path fill="#ffffff" d="M 624.203125 120.203125 L 621.0625 126.246094 C 619.582031 129.085938 618.292969 132.03125 617.207031 135.0625 C 615.167969 140.738281 611.304688 150.34375 609.191406 155.773438 C 602.398438 173.226562 581.550781 154.058594 581.550781 154.058594 L 580.105469 149.253906 L 577.300781 148.078125 C 576.757812 147.847656 576.253906 147.503906 575.894531 147.027344 C 575 145.835938 574.996094 144.257812 575.757812 143.085938 C 579.945312 136.71875 588.679688 122.414062 591.820312 109.578125 C 591.820312 109.578125 609.710938 104.820312 624.203125 120.203125 " fill-opacity="1" fill-rule="nonzero"/><path fill="#000000" d="M 582.785156 153.265625 C 584.578125 154.832031 594.550781 163.164062 601.746094 161.480469 C 604.488281 160.84375 606.5 158.808594 607.875 155.261719 C 608.457031 153.777344 609.164062 151.980469 609.925781 150.039062 C 611.925781 144.984375 614.402344 138.691406 615.882812 134.582031 C 616.984375 131.507812 618.304688 128.484375 619.808594 125.59375 L 622.484375 120.453125 C 610.554688 108.421875 596.425781 110.128906 592.96875 110.773438 C 589.695312 123.316406 581.558594 136.832031 576.933594 143.863281 C 576.472656 144.570312 576.507812 145.5 577.019531 146.175781 C 577.246094 146.480469 577.597656 146.667969 577.847656 146.777344 L 580.644531 147.949219 C 581.035156 148.113281 581.328125 148.441406 581.449219 148.84375 Z M 599.78125 164.523438 C 590.957031 164.523438 581.054688 155.515625 580.601562 155.09375 C 580.414062 154.925781 580.273438 154.703125 580.203125 154.460938 L 578.945312 150.296875 L 576.753906 149.378906 C 575.9375 149.03125 575.25 148.515625 574.773438 147.878906 C 573.542969 146.25 573.464844 144.015625 574.578125 142.3125 C 578.304688 136.640625 587.3125 122.074219 590.453125 109.238281 C 590.578125 108.742188 590.957031 108.347656 591.460938 108.214844 C 592.21875 108.011719 610.328125 103.421875 625.230469 119.238281 C 625.636719 119.675781 625.726562 120.320312 625.449219 120.855469 L 622.308594 126.894531 C 620.867188 129.675781 619.59375 132.585938 618.535156 135.539062 C 617.042969 139.683594 614.550781 146.003906 612.550781 151.078125 C 611.785156 153.015625 611.078125 154.808594 610.503906 156.285156 C 608.785156 160.707031 606.046875 163.378906 602.378906 164.234375 C 601.53125 164.429688 600.660156 164.523438 599.78125 164.523438 " fill-opacity="1" fill-rule="nonzero"/><path fill="#ffffff" d="M 619.765625 141.28125 C 619.765625 141.28125 627.300781 126.753906 632.964844 131.699219 C 638.621094 136.652344 629.941406 152.425781 619.765625 141.28125 " fill-opacity="1" fill-rule="nonzero"/><path fill="#000000" d="M 589.753906 126.316406 C 588.566406 126.835938 587.878906 128.628906 587.714844 131.632812 C 587.398438 137.253906 588.515625 139.582031 589.507812 140.539062 C 590.214844 141.222656 591.160156 141.503906 592.375 141.386719 C 592.484375 141.367188 593.054688 141.054688 593.683594 139.933594 C 595.054688 137.480469 595.765625 132.867188 593.660156 127.273438 C 593.539062 126.9375 593.164062 126.480469 592.484375 126.195312 C 591.664062 125.851562 590.699219 125.894531 589.753906 126.316406 Z M 591.890625 144.230469 C 590.175781 144.230469 588.6875 143.664062 587.554688 142.566406 C 585.457031 140.550781 584.589844 136.921875 584.898438 131.476562 C 585.132812 127.269531 586.351562 124.734375 588.617188 123.730469 C 590.269531 122.996094 592.035156 122.949219 593.574219 123.597656 C 594.871094 124.136719 595.863281 125.117188 596.304688 126.28125 C 598.863281 133.09375 597.773438 138.71875 595.90625 141.707031 C 594.96875 143.210938 593.804688 144.089844 592.636719 144.199219 C 592.382812 144.222656 592.132812 144.230469 591.890625 144.230469 " fill-opacity="1" fill-rule="nonzero"/><path fill="#000000" d="M 626.570312 130.460938 C 626.503906 130.460938 626.445312 130.453125 626.382812 130.449219 L 592.058594 125.960938 C 591.289062 125.859375 590.742188 125.152344 590.839844 124.378906 C 590.941406 123.605469 591.644531 123.058594 592.417969 123.160156 L 626.75 127.648438 C 627.523438 127.75 628.066406 128.457031 627.964844 129.230469 C 627.867188 129.941406 627.265625 130.460938 626.570312 130.460938 " fill-opacity="1" fill-rule="nonzero"/><path fill="#000000" d="M 577.460938 137.871094 L 577.464844 137.875 Z M 577.605469 137.964844 Z M 576.851562 140.554688 C 576.644531 140.554688 576.445312 140.511719 576.25 140.417969 C 575.371094 139.996094 574.605469 138.769531 573.972656 136.769531 C 572.902344 133.347656 572.539062 128.300781 574.761719 124.359375 C 575.546875 122.976562 576.710938 122.101562 578.140625 121.832031 C 581.550781 121.179688 585.328125 124.15625 585.742188 124.5 C 586.347656 124.992188 586.441406 125.878906 585.945312 126.484375 C 585.453125 127.089844 584.566406 127.179688 583.964844 126.6875 C 583.160156 126.039062 580.472656 124.265625 578.671875 124.601562 C 578.277344 124.675781 577.710938 124.878906 577.21875 125.746094 C 574.640625 130.324219 576.648438 136.945312 577.578125 137.9375 C 578.199219 138.300781 578.445312 139.09375 578.128906 139.753906 C 577.886719 140.257812 577.378906 140.554688 576.851562 140.554688 " fill-opacity="1" fill-rule="nonzero"/><path fill="#ffffff" d="M 494.074219 449.863281 C 493.605469 449.863281 493.148438 449.632812 492.878906 449.207031 L 468.824219 411.175781 C 468.40625 410.515625 468.605469 409.648438 469.257812 409.230469 C 469.921875 408.8125 470.789062 409.007812 471.207031 409.664062 L 495.261719 447.699219 C 495.679688 448.359375 495.480469 449.226562 494.824219 449.644531 C 494.589844 449.792969 494.328125 449.863281 494.074219 449.863281 " fill-opacity="1" fill-rule="nonzero"/><path fill="#ffffff" d="M 504.683594 449.863281 C 503.902344 449.863281 503.273438 449.234375 503.273438 448.457031 L 503.273438 410.417969 C 503.273438 409.640625 503.902344 409.011719 504.683594 409.011719 C 505.460938 409.011719 506.089844 409.640625 506.089844 410.417969 L 506.089844 448.457031 C 506.089844 449.234375 505.460938 449.863281 504.683594 449.863281 " fill-opacity="1" fill-rule="nonzero"/><path fill="#ffffff" d="M 487.699219 464.960938 C 487.378906 464.960938 487.050781 464.847656 486.789062 464.621094 L 451.414062 434.433594 C 450.824219 433.929688 450.75 433.035156 451.257812 432.445312 C 451.761719 431.855469 452.648438 431.78125 453.242188 432.285156 L 488.617188 462.472656 C 489.210938 462.980469 489.28125 463.871094 488.777344 464.464844 C 488.496094 464.789062 488.101562 464.960938 487.699219 464.960938 " fill-opacity="1" fill-rule="nonzero"/><path fill="#ffffff" d="M 128.984375 770.714844 L 112.707031 718.21875 C 112.707031 718.21875 98.410156 716.476562 93.394531 715.941406 C 5.46875 706.601562 49.589844 530.59375 122.757812 489.449219 C 167.710938 464.167969 221.511719 460.738281 273.921875 462.984375 C 310.789062 464.558594 346.582031 463.453125 379.800781 483.347656 C 426.992188 511.609375 467.441406 560.308594 492.476562 635.003906 L 515.1875 770.714844 L 128.984375 770.714844 " fill-opacity="1" fill-rule="nonzero"/><path fill="#000000" d="M 130.019531 769.308594 L 513.519531 769.308594 L 491.101562 635.347656 C 467.792969 565.847656 430.105469 515.117188 379.078125 484.558594 C 349.875 467.066406 318.925781 465.992188 286.164062 464.851562 C 282.078125 464.710938 277.976562 464.566406 273.859375 464.390625 C 229.007812 462.472656 171.378906 463.726562 123.449219 490.675781 C 74.699219 518.09375 36.058594 609.894531 48.277344 669.273438 C 52.160156 688.140625 63.164062 711.3125 93.542969 714.539062 C 98.515625 715.066406 112.738281 716.800781 112.878906 716.816406 C 113.429688 716.886719 113.890625 717.269531 114.054688 717.800781 Z M 515.1875 772.128906 L 128.984375 772.128906 C 128.363281 772.128906 127.820312 771.726562 127.636719 771.132812 L 111.632812 719.507812 C 108.40625 719.117188 97.464844 717.792969 93.246094 717.34375 C 67.859375 714.648438 51.351562 698.222656 45.511719 669.839844 C 39.796875 642.058594 45.207031 604.019531 59.992188 568.082031 C 75.28125 530.914062 97.90625 501.804688 122.066406 488.21875 C 170.617188 460.914062 228.75 459.632812 273.980469 461.570312 C 278.089844 461.746094 282.183594 461.890625 286.261719 462.03125 C 319.402344 463.183594 350.699219 464.273438 380.527344 482.136719 C 432.167969 513.066406 470.28125 564.347656 493.808594 634.558594 C 493.835938 634.625 493.851562 634.699219 493.863281 634.769531 L 516.578125 770.484375 C 516.644531 770.894531 516.53125 771.3125 516.261719 771.628906 C 516 771.945312 515.601562 772.128906 515.1875 772.128906 " fill-opacity="1" fill-rule="nonzero"/><path fill="#000000" d="M 236.359375 383.722656 C 225.738281 389.078125 217.734375 389.847656 211.964844 389.515625 C 191.117188 388.320312 177.75 371.503906 175.074219 368.132812 C 161.25 350.75 154.589844 322.199219 166.304688 305.433594 C 174.738281 293.359375 185.359375 297.910156 195.070312 284.410156 C 206.097656 269.085938 194.792969 256.582031 204.964844 243.171875 C 216.675781 227.726562 242.484375 228.902344 247.125 229.113281 C 263.046875 229.847656 264.941406 237.75 280 237.339844 C 295.363281 236.925781 297.398438 229.199219 311.503906 229.113281 C 322.710938 229.050781 339.042969 233.828125 346.359375 246.796875 C 355.542969 263.074219 346.148438 284.519531 335.246094 295.835938 C 322.15625 309.421875 312.9375 302.132812 294.609375 313.203125 C 262.839844 332.378906 270.429688 366.539062 236.359375 383.722656 " fill-opacity="1" fill-rule="nonzero"/><path fill="#ffffff" d="M 295.523438 456.09375 L 286.921875 402.539062 C 288.8125 402.324219 304.65625 399.5625 306.46875 398.660156 C 321.136719 391.347656 317.058594 354.496094 317.058594 354.496094 L 325.210938 344.75 L 300.890625 290.269531 C 275.058594 311.816406 265.84375 290.65625 240.277344 301.261719 C 214.710938 311.863281 228.582031 340.351562 228.582031 340.351562 C 228.582031 340.351562 207.6875 331.136719 212.152344 351.363281 C 215.527344 366.636719 226.644531 367.59375 233.964844 366.976562 L 220.339844 458.8125 C 220.339844 458.8125 176.472656 471.289062 167.992188 473.535156 C 179.03125 473.015625 255.355469 506.238281 341.925781 469.929688 L 295.523438 456.09375 " fill-opacity="1" fill-rule="nonzero"/><path fill="#000000" d="M 174.664062 473.171875 C 176.628906 473.628906 178.9375 474.210938 181.597656 474.886719 C 208.148438 481.605469 269.691406 497.1875 337.6875 470.140625 L 295.121094 457.445312 C 294.601562 457.292969 294.21875 456.851562 294.128906 456.320312 L 285.53125 402.761719 C 285.46875 402.382812 285.566406 401.992188 285.796875 401.6875 C 286.03125 401.378906 286.382812 401.179688 286.765625 401.136719 C 289.046875 400.878906 304.363281 398.121094 305.839844 397.398438 C 319.460938 390.605469 315.695312 355.015625 315.660156 354.65625 C 315.613281 354.273438 315.730469 353.886719 315.976562 353.59375 L 323.566406 344.523438 L 300.355469 292.523438 C 285.984375 303.917969 276.582031 302.34375 266.644531 300.683594 C 259.183594 299.433594 251.46875 298.144531 240.816406 302.5625 C 234.234375 305.292969 229.828125 309.507812 227.710938 315.09375 C 223.449219 326.351562 229.785156 339.601562 229.847656 339.730469 C 230.105469 340.265625 230.007812 340.902344 229.597656 341.328125 C 229.1875 341.753906 228.554688 341.878906 228.015625 341.644531 C 225.476562 340.53125 218.171875 338.234375 214.863281 340.953125 C 212.859375 342.597656 212.414062 346 213.53125 351.058594 C 215.894531 361.777344 222.535156 366.519531 233.847656 365.570312 C 234.273438 365.535156 234.699219 365.695312 234.996094 366.015625 C 235.289062 366.324219 235.425781 366.761719 235.359375 367.1875 L 221.734375 459.019531 C 221.652344 459.570312 221.257812 460.019531 220.722656 460.171875 C 220.355469 460.273438 189.441406 469.066406 174.664062 473.171875 Z M 256.207031 488.308594 C 223.125 488.308594 196.238281 481.503906 180.90625 477.621094 C 174.5625 476.015625 169.964844 474.84375 168.058594 474.945312 C 167.335938 474.972656 166.710938 474.464844 166.601562 473.746094 C 166.488281 473.035156 166.933594 472.355469 167.632812 472.167969 C 175.339844 470.128906 212.84375 459.476562 219.078125 457.707031 L 232.316406 368.492188 C 220.578125 368.917969 213.339844 363.265625 210.777344 351.667969 C 209.410156 345.484375 210.183594 341.140625 213.078125 338.769531 C 216.660156 335.828125 222.5 336.890625 226.070312 337.957031 C 224.296875 333.097656 221.632812 323.183594 225.078125 314.089844 C 227.476562 307.75 232.410156 302.996094 239.738281 299.953125 C 251.136719 295.226562 259.621094 296.648438 267.109375 297.898438 C 277.136719 299.578125 285.792969 301.027344 299.988281 289.1875 C 300.328125 288.90625 300.777344 288.792969 301.210938 288.894531 C 301.640625 288.996094 301.996094 289.289062 302.175781 289.691406 L 326.5 344.171875 C 326.71875 344.667969 326.640625 345.246094 326.292969 345.65625 L 318.523438 354.949219 C 319.015625 359.992188 321.578125 392.703125 307.097656 399.925781 C 305.28125 400.828125 292.988281 403.011719 288.539062 403.726562 L 296.773438 454.996094 L 342.332031 468.578125 C 342.902344 468.746094 343.304688 469.257812 343.335938 469.851562 C 343.367188 470.449219 343.023438 471 342.472656 471.230469 C 311.640625 484.160156 282.035156 488.308594 256.207031 488.308594 " fill-opacity="1" fill-rule="nonzero"/><path fill="#000000" d="M 281.109375 404.351562 C 259.574219 404.351562 249.511719 387.660156 249.402344 387.476562 C 249.011719 386.804688 249.234375 385.941406 249.90625 385.546875 C 250.578125 385.152344 251.441406 385.375 251.835938 386.046875 C 252.28125 386.804688 262.972656 404.390625 286.730469 401.140625 C 287.5 401.03125 288.210938 401.574219 288.316406 402.347656 C 288.425781 403.121094 287.882812 403.832031 287.113281 403.933594 C 285.023438 404.222656 283.019531 404.351562 281.109375 404.351562 " fill-opacity="1" fill-rule="nonzero"/><path fill="#5479f7" d="M 248.800781 396.179688 C 237.144531 396.179688 226.210938 389.582031 220.925781 378.59375 L 214.878906 366.007812 C 214.542969 365.304688 214.835938 364.464844 215.539062 364.125 C 216.242188 363.785156 217.082031 364.085938 217.421875 364.785156 L 223.46875 377.367188 C 229.460938 389.828125 243.445312 396.078125 256.71875 392.226562 L 286.367188 383.617188 C 287.113281 383.394531 287.894531 383.828125 288.113281 384.578125 C 288.328125 385.328125 287.898438 386.109375 287.152344 386.328125 L 257.5 394.9375 C 254.605469 395.777344 251.679688 396.179688 248.800781 396.179688 " fill-opacity="1" fill-rule="nonzero"/><path fill="#caddff" d="M 210.71875 341.75 C 210.1875 341.75 209.679688 341.445312 209.4375 340.933594 C 208.773438 339.503906 193.226562 305.628906 203.246094 279.214844 C 207.347656 268.390625 215.214844 260.394531 226.632812 255.449219 C 227.347656 255.140625 228.175781 255.46875 228.488281 256.183594 C 228.796875 256.898438 228.46875 257.730469 227.753906 258.039062 C 217.0625 262.671875 209.703125 270.132812 205.878906 280.214844 C 196.28125 305.527344 211.835938 339.398438 211.992188 339.738281 C 212.324219 340.445312 212.019531 341.285156 211.3125 341.617188 C 211.121094 341.707031 210.914062 341.75 210.71875 341.75 " fill-opacity="1" fill-rule="nonzero"/><path fill="#5479f7" d="M 297.996094 384.839844 C 298.558594 380.410156 295.359375 376.355469 290.851562 375.785156 C 286.34375 375.21875 282.234375 378.34375 281.675781 382.777344 C 281.117188 387.203125 284.316406 391.257812 288.820312 391.828125 C 293.328125 392.402344 297.4375 389.269531 297.996094 384.839844 " fill-opacity="1" fill-rule="nonzero"/><path fill="#5479f7" d="M 238.589844 352.746094 C 240.160156 340.320312 232.203125 329.074219 220.820312 327.632812 C 219.570312 327.472656 214.941406 327.359375 213.726562 327.441406 C 203.847656 328.105469 198.757812 336.460938 197.359375 347.527344 C 195.851562 359.457031 200.394531 370.605469 211.054688 372.726562 C 211.496094 372.8125 214.652344 373.066406 215.109375 373.070312 C 227.585938 373.109375 237.019531 365.171875 238.589844 352.746094 " fill-opacity="1" fill-rule="nonzero"/><path fill="#99b9ff" d="M 233.664062 352.339844 C 234.992188 339.882812 226.816406 328.800781 215.40625 327.578125 C 203.992188 326.363281 193.667969 335.472656 192.339844 347.929688 C 191.011719 360.386719 199.1875 371.46875 210.597656 372.6875 C 222.007812 373.90625 232.335938 364.796875 233.664062 352.339844 " fill-opacity="1" fill-rule="nonzero"/><path fill="#ffffff" d="M 192.808594 367.722656 C 192.367188 367.671875 192.339844 367.054688 192.773438 366.96875 C 201.753906 365.207031 224.46875 359.683594 219.835938 349.511719 C 218.132812 345.765625 199.414062 348.421875 191.777344 349.433594 C 184.140625 350.445312 160.4375 370.863281 155.277344 386.875 C 151.316406 399.160156 149.589844 418.835938 146.347656 431.316406 C 146.347656 431.316406 25.078125 591.148438 38.558594 655.546875 C 55.351562 735.777344 134.148438 706.445312 148.855469 669.035156 C 161.886719 635.890625 166.847656 484.308594 167.8125 450.1875 C 169.386719 446.019531 173.484375 435.792969 177.105469 431.992188 C 181.695312 427.171875 205.453125 416.914062 206.226562 406.550781 C 206.8125 398.6875 193.71875 389.765625 187.367188 385.917969 C 186.34375 385.292969 186.773438 383.710938 187.96875 383.714844 C 191.671875 383.714844 197.457031 384.347656 203.101562 387.503906 C 212.453125 392.734375 222.445312 389.910156 219.617188 383.421875 C 217.082031 377.59375 203.550781 368.972656 192.808594 367.722656 " fill-opacity="1" fill-rule="nonzero"/><path fill="#000000" d="M 211.847656 348.984375 C 210.941406 348.984375 209.917969 349.007812 208.757812 349.0625 C 203.269531 349.328125 197.042969 350.15625 192.921875 350.703125 L 191.960938 350.832031 C 184.8125 351.78125 161.609375 371.824219 156.617188 387.308594 C 154.429688 394.097656 152.917969 403.28125 151.453125 412.164062 C 150.269531 419.34375 149.152344 426.128906 147.710938 431.675781 L 147.640625 431.949219 L 147.46875 432.171875 C 146.257812 433.765625 26.742188 592.21875 39.9375 655.253906 C 46.246094 685.390625 62.453125 703.0625 85.582031 705.011719 C 110.132812 707.085938 139.085938 690.03125 147.542969 668.519531 C 160.566406 635.386719 165.539062 480.800781 166.402344 450.148438 L 166.410156 449.910156 L 166.492188 449.6875 C 168.507812 444.359375 172.429688 434.851562 176.082031 431.019531 C 177.628906 429.398438 180.824219 427.421875 184.871094 424.921875 C 193.089844 419.84375 204.339844 412.890625 204.820312 406.449219 C 205.191406 401.46875 198.390625 394.246094 186.636719 387.125 C 185.625 386.511719 185.160156 385.332031 185.480469 384.191406 C 185.796875 383.0625 186.796875 382.304688 187.96875 382.304688 C 191.957031 382.308594 197.933594 383 203.789062 386.273438 C 209.625 389.535156 215.636719 389.382812 217.859375 387.363281 C 218.796875 386.515625 218.949219 385.410156 218.328125 383.984375 C 216 378.640625 202.875 370.320312 192.644531 369.125 C 191.757812 369.023438 191.089844 368.304688 191.054688 367.414062 C 191.019531 366.527344 191.628906 365.757812 192.503906 365.582031 C 206.550781 362.832031 216.28125 358.574219 218.527344 354.199219 C 219.203125 352.882812 219.210938 351.539062 218.554688 350.097656 C 218.546875 350.085938 217.945312 348.984375 211.847656 348.984375 Z M 89.867188 708.015625 C 88.34375 708.015625 86.839844 707.949219 85.34375 707.828125 C 71.171875 706.628906 46.0625 698.28125 37.175781 655.835938 C 31.511719 628.765625 48 582.582031 86.1875 518.558594 C 113.421875 472.894531 142.542969 434.019531 145.050781 430.695312 C 146.429688 425.320312 147.519531 418.707031 148.671875 411.703125 C 150.152344 402.71875 151.683594 393.425781 153.933594 386.441406 C 159.304688 369.789062 183.722656 349.074219 191.59375 348.035156 L 192.546875 347.90625 C 209.332031 345.671875 219.386719 345.121094 221.121094 348.925781 C 222.144531 351.175781 222.117188 353.382812 221.035156 355.488281 C 217.972656 361.449219 206.699219 365.210938 197.894531 367.304688 C 208.136719 370.128906 218.597656 377.550781 220.910156 382.851562 C 222.011719 385.382812 221.589844 387.789062 219.75 389.453125 C 216.261719 392.621094 208.808594 392.3125 202.414062 388.734375 C 197.476562 385.976562 192.417969 385.234375 188.796875 385.136719 C 196.410156 389.832031 208.238281 398.496094 207.632812 406.65625 C 207.042969 414.53125 195.574219 421.625 186.355469 427.324219 C 182.632812 429.625 179.417969 431.605469 178.121094 432.96875 C 174.671875 436.589844 170.53125 447 169.214844 450.464844 C 168.328125 481.753906 163.328125 636.066406 150.164062 669.550781 C 146.011719 680.121094 136.726562 690.371094 124.695312 697.679688 C 113.601562 704.417969 101.402344 708.015625 89.867188 708.015625 " fill-opacity="1" fill-rule="nonzero"/><path fill="#99b9ff" d="M 105.601562 719.886719 C 100.65625 719.886719 97.539062 719.539062 97.21875 719.5 C 96.445312 719.410156 95.890625 718.710938 95.980469 717.933594 C 96.070312 717.160156 96.769531 716.613281 97.546875 716.695312 C 97.738281 716.71875 117.320312 718.878906 138.082031 711.976562 C 165.75 702.78125 182.308594 682.683594 187.292969 652.25 C 187.417969 651.476562 188.144531 650.960938 188.910156 651.085938 C 189.679688 651.210938 190.199219 651.933594 190.074219 652.707031 C 183.628906 692.054688 158.679688 708.128906 138.882812 714.6875 C 125.804688 719.019531 113.421875 719.886719 105.601562 719.886719 " fill-opacity="1" fill-rule="nonzero"/><path fill="#ffffff" d="M 553.804688 615.269531 L 390.445312 615.269531 C 385.046875 615.269531 381.726562 609.347656 384.542969 604.734375 L 485.773438 439.054688 C 487.933594 435.515625 491.773438 433.363281 495.914062 433.363281 L 657.921875 433.363281 C 663.914062 433.363281 667.59375 439.933594 664.46875 445.050781 L 563.945312 609.578125 C 561.789062 613.109375 557.949219 615.269531 553.804688 615.269531 " fill-opacity="1" fill-rule="nonzero"/><path fill="#000000" d="M 495.914062 434.773438 C 492.292969 434.773438 488.871094 436.691406 486.972656 439.785156 L 385.75 605.472656 C 384.695312 607.195312 384.65625 609.277344 385.640625 611.042969 C 386.632812 612.804688 388.425781 613.855469 390.445312 613.855469 L 553.804688 613.855469 C 557.429688 613.855469 560.855469 611.933594 562.746094 608.839844 L 663.265625 444.316406 C 664.464844 442.351562 664.507812 439.984375 663.386719 437.976562 C 662.261719 435.972656 660.222656 434.773438 657.925781 434.773438 Z M 553.804688 616.675781 L 390.445312 616.675781 C 387.394531 616.675781 384.675781 615.085938 383.1875 612.421875 C 381.691406 609.757812 381.75 606.609375 383.34375 603.996094 L 484.574219 438.3125 C 486.972656 434.386719 491.316406 431.949219 495.914062 431.949219 L 657.925781 431.949219 C 661.253906 431.949219 664.214844 433.683594 665.84375 436.59375 C 667.476562 439.507812 667.410156 442.941406 665.671875 445.78125 L 565.148438 610.3125 C 562.753906 614.242188 558.40625 616.675781 553.804688 616.675781 " fill-opacity="1" fill-rule="nonzero"/><path fill="#99b9ff" d="M 592.246094 509.621094 L 477.480469 509.621094 L 484.171875 498.636719 L 598.941406 498.636719 L 592.246094 509.621094 " fill-opacity="1" fill-rule="nonzero"/><path fill="#99b9ff" d="M 605.351562 488.121094 L 490.582031 488.121094 L 511.046875 454.539062 L 625.820312 454.539062 L 605.351562 488.121094 " fill-opacity="1" fill-rule="nonzero"/><path fill="#000000" d="M 550.285156 753.578125 L 370.398438 753.578125 L 503.757812 548.304688 C 507.921875 541.890625 515.179688 538.003906 522.984375 538.003906 L 668.976562 538.003906 C 678.246094 538.003906 683.882812 547.9375 678.929688 555.558594 L 550.285156 753.578125 " fill-opacity="1" fill-rule="nonzero"/><path fill="#caddff" d="M 588.652344 609.984375 C 582.808594 618.980469 570.238281 626.277344 560.578125 626.277344 C 550.917969 626.277344 547.820312 618.980469 553.667969 609.984375 C 559.511719 600.988281 572.085938 593.695312 581.742188 593.695312 C 591.410156 593.695312 594.503906 600.988281 588.652344 609.984375 " fill-opacity="1" fill-rule="nonzero"/><path fill="#000000" d="M 533.5 770.714844 L 231.699219 770.714844 C 222.066406 770.714844 214.261719 762.902344 214.261719 753.265625 L 214.261719 752.109375 L 550.933594 752.109375 L 550.933594 753.265625 C 550.933594 762.902344 543.128906 770.714844 533.5 770.714844 " fill-opacity="1" fill-rule="nonzero"/><path fill="#ffffff" d="M 540.929688 755.175781 L 386.4375 755.175781 C 385.664062 755.175781 385.03125 754.546875 385.03125 753.765625 C 385.03125 752.984375 385.664062 752.351562 386.4375 752.351562 L 540.929688 752.351562 C 541.707031 752.351562 542.339844 752.984375 542.339844 753.765625 C 542.339844 754.546875 541.707031 755.175781 540.929688 755.175781 " fill-opacity="1" fill-rule="nonzero"/><g clip-path="url(#36a5912e5b)"><path fill="#99b9ff" d="M 24.007812 766.453125 L 804.121094 766.453125 L 804.121094 797.84375 L 24.007812 797.84375 L 24.007812 766.453125 " fill-opacity="1" fill-rule="nonzero"/></g><path fill="#000000" d="M 591.617188 791.578125 C 590.835938 791.578125 590.203125 790.949219 590.203125 790.171875 L 590.203125 774.128906 C 590.203125 773.347656 590.835938 772.714844 591.617188 772.714844 C 592.394531 772.714844 593.023438 773.347656 593.023438 774.128906 L 593.023438 790.171875 C 593.023438 790.949219 592.394531 791.578125 591.617188 791.578125 " fill-opacity="1" fill-rule="nonzero"/><path fill="#ffffff" d="M 33.722656 494.949219 C 33.609375 494.949219 33.5 494.933594 33.382812 494.90625 C 32.628906 494.722656 32.167969 493.957031 32.351562 493.199219 C 32.554688 492.390625 52.828125 411.914062 102.496094 377.488281 C 103.136719 377.046875 104.015625 377.207031 104.460938 377.847656 C 104.902344 378.488281 104.742188 379.367188 104.101562 379.8125 C 55.320312 413.617188 35.289062 493.074219 35.089844 493.875 C 34.933594 494.515625 34.355469 494.949219 33.722656 494.949219 " fill-opacity="1" fill-rule="nonzero"/><path fill="#ffffff" d="M 55.820312 467.632812 C 55.636719 467.632812 55.453125 467.597656 55.273438 467.523438 C 54.554688 467.214844 54.21875 466.386719 54.523438 465.671875 C 62.605469 446.535156 71.992188 429.828125 82.421875 416.015625 C 82.890625 415.394531 83.777344 415.269531 84.394531 415.742188 C 85.015625 416.210938 85.140625 417.097656 84.671875 417.714844 C 74.382812 431.34375 65.113281 447.847656 57.121094 466.773438 C 56.894531 467.308594 56.371094 467.632812 55.820312 467.632812 " fill-opacity="1" fill-rule="nonzero"/><path fill="#ffffff" d="M 292.78125 139.769531 C 292.019531 139.769531 291.390625 139.160156 291.375 138.390625 C 291.355469 137.609375 291.972656 136.96875 292.75 136.949219 L 297.75 136.839844 C 298.503906 136.800781 299.171875 137.441406 299.191406 138.222656 C 299.207031 139 298.589844 139.648438 297.8125 139.667969 L 292.8125 139.769531 C 292.800781 139.769531 292.792969 139.769531 292.78125 139.769531 " fill-opacity="1" fill-rule="nonzero"/><path fill="#ffffff" d="M 275.289062 140.140625 C 274.523438 140.140625 273.898438 139.53125 273.878906 138.761719 C 273.863281 137.984375 274.480469 137.335938 275.261719 137.324219 L 280.257812 137.214844 C 281.003906 137.183594 281.683594 137.816406 281.699219 138.59375 C 281.714844 139.371094 281.097656 140.019531 280.320312 140.035156 L 275.320312 140.140625 C 275.3125 140.140625 275.300781 140.140625 275.289062 140.140625 " fill-opacity="1" fill-rule="nonzero"/><path fill="#ffffff" d="M 286.488281 133.742188 C 285.714844 133.742188 285.082031 133.117188 285.078125 132.339844 L 285.039062 127.414062 C 285.03125 126.632812 285.660156 125.992188 286.4375 125.988281 C 286.441406 125.988281 286.445312 125.988281 286.449219 125.988281 C 287.222656 125.988281 287.851562 126.613281 287.859375 127.386719 L 287.898438 132.316406 C 287.90625 133.097656 287.277344 133.734375 286.5 133.742188 C 286.496094 133.742188 286.492188 133.742188 286.488281 133.742188 " fill-opacity="1" fill-rule="nonzero"/><path fill="#ffffff" d="M 286.625 150.992188 C 285.851562 150.992188 285.222656 150.371094 285.214844 149.59375 L 285.175781 144.664062 C 285.171875 143.882812 285.796875 143.246094 286.574219 143.242188 C 286.578125 143.242188 286.582031 143.242188 286.585938 143.242188 C 287.359375 143.242188 287.988281 143.867188 287.996094 144.640625 L 288.035156 149.570312 C 288.042969 150.351562 287.414062 150.988281 286.636719 150.992188 C 286.632812 150.992188 286.628906 150.992188 286.625 150.992188 " fill-opacity="1" fill-rule="nonzero"/><path fill="#ffffff" d="M 373.246094 386.089844 C 372.078125 386.089844 370.914062 386.328125 369.820312 386.808594 C 367.746094 387.722656 366.160156 389.386719 365.351562 391.507812 C 363.660156 395.941406 365.925781 401.011719 370.40625 402.792969 C 372.59375 403.667969 374.964844 403.636719 377.082031 402.707031 C 379.152344 401.796875 380.738281 400.128906 381.550781 398.011719 C 383.242188 393.570312 380.972656 388.507812 376.496094 386.71875 C 375.4375 386.296875 374.335938 386.089844 373.246094 386.089844 Z M 373.65625 406.25 C 372.210938 406.25 370.757812 405.972656 369.363281 405.417969 C 363.464844 403.0625 360.480469 396.371094 362.71875 390.5 C 363.792969 387.667969 365.914062 385.441406 368.683594 384.226562 C 371.503906 382.988281 374.644531 382.941406 377.539062 384.09375 C 383.4375 386.449219 386.421875 393.144531 384.183594 399.015625 C 383.105469 401.847656 380.988281 404.074219 378.214844 405.289062 C 376.757812 405.929688 375.210938 406.25 373.65625 406.25 " fill-opacity="1" fill-rule="nonzero"/><path fill="#ffffff" d="M 340.375 404.6875 C 339.6875 404.6875 339.007812 404.832031 338.363281 405.113281 C 337.152344 405.640625 336.222656 406.617188 335.75 407.859375 C 334.757812 410.472656 336.089844 413.449219 338.730469 414.503906 C 340.015625 415.015625 341.40625 414.996094 342.652344 414.449219 C 343.863281 413.917969 344.792969 412.941406 345.265625 411.699219 C 346.261719 409.09375 344.921875 406.109375 342.285156 405.054688 C 341.667969 404.808594 341.019531 404.6875 340.375 404.6875 Z M 340.640625 417.699219 C 339.644531 417.699219 338.644531 417.503906 337.683594 417.128906 C 333.621094 415.503906 331.574219 410.898438 333.113281 406.851562 C 333.859375 404.902344 335.324219 403.367188 337.234375 402.527344 C 339.171875 401.671875 341.335938 401.644531 343.328125 402.4375 C 347.390625 404.058594 349.441406 408.664062 347.898438 412.707031 C 347.15625 414.660156 345.695312 416.195312 343.785156 417.039062 C 342.78125 417.476562 341.714844 417.699219 340.640625 417.699219 " fill-opacity="1" fill-rule="nonzero"/><g clip-path="url(#41e835a339)"><g clip-path="url(#02480963ff)"><g clip-path="url(#7e1e1773a3)"><path fill="#5479f7" d="M -23.816406 593.21875 L -33.863281 545.429688 L -8.691406 540.136719 L 1.355469 587.925781 Z M -23.816406 593.21875 " fill-opacity="1" fill-rule="nonzero"/></g></g></g></svg>