<svg xmlns="http://www.w3.org/2000/svg" xmlns:xlink="http://www.w3.org/1999/xlink" width="1080" zoomAndPan="magnify" viewBox="0 0 810 809.999993" height="1080" preserveAspectRatio="xMidYMid meet" version="1.0"><defs><clipPath id="32cf3f5e57"><path d="M 362.910156 272.382812 L 375.617188 272.382812 L 375.617188 285.089844 L 362.910156 285.089844 Z M 362.910156 272.382812 " clip-rule="nonzero"/></clipPath><clipPath id="d0415310f7"><path d="M 369.265625 272.382812 C 365.757812 272.382812 362.910156 275.226562 362.910156 278.734375 C 362.910156 282.242188 365.757812 285.089844 369.265625 285.089844 C 372.773438 285.089844 375.617188 282.242188 375.617188 278.734375 C 375.617188 275.226562 372.773438 272.382812 369.265625 272.382812 Z M 369.265625 272.382812 " clip-rule="nonzero"/></clipPath></defs><path fill="#caf0f8" d="M 19.382812 525.371094 C -9.042969 433.296875 96.253906 404.648438 105.945312 361.519531 C 125.011719 276.632812 82.15625 233.503906 150.351562 163.859375 C 208.117188 104.878906 278.722656 139.242188 348.777344 129.851562 C 433.558594 118.488281 521.308594 28.207031 603.6875 104.261719 C 614.511719 114.242188 622.636719 126.9375 628.78125 140.230469 C 651.761719 189.859375 650.296875 245.488281 682.457031 291.992188 C 720.5625 347.121094 780.476562 388.46875 785.855469 460.828125 C 786.871094 474.382812 785.328125 487.832031 781.664062 500.898438 C 778.511719 512.144531 774.148438 522.65625 767.632812 532.386719 C 722.144531 600.328125 637.335938 560.8125 572.742188 576.199219 C 532.488281 585.785156 502.414062 616.902344 470.648438 641.136719 C 427.757812 673.890625 376.875 700.0625 321.539062 698.691406 C 264.179688 697.253906 206.902344 671.769531 162.90625 635.878906 C 145.183594 621.414062 131.511719 596.730469 111.179688 586.089844 C 73.613281 566.429688 27.597656 552.019531 19.382812 525.371094 Z M 19.382812 525.371094 " fill-opacity="1" fill-rule="evenodd"/><path fill="#001c55" d="M 24.683594 424.78125 C 22.179688 392.59375 33.09375 370.957031 49.273438 354.832031 C 81.144531 323.054688 132.394531 311.652344 144.894531 285.28125 C 167.875 236.785156 164.449219 198.601562 177.554688 164.015625 C 185.558594 142.917969 199.902344 123.234375 230.703125 103.308594 C 257.507812 85.957031 283.089844 82.992188 308.46875 86.089844 C 348.210938 90.941406 387.488281 110.363281 430.089844 114.136719 C 490.191406 119.460938 560.363281 86.671875 618.785156 99.5 C 642.507812 104.707031 664.222656 117.628906 682.457031 144.054688 C 686.53125 149.945312 689.800781 156.355469 692.4375 163.011719 C 695.101562 169.726562 697.105469 176.699219 698.621094 183.714844 C 706.691406 221.226562 702.328125 258.960938 706.390625 296.25 C 708.128906 312.269531 711.398438 328.210938 717.765625 344.007812 C 732.824219 381.335938 756.636719 415.539062 770.957031 452.457031 C 780.304688 476.585938 785.554688 501.886719 781.386719 530.066406 C 780.410156 536.632812 778.828125 543.027344 776.71875 549.25 C 774.597656 555.472656 771.917969 561.523438 768.769531 567.367188 C 766.050781 572.402344 763.085938 577.1875 759.761719 581.699219 C 756.464844 586.195312 752.800781 590.414062 748.660156 594.34375 C 731.558594 610.574219 713.207031 617.085938 694.140625 618.234375 C 647.726562 621.042969 597.332031 592.960938 550.699219 593.527344 C 533.808594 593.738281 517.761719 597.71875 502.226562 603.546875 C 479.351562 612.117188 457.582031 624.667969 435.761719 634.691406 C 411.460938 645.859375 385.589844 654.996094 359.140625 659.675781 C 332.796875 664.34375 305.886719 664.566406 279.398438 657.898438 C 251.867188 650.972656 225.679688 638.238281 202.039062 621.730469 C 178.359375 605.183594 157.234375 584.835938 139.871094 562.699219 C 130.140625 550.277344 123.386719 533.519531 114.34375 519.476562 C 110.191406 513.003906 105.550781 507.109375 99.984375 502.390625 C 79.46875 484.972656 55.140625 468.898438 39.636719 452.351562 C 31.238281 443.386719 25.433594 434.339844 24.683594 424.78125 Z M 19.421875 425.191406 C 20.253906 435.804688 26.449219 445.996094 35.796875 455.964844 C 51.421875 472.628906 75.894531 488.863281 96.570312 506.410156 C 101.738281 510.800781 106.035156 516.3125 109.914062 522.339844 C 119.039062 536.5 125.894531 553.417969 135.714844 565.941406 C 153.398438 588.488281 174.902344 609.203125 199.019531 626.054688 C 223.1875 642.929688 249.96875 655.933594 278.105469 663.011719 C 305.332031 669.867188 332.996094 669.65625 360.0625 664.871094 C 386.949219 660.113281 413.253906 650.828125 437.964844 639.488281 C 459.667969 629.519531 481.316406 617.007812 504.074219 608.476562 C 519.050781 602.875 534.492188 598.996094 550.761719 598.800781 C 597.476562 598.234375 647.964844 626.316406 694.46875 623.496094 C 714.683594 622.285156 734.15625 615.375 752.300781 598.167969 C 756.652344 594.027344 760.527344 589.570312 764.007812 584.824219 C 767.488281 580.117188 770.574219 575.121094 773.410156 569.871094 C 776.707031 563.765625 779.488281 557.449219 781.703125 550.949219 C 783.929688 544.425781 785.578125 537.714844 786.59375 530.828125 C 790.917969 501.691406 785.539062 475.503906 775.863281 450.542969 C 761.542969 413.601562 737.714844 379.382812 722.660156 342.03125 C 716.476562 326.695312 713.3125 311.230469 711.625 295.683594 C 707.5625 258.210938 711.886719 220.289062 703.777344 182.605469 C 702.207031 175.316406 700.113281 168.050781 697.34375 161.074219 C 694.5625 154.035156 691.09375 147.285156 686.796875 141.058594 C 667.664062 113.316406 644.828125 99.816406 619.921875 94.34375 C 561.285156 81.476562 490.863281 114.226562 430.554688 108.886719 C 380.476562 104.457031 334.972656 78.457031 287.953125 79.789062 C 268.320312 80.339844 248.425781 85.5625 227.84375 98.878906 C 195.777344 119.621094 180.941406 140.1875 172.621094 162.15625 C 159.570312 196.609375 163.035156 234.6875 140.132812 283.027344 C 127.820312 309 76.949219 319.773438 45.542969 351.085938 C 28.402344 368.175781 16.773438 391.09375 19.421875 425.191406 Z M 19.421875 425.191406 " fill-opacity="1" fill-rule="evenodd"/><g clip-path="url(#32cf3f5e57)"><g clip-path="url(#d0415310f7)"><path fill="#caf0f8" d="M 362.910156 272.382812 L 375.617188 272.382812 L 375.617188 285.089844 L 362.910156 285.089844 Z M 362.910156 272.382812 " fill-opacity="1" fill-rule="nonzero"/></g></g></svg>