<svg xmlns="http://www.w3.org/2000/svg" xmlns:xlink="http://www.w3.org/1999/xlink" width="1080" zoomAndPan="magnify" viewBox="0 0 810 74.999997" height="100" preserveAspectRatio="xMidYMid meet" version="1.0"><defs><clipPath id="87ed96d1f0"><path d="M 29.367188 14 L 776 14 L 776 52 L 29.367188 52 Z M 29.367188 14 " clip-rule="nonzero"/></clipPath><clipPath id="57559d167b"><path d="M 39 9.277344 L 780.867188 9.277344 L 780.867188 67 L 39 67 Z M 39 9.277344 " clip-rule="nonzero"/></clipPath><clipPath id="c252330bfc"><path d="M 438.738281 21.554688 L 444.738281 21.554688 L 444.738281 27.554688 L 438.738281 27.554688 Z M 438.738281 21.554688 " clip-rule="nonzero"/></clipPath></defs><g clip-path="url(#87ed96d1f0)"><path fill="#ffc107" d="M 34.675781 40.378906 C 79.089844 32.867188 191.851562 25.160156 372.957031 17.265625 L 373.007812 17.265625 C 414.132812 15.832031 463.285156 14.925781 520.464844 14.554688 L 520.472656 14.554688 C 534.351562 14.484375 550.476562 14.476562 568.84375 14.539062 L 568.859375 14.539062 C 699.0625 15.269531 765.796875 15.574219 769.066406 15.445312 L 769.0625 15.445312 C 765.507812 15.585938 763.695312 17.476562 763.628906 21.121094 L 763.628906 21.328125 C 763.695312 24.921875 765.480469 26.8125 768.984375 27 L 768.992188 27 C 768.984375 27 768.976562 27 768.96875 27 C 765.769531 26.851562 763.296875 24.136719 763.445312 20.941406 C 763.59375 17.742188 766.304688 15.269531 769.503906 15.417969 C 769.535156 15.421875 769.566406 15.421875 769.589844 15.421875 L 769.597656 15.425781 C 773.28125 15.617188 775.15625 17.519531 775.21875 21.121094 L 775.21875 21.328125 C 775.15625 24.980469 773.253906 26.878906 769.519531 27.027344 C 766.078125 27.160156 699.167969 26.863281 568.792969 26.128906 L 568.808594 26.128906 C 550.460938 26.070312 534.367188 26.074219 520.53125 26.144531 L 520.542969 26.144531 C 463.464844 26.515625 414.421875 27.417969 373.410156 28.847656 L 373.460938 28.847656 C 192.832031 36.722656 80.550781 44.375 36.605469 51.808594 C 33.453125 52.339844 30.460938 50.214844 29.925781 47.058594 C 29.390625 43.902344 31.519531 40.914062 34.675781 40.378906 Z M 34.675781 40.378906 " fill-opacity="0.996" fill-rule="nonzero"/></g><g clip-path="url(#57559d167b)"><path fill="#ffc107" d="M 44.777344 55.121094 C 115.730469 43.703125 235.703125 32.066406 404.695312 20.214844 L 404.726562 20.210938 C 499.371094 14.074219 622.699219 10.542969 774.714844 9.613281 C 777.914062 9.59375 780.527344 12.171875 780.546875 15.375 C 780.566406 18.574219 777.984375 21.1875 774.785156 21.207031 C 622.996094 22.132812 499.894531 25.65625 405.476562 31.78125 L 405.507812 31.777344 C 236.859375 43.605469 117.230469 55.203125 46.621094 66.566406 C 43.460938 67.074219 40.484375 64.925781 39.976562 61.765625 C 39.46875 58.605469 41.617188 55.632812 44.777344 55.121094 Z M 44.777344 55.121094 " fill-opacity="0.996" fill-rule="nonzero"/></g><path fill="#ffc107" d="M 49.941406 49.835938 C 94.691406 39.402344 190.25 31.316406 336.625 25.570312 L 336.6875 25.570312 C 420.042969 23.160156 483.789062 21.902344 527.929688 21.789062 L 527.933594 21.789062 C 601.679688 21.675781 673.539062 22.726562 743.5 24.933594 C 746.699219 25.035156 749.210938 27.710938 749.113281 30.910156 C 749.011719 34.109375 746.335938 36.621094 743.136719 36.519531 C 673.300781 34.316406 601.570312 33.269531 527.953125 33.378906 L 527.957031 33.378906 C 483.921875 33.492188 420.273438 34.75 337.019531 37.15625 L 337.082031 37.15625 C 191.441406 42.871094 96.605469 50.859375 52.574219 61.125 C 49.457031 61.851562 46.339844 59.914062 45.613281 56.796875 C 44.886719 53.679688 46.824219 50.5625 49.941406 49.835938 Z M 49.941406 49.835938 " fill-opacity="0.996" fill-rule="nonzero"/><g clip-path="url(#c252330bfc)"><path fill="#ffc107" d="M 444.925781 24.648438 C 444.925781 25.058594 444.847656 25.453125 444.691406 25.832031 C 444.535156 26.210938 444.3125 26.546875 444.019531 26.835938 C 443.730469 27.125 443.394531 27.347656 443.015625 27.507812 C 442.636719 27.664062 442.242188 27.742188 441.832031 27.742188 C 441.421875 27.742188 441.027344 27.664062 440.648438 27.507812 C 440.269531 27.347656 439.933594 27.125 439.644531 26.835938 C 439.355469 26.546875 439.132812 26.210938 438.976562 25.832031 C 438.816406 25.453125 438.738281 25.058594 438.738281 24.648438 C 438.738281 24.238281 438.816406 23.84375 438.976562 23.464844 C 439.132812 23.085938 439.355469 22.75 439.644531 22.460938 C 439.933594 22.171875 440.269531 21.945312 440.648438 21.789062 C 441.027344 21.632812 441.421875 21.554688 441.832031 21.554688 C 442.242188 21.554688 442.636719 21.632812 443.015625 21.789062 C 443.394531 21.945312 443.730469 22.171875 444.019531 22.460938 C 444.3125 22.75 444.535156 23.085938 444.691406 23.464844 C 444.847656 23.84375 444.925781 24.238281 444.925781 24.648438 Z M 444.925781 24.648438 " fill-opacity="1" fill-rule="nonzero"/></g></svg>