<svg xmlns="http://www.w3.org/2000/svg" xmlns:xlink="http://www.w3.org/1999/xlink" width="500" zoomAndPan="magnify" viewBox="0 0 375 374.999991" height="500" preserveAspectRatio="xMidYMid meet" version="1.0"><defs><g/><clipPath id="2b3d15cc93"><path d="M 102 82 L 235 82 L 235 231 L 102 231 Z M 102 82 " clip-rule="nonzero"/></clipPath><clipPath id="1303a38d41"><path d="M 188.332031 7.054688 L 303.066406 83.738281 L 186.796875 257.707031 L 72.0625 181.027344 Z M 188.332031 7.054688 " clip-rule="nonzero"/></clipPath><clipPath id="41ab4ffbe1"><path d="M 188.332031 7.054688 L 303.066406 83.738281 L 186.796875 257.707031 L 72.0625 181.027344 Z M 188.332031 7.054688 " clip-rule="nonzero"/></clipPath><clipPath id="e5b058e17d"><path d="M 141 34 L 275 34 L 275 183 L 141 183 Z M 141 34 " clip-rule="nonzero"/></clipPath><clipPath id="d4800ff8b3"><path d="M 188.332031 7.054688 L 303.066406 83.738281 L 186.796875 257.707031 L 72.0625 181.027344 Z M 188.332031 7.054688 " clip-rule="nonzero"/></clipPath><clipPath id="39f74bf53c"><path d="M 188.332031 7.054688 L 303.066406 83.738281 L 186.796875 257.707031 L 72.0625 181.027344 Z M 188.332031 7.054688 " clip-rule="nonzero"/></clipPath></defs><g clip-path="url(#2b3d15cc93)"><g clip-path="url(#1303a38d41)"><g clip-path="url(#41ab4ffbe1)"><path fill="#ffffff" d="M 227.019531 194.714844 C 235.136719 180.339844 235.507812 164.855469 232.578125 149.128906 C 230.0625 135.628906 227.285156 122.167969 224.238281 108.777344 C 222.753906 102.246094 222.304688 95.367188 218.820312 89.378906 C 218.675781 89.183594 218.535156 88.992188 218.394531 88.792969 C 218.074219 88.316406 217.746094 87.84375 217.425781 87.363281 C 214.191406 83.09375 210.015625 81.6875 204.632812 83.050781 C 199.484375 84.355469 196.324219 87.8125 195.625 93.242188 C 194.78125 99.820312 196.640625 106.054688 198.269531 112.3125 C 201.207031 127.003906 204.386719 141.644531 207.019531 156.386719 C 209.984375 173.007812 204.453125 186.582031 190.824219 196.570312 C 178.832031 205.351562 165.808594 206.398438 152.140625 200.832031 C 151.917969 200.738281 151.699219 200.65625 151.480469 200.566406 C 150.777344 200.160156 150.070312 199.753906 149.363281 199.34375 C 148.257812 198.582031 147.160156 197.789062 146.03125 197.054688 C 136.261719 190.644531 130.277344 181.828125 128.734375 170.105469 C 128.238281 166.328125 128.316406 162.550781 128.265625 158.765625 C 128.203125 154.183594 127.34375 149.824219 123.484375 146.761719 C 115.527344 140.453125 104.09375 145.03125 102.707031 155.644531 C 100.394531 173.332031 104.027344 189.863281 114.835938 204.378906 C 120.136719 211.496094 126.511719 217.480469 134.996094 220.769531 C 137.445312 222.625 140.308594 223.625 143.109375 224.757812 C 143.421875 224.832031 143.730469 224.902344 144.042969 224.972656 C 145.089844 225.371094 146.140625 225.765625 147.191406 226.15625 L 147.402344 226.417969 C 147.402344 226.417969 147.722656 226.320312 147.722656 226.320312 C 148.839844 227.386719 150.359375 226.597656 151.535156 227.105469 C 162.753906 231.917969 174.394531 230.699219 185.511719 227.910156 C 204.113281 223.242188 217.65625 211.304688 227.019531 194.714844 Z M 200.652344 112.484375 C 200.972656 112.402344 201.253906 112.269531 201.511719 112.097656 C 201.253906 112.269531 200.972656 112.402344 200.652344 112.484375 Z M 200.652344 112.484375 " fill-opacity="1" fill-rule="nonzero"/></g></g></g><g clip-path="url(#e5b058e17d)"><g clip-path="url(#d4800ff8b3)"><g clip-path="url(#39f74bf53c)"><path fill="#ffffff" d="M 145.125 123.039062 C 147.527344 135.761719 149.675781 148.554688 153.402344 160.988281 C 154.097656 164.144531 154.578125 167.371094 155.535156 170.445312 C 157.863281 177.9375 165.554688 183.222656 171.722656 181.78125 C 178.066406 180.300781 181.984375 173.078125 180.390625 164.734375 C 178.457031 154.664062 176.9375 144.492188 174.167969 134.597656 C 173.390625 126.273438 170.621094 118.339844 169.339844 110.101562 C 168.59375 105.285156 167.488281 100.273438 168.242188 95.65625 C 170.972656 78.980469 180.601562 67.664062 196.765625 62.28125 C 199.375 61.410156 201.949219 60.4375 204.882812 60.332031 C 212.816406 60.027344 220.089844 62.097656 227.132812 65.433594 C 237.035156 71.371094 244.144531 79.414062 246.839844 90.96875 C 248.226562 96.9375 247.5625 103.03125 248.347656 109.046875 C 249.089844 114.734375 251.976562 119.074219 257.042969 120.386719 C 262.746094 121.867188 268.144531 119.808594 271.148438 115.054688 C 273.15625 111.867188 273.980469 108.324219 274.15625 104.652344 C 274.507812 97.34375 273.636719 90.253906 271.742188 83.082031 C 268.25 69.785156 261.335938 58.96875 250.875 50.253906 C 250.453125 49.890625 250.027344 49.53125 249.613281 49.164062 C 247.890625 46.972656 245.40625 45.808594 243.125 44.378906 C 242.476562 43.898438 241.867188 43.359375 241.175781 42.957031 C 217.621094 28.945312 185.511719 32.023438 165.261719 50.425781 C 150.140625 64.167969 141.617188 80.957031 142.007812 101.828125 C 142.136719 109.066406 143.800781 116.027344 145.125 123.039062 Z M 145.125 123.039062 " fill-opacity="1" fill-rule="nonzero"/></g></g></g><g fill="#ffffff" fill-opacity="1"><g transform="translate(17.460904, 302.041626)"><g><path d="M 22.203125 -38.875 C 26.253906 -38.875 30.054688 -37.835938 33.609375 -35.765625 L 28.484375 -28.125 C 26.710938 -29.800781 24.671875 -30.640625 22.359375 -30.640625 C 21.148438 -30.640625 20.050781 -30.296875 19.0625 -29.609375 C 18.070312 -28.921875 17.578125 -28.078125 17.578125 -27.078125 C 17.578125 -26.335938 17.925781 -25.691406 18.625 -25.140625 C 19.332031 -24.585938 20.625 -24.046875 22.5 -23.515625 C 25.050781 -22.742188 26.894531 -21.992188 28.03125 -21.265625 C 29.164062 -20.546875 30.050781 -19.660156 30.6875 -18.609375 C 31.320312 -17.554688 31.640625 -16.242188 31.640625 -14.671875 C 31.640625 -12.390625 31.050781 -9.972656 29.875 -7.421875 C 28.707031 -4.878906 26.789062 -2.851562 24.125 -1.34375 C 21.46875 0.15625 18.316406 0.9375 14.671875 1 C 9.984375 1 5.765625 -0.4375 2.015625 -3.3125 L 7.484375 -11.25 C 10.097656 -8.632812 12.796875 -7.328125 15.578125 -7.328125 C 17.117188 -7.328125 18.414062 -7.726562 19.46875 -8.53125 C 20.519531 -9.34375 21.046875 -10.367188 21.046875 -11.609375 C 21.046875 -13.210938 19.4375 -14.453125 16.21875 -15.328125 C 12.34375 -16.390625 9.832031 -17.53125 8.6875 -18.75 C 7.550781 -19.976562 6.984375 -21.613281 6.984375 -23.65625 C 6.984375 -27.945312 8.445312 -31.554688 11.375 -34.484375 C 14.3125 -37.410156 17.921875 -38.875 22.203125 -38.875 Z M 22.203125 -38.875 "/></g></g></g><g fill="#ffffff" fill-opacity="1"><g transform="translate(47.241183, 302.041626)"><g><path d="M 23.0625 -37.875 L 27.578125 -17.625 L 38.875 -37.875 L 48.671875 -37.875 L 48.421875 0 L 38.578125 0 L 39.28125 -21.796875 L 39.1875 -21.796875 L 26.625 0 L 22.703125 0 L 17.484375 -21.796875 L 17.375 -21.796875 L 10.75 0 L 0.953125 0 L 13.359375 -37.875 Z M 23.0625 -37.875 "/></g></g></g><g fill="#ffffff" fill-opacity="1"><g transform="translate(95.502676, 302.041626)"><g><path d="M 31.09375 -37.875 L 39.390625 0 L 28.890625 0 L 27.484375 -6.578125 L 13.921875 -6.578125 L 10.25 0 L -0.203125 0 L 20.34375 -37.875 Z M 17.828125 -14.109375 L 26.015625 -14.109375 L 23.90625 -26.171875 L 23.8125 -26.171875 Z M 17.828125 -14.109375 "/></g></g></g><g fill="#ffffff" fill-opacity="1"><g transform="translate(133.619589, 302.041626)"><g><path d="M 24.15625 -37.875 C 27.570312 -37.875 30.3125 -37.066406 32.375 -35.453125 C 34.4375 -33.847656 35.46875 -31.539062 35.46875 -28.53125 C 35.46875 -25.3125 34.507812 -22.472656 32.59375 -20.015625 C 30.6875 -17.554688 28.242188 -16.054688 25.265625 -15.515625 L 34.71875 0 L 22.453125 0 L 15.46875 -14.5625 L 15.375 -14.5625 L 13.0625 0 L 3.21875 0 L 9.1875 -37.875 Z M 16.375 -20.890625 L 17.734375 -20.890625 C 20.046875 -20.890625 21.835938 -21.375 23.109375 -22.34375 C 24.378906 -23.320312 25.015625 -24.75 25.015625 -26.625 C 25.015625 -29.101562 22.972656 -30.34375 18.890625 -30.34375 L 17.890625 -30.34375 Z M 16.375 -20.890625 "/></g></g></g><g fill="#ffffff" fill-opacity="1"><g transform="translate(166.664221, 302.041626)"><g><path d="M 32.40625 -37.875 L 31.09375 -29.53125 L 22.953125 -29.53125 L 18.28125 0 L 8.4375 0 L 13.109375 -29.53125 L 4.96875 -29.53125 L 6.28125 -37.875 Z M 32.40625 -37.875 "/></g></g></g><g fill="#ffffff" fill-opacity="1"><g transform="translate(192.326383, 302.041626)"><g/></g></g><g fill="#ffffff" fill-opacity="1"><g transform="translate(208.446627, 302.041626)"><g><path d="M 22.203125 -38.875 C 26.253906 -38.875 30.054688 -37.835938 33.609375 -35.765625 L 28.484375 -28.125 C 26.710938 -29.800781 24.671875 -30.640625 22.359375 -30.640625 C 21.148438 -30.640625 20.050781 -30.296875 19.0625 -29.609375 C 18.070312 -28.921875 17.578125 -28.078125 17.578125 -27.078125 C 17.578125 -26.335938 17.925781 -25.691406 18.625 -25.140625 C 19.332031 -24.585938 20.625 -24.046875 22.5 -23.515625 C 25.050781 -22.742188 26.894531 -21.992188 28.03125 -21.265625 C 29.164062 -20.546875 30.050781 -19.660156 30.6875 -18.609375 C 31.320312 -17.554688 31.640625 -16.242188 31.640625 -14.671875 C 31.640625 -12.390625 31.050781 -9.972656 29.875 -7.421875 C 28.707031 -4.878906 26.789062 -2.851562 24.125 -1.34375 C 21.46875 0.15625 18.316406 0.9375 14.671875 1 C 9.984375 1 5.765625 -0.4375 2.015625 -3.3125 L 7.484375 -11.25 C 10.097656 -8.632812 12.796875 -7.328125 15.578125 -7.328125 C 17.117188 -7.328125 18.414062 -7.726562 19.46875 -8.53125 C 20.519531 -9.34375 21.046875 -10.367188 21.046875 -11.609375 C 21.046875 -13.210938 19.4375 -14.453125 16.21875 -15.328125 C 12.34375 -16.390625 9.832031 -17.53125 8.6875 -18.75 C 7.550781 -19.976562 6.984375 -21.613281 6.984375 -23.65625 C 6.984375 -27.945312 8.445312 -31.554688 11.375 -34.484375 C 14.3125 -37.410156 17.921875 -38.875 22.203125 -38.875 Z M 22.203125 -38.875 "/></g></g></g><g fill="#ffffff" fill-opacity="1"><g transform="translate(238.226898, 302.041626)"><g><path d="M 31.09375 -37.875 L 39.390625 0 L 28.890625 0 L 27.484375 -6.578125 L 13.921875 -6.578125 L 10.25 0 L -0.203125 0 L 20.34375 -37.875 Z M 17.828125 -14.109375 L 26.015625 -14.109375 L 23.90625 -26.171875 L 23.8125 -26.171875 Z M 17.828125 -14.109375 "/></g></g></g><g fill="#ffffff" fill-opacity="1"><g transform="translate(276.3438, 302.041626)"><g><path d="M 19.03125 -37.875 L 14.359375 -8.34375 L 26.171875 -8.34375 L 24.859375 0 L 3.21875 0 L 9.1875 -37.875 Z M 19.03125 -37.875 "/></g></g></g><g fill="#ffffff" fill-opacity="1"><g transform="translate(300.097577, 302.041626)"><g><path d="M 30.75 -37.875 L 29.4375 -29.53125 L 17.734375 -29.53125 L 16.734375 -23.203125 L 27.828125 -23.203125 L 26.53125 -14.875 L 15.421875 -14.875 L 14.359375 -8.34375 L 26.078125 -8.34375 L 24.765625 0 L 3.21875 0 L 9.1875 -37.875 Z M 30.75 -37.875 "/></g></g></g><g fill="#ffffff" fill-opacity="1"><g transform="translate(326.613496, 302.041626)"><g><path d="M 22.203125 -38.875 C 26.253906 -38.875 30.054688 -37.835938 33.609375 -35.765625 L 28.484375 -28.125 C 26.710938 -29.800781 24.671875 -30.640625 22.359375 -30.640625 C 21.148438 -30.640625 20.050781 -30.296875 19.0625 -29.609375 C 18.070312 -28.921875 17.578125 -28.078125 17.578125 -27.078125 C 17.578125 -26.335938 17.925781 -25.691406 18.625 -25.140625 C 19.332031 -24.585938 20.625 -24.046875 22.5 -23.515625 C 25.050781 -22.742188 26.894531 -21.992188 28.03125 -21.265625 C 29.164062 -20.546875 30.050781 -19.660156 30.6875 -18.609375 C 31.320312 -17.554688 31.640625 -16.242188 31.640625 -14.671875 C 31.640625 -12.390625 31.050781 -9.972656 29.875 -7.421875 C 28.707031 -4.878906 26.789062 -2.851562 24.125 -1.34375 C 21.46875 0.15625 18.316406 0.9375 14.671875 1 C 9.984375 1 5.765625 -0.4375 2.015625 -3.3125 L 7.484375 -11.25 C 10.097656 -8.632812 12.796875 -7.328125 15.578125 -7.328125 C 17.117188 -7.328125 18.414062 -7.726562 19.46875 -8.53125 C 20.519531 -9.34375 21.046875 -10.367188 21.046875 -11.609375 C 21.046875 -13.210938 19.4375 -14.453125 16.21875 -15.328125 C 12.34375 -16.390625 9.832031 -17.53125 8.6875 -18.75 C 7.550781 -19.976562 6.984375 -21.613281 6.984375 -23.65625 C 6.984375 -27.945312 8.445312 -31.554688 11.375 -34.484375 C 14.3125 -37.410156 17.921875 -38.875 22.203125 -38.875 Z M 22.203125 -38.875 "/></g></g></g></svg>