<svg xmlns="http://www.w3.org/2000/svg" xmlns:xlink="http://www.w3.org/1999/xlink" width="500" zoomAndPan="magnify" viewBox="0 0 375 374.999991" height="500" preserveAspectRatio="xMidYMid meet" version="1.0"><defs><g/><clipPath id="3a1227a4ef"><path d="M 102 82 L 235 82 L 235 231 L 102 231 Z M 102 82 " clip-rule="nonzero"/></clipPath><clipPath id="86b10b043e"><path d="M 188.332031 7.054688 L 303.066406 83.738281 L 186.796875 257.707031 L 72.0625 181.027344 Z M 188.332031 7.054688 " clip-rule="nonzero"/></clipPath><clipPath id="0ef3deacf1"><path d="M 188.332031 7.054688 L 303.066406 83.738281 L 186.796875 257.707031 L 72.0625 181.027344 Z M 188.332031 7.054688 " clip-rule="nonzero"/></clipPath><clipPath id="f43c924f2b"><path d="M 188.332031 7.054688 L 303.066406 83.738281 L 186.796875 257.707031 L 72.0625 181.027344 Z M 188.332031 7.054688 " clip-rule="nonzero"/></clipPath><clipPath id="514e70ec28"><path d="M 142 34 L 275 34 L 275 182 L 142 182 Z M 142 34 " clip-rule="nonzero"/></clipPath><clipPath id="747ea6c8b0"><path d="M 188.332031 7.054688 L 303.066406 83.738281 L 186.796875 257.707031 L 72.0625 181.027344 Z M 188.332031 7.054688 " clip-rule="nonzero"/></clipPath><clipPath id="3952efb3cf"><path d="M 188.332031 7.054688 L 303.066406 83.738281 L 186.796875 257.707031 L 72.0625 181.027344 Z M 188.332031 7.054688 " clip-rule="nonzero"/></clipPath><clipPath id="34153ba1fd"><path d="M 188.332031 7.054688 L 303.066406 83.738281 L 186.796875 257.707031 L 72.0625 181.027344 Z M 188.332031 7.054688 " clip-rule="nonzero"/></clipPath></defs><g clip-path="url(#3a1227a4ef)"><g clip-path="url(#86b10b043e)"><g clip-path="url(#0ef3deacf1)"><g clip-path="url(#f43c924f2b)"><path fill="#000000" d="M 227.128906 194.699219 C 235.242188 180.328125 235.601562 164.847656 232.664062 149.125 C 230.140625 135.625 227.355469 122.164062 224.300781 108.777344 C 222.8125 102.246094 222.359375 95.367188 218.871094 89.375 C 218.730469 89.183594 218.585938 88.992188 218.445312 88.792969 C 218.121094 88.316406 217.796875 87.839844 217.476562 87.363281 C 214.238281 83.089844 210.0625 81.683594 204.675781 83.046875 C 199.527344 84.34375 196.367188 87.800781 195.671875 93.230469 C 194.832031 99.804688 196.695312 106.039062 198.328125 112.296875 C 201.273438 126.984375 204.464844 141.625 207.105469 156.367188 C 210.078125 172.984375 204.554688 186.554688 190.925781 196.53125 C 178.9375 205.304688 165.90625 206.347656 152.234375 200.773438 C 152.011719 200.679688 151.796875 200.597656 151.574219 200.507812 C 150.871094 200.101562 150.164062 199.691406 149.457031 199.285156 C 148.351562 198.519531 147.25 197.730469 146.125 196.992188 C 136.347656 190.578125 130.355469 181.761719 128.804688 170.039062 C 128.308594 166.265625 128.386719 162.488281 128.332031 158.703125 C 128.269531 154.121094 127.40625 149.761719 123.542969 146.699219 C 115.582031 140.386719 104.148438 144.957031 102.765625 155.566406 C 100.464844 173.253906 104.105469 189.78125 114.921875 204.300781 C 120.226562 211.417969 126.609375 217.40625 135.097656 220.699219 C 137.546875 222.554688 140.414062 223.554688 143.214844 224.691406 C 143.527344 224.761719 143.835938 224.832031 144.148438 224.90625 C 145.195312 225.300781 146.246094 225.699219 147.300781 226.089844 L 147.511719 226.351562 C 147.511719 226.351562 147.832031 226.253906 147.832031 226.253906 C 148.949219 227.320312 150.46875 226.535156 151.644531 227.039062 C 162.867188 231.859375 174.507812 230.644531 185.628906 227.863281 C 204.234375 223.207031 217.769531 211.277344 227.128906 194.699219 Z M 200.710938 112.472656 C 201.03125 112.390625 201.3125 112.257812 201.570312 112.085938 C 201.3125 112.257812 201.03125 112.390625 200.710938 112.472656 Z M 200.710938 112.472656 " fill-opacity="1" fill-rule="nonzero"/></g></g></g></g><g clip-path="url(#514e70ec28)"><g clip-path="url(#747ea6c8b0)"><g clip-path="url(#3952efb3cf)"><g clip-path="url(#34153ba1fd)"><path fill="#000000" d="M 145.175781 122.992188 C 147.585938 135.714844 149.742188 148.503906 153.476562 160.9375 C 154.171875 164.097656 154.65625 167.320312 155.617188 170.394531 C 157.945312 177.886719 165.644531 183.175781 171.808594 181.738281 C 178.15625 180.257812 182.070312 173.042969 180.472656 164.699219 C 178.535156 154.628906 177.007812 144.460938 174.230469 134.5625 C 173.449219 126.242188 170.675781 118.308594 169.390625 110.070312 C 168.640625 105.253906 167.53125 100.242188 168.285156 95.628906 C 171.007812 78.957031 180.632812 67.648438 196.796875 62.273438 C 199.40625 61.40625 201.980469 60.433594 204.914062 60.328125 C 212.851562 60.027344 220.125 62.101562 227.171875 65.441406 C 237.082031 71.382812 244.195312 79.429688 246.898438 90.984375 C 248.289062 96.949219 247.625 103.042969 248.417969 109.058594 C 249.164062 114.746094 252.050781 119.085938 257.121094 120.402344 C 262.828125 121.882812 268.226562 119.828125 271.226562 115.074219 C 273.234375 111.890625 274.054688 108.347656 274.230469 104.675781 C 274.574219 97.371094 273.699219 90.28125 271.804688 83.113281 C 268.300781 69.816406 261.378906 58.996094 250.914062 50.28125 C 250.488281 49.917969 250.066406 49.554688 249.652344 49.1875 C 247.925781 46.996094 245.441406 45.832031 243.160156 44.402344 C 242.511719 43.917969 241.898438 43.382812 241.207031 42.976562 C 217.636719 28.953125 185.523438 32.015625 165.28125 50.402344 C 150.160156 64.132812 141.648438 80.917969 142.046875 101.785156 C 142.183594 109.019531 143.847656 115.980469 145.175781 122.992188 Z M 145.175781 122.992188 " fill-opacity="1" fill-rule="nonzero"/></g></g></g></g><g fill="#000000" fill-opacity="1"><g transform="translate(17.460904, 302.041626)"><g><path d="M 22.203125 -38.875 C 26.253906 -38.875 30.054688 -37.835938 33.609375 -35.765625 L 28.484375 -28.125 C 26.710938 -29.800781 24.671875 -30.640625 22.359375 -30.640625 C 21.148438 -30.640625 20.050781 -30.296875 19.0625 -29.609375 C 18.070312 -28.921875 17.578125 -28.078125 17.578125 -27.078125 C 17.578125 -26.335938 17.925781 -25.691406 18.625 -25.140625 C 19.332031 -24.585938 20.625 -24.046875 22.5 -23.515625 C 25.050781 -22.742188 26.894531 -21.992188 28.03125 -21.265625 C 29.164062 -20.546875 30.050781 -19.660156 30.6875 -18.609375 C 31.320312 -17.554688 31.640625 -16.242188 31.640625 -14.671875 C 31.640625 -12.390625 31.050781 -9.972656 29.875 -7.421875 C 28.707031 -4.878906 26.789062 -2.851562 24.125 -1.34375 C 21.46875 0.15625 18.316406 0.9375 14.671875 1 C 9.984375 1 5.765625 -0.4375 2.015625 -3.3125 L 7.484375 -11.25 C 10.097656 -8.632812 12.796875 -7.328125 15.578125 -7.328125 C 17.117188 -7.328125 18.414062 -7.726562 19.46875 -8.53125 C 20.519531 -9.34375 21.046875 -10.367188 21.046875 -11.609375 C 21.046875 -13.210938 19.4375 -14.453125 16.21875 -15.328125 C 12.34375 -16.390625 9.832031 -17.53125 8.6875 -18.75 C 7.550781 -19.976562 6.984375 -21.613281 6.984375 -23.65625 C 6.984375 -27.945312 8.445312 -31.554688 11.375 -34.484375 C 14.3125 -37.410156 17.921875 -38.875 22.203125 -38.875 Z M 22.203125 -38.875 "/></g></g></g><g fill="#000000" fill-opacity="1"><g transform="translate(47.241183, 302.041626)"><g><path d="M 23.0625 -37.875 L 27.578125 -17.625 L 38.875 -37.875 L 48.671875 -37.875 L 48.421875 0 L 38.578125 0 L 39.28125 -21.796875 L 39.1875 -21.796875 L 26.625 0 L 22.703125 0 L 17.484375 -21.796875 L 17.375 -21.796875 L 10.75 0 L 0.953125 0 L 13.359375 -37.875 Z M 23.0625 -37.875 "/></g></g></g><g fill="#000000" fill-opacity="1"><g transform="translate(95.502676, 302.041626)"><g><path d="M 31.09375 -37.875 L 39.390625 0 L 28.890625 0 L 27.484375 -6.578125 L 13.921875 -6.578125 L 10.25 0 L -0.203125 0 L 20.34375 -37.875 Z M 17.828125 -14.109375 L 26.015625 -14.109375 L 23.90625 -26.171875 L 23.8125 -26.171875 Z M 17.828125 -14.109375 "/></g></g></g><g fill="#000000" fill-opacity="1"><g transform="translate(133.619589, 302.041626)"><g><path d="M 24.15625 -37.875 C 27.570312 -37.875 30.3125 -37.066406 32.375 -35.453125 C 34.4375 -33.847656 35.46875 -31.539062 35.46875 -28.53125 C 35.46875 -25.3125 34.507812 -22.472656 32.59375 -20.015625 C 30.6875 -17.554688 28.242188 -16.054688 25.265625 -15.515625 L 34.71875 0 L 22.453125 0 L 15.46875 -14.5625 L 15.375 -14.5625 L 13.0625 0 L 3.21875 0 L 9.1875 -37.875 Z M 16.375 -20.890625 L 17.734375 -20.890625 C 20.046875 -20.890625 21.835938 -21.375 23.109375 -22.34375 C 24.378906 -23.320312 25.015625 -24.75 25.015625 -26.625 C 25.015625 -29.101562 22.972656 -30.34375 18.890625 -30.34375 L 17.890625 -30.34375 Z M 16.375 -20.890625 "/></g></g></g><g fill="#000000" fill-opacity="1"><g transform="translate(166.664221, 302.041626)"><g><path d="M 32.40625 -37.875 L 31.09375 -29.53125 L 22.953125 -29.53125 L 18.28125 0 L 8.4375 0 L 13.109375 -29.53125 L 4.96875 -29.53125 L 6.28125 -37.875 Z M 32.40625 -37.875 "/></g></g></g><g fill="#000000" fill-opacity="1"><g transform="translate(192.326383, 302.041626)"><g/></g></g><g fill="#000000" fill-opacity="1"><g transform="translate(208.446627, 302.041626)"><g><path d="M 22.203125 -38.875 C 26.253906 -38.875 30.054688 -37.835938 33.609375 -35.765625 L 28.484375 -28.125 C 26.710938 -29.800781 24.671875 -30.640625 22.359375 -30.640625 C 21.148438 -30.640625 20.050781 -30.296875 19.0625 -29.609375 C 18.070312 -28.921875 17.578125 -28.078125 17.578125 -27.078125 C 17.578125 -26.335938 17.925781 -25.691406 18.625 -25.140625 C 19.332031 -24.585938 20.625 -24.046875 22.5 -23.515625 C 25.050781 -22.742188 26.894531 -21.992188 28.03125 -21.265625 C 29.164062 -20.546875 30.050781 -19.660156 30.6875 -18.609375 C 31.320312 -17.554688 31.640625 -16.242188 31.640625 -14.671875 C 31.640625 -12.390625 31.050781 -9.972656 29.875 -7.421875 C 28.707031 -4.878906 26.789062 -2.851562 24.125 -1.34375 C 21.46875 0.15625 18.316406 0.9375 14.671875 1 C 9.984375 1 5.765625 -0.4375 2.015625 -3.3125 L 7.484375 -11.25 C 10.097656 -8.632812 12.796875 -7.328125 15.578125 -7.328125 C 17.117188 -7.328125 18.414062 -7.726562 19.46875 -8.53125 C 20.519531 -9.34375 21.046875 -10.367188 21.046875 -11.609375 C 21.046875 -13.210938 19.4375 -14.453125 16.21875 -15.328125 C 12.34375 -16.390625 9.832031 -17.53125 8.6875 -18.75 C 7.550781 -19.976562 6.984375 -21.613281 6.984375 -23.65625 C 6.984375 -27.945312 8.445312 -31.554688 11.375 -34.484375 C 14.3125 -37.410156 17.921875 -38.875 22.203125 -38.875 Z M 22.203125 -38.875 "/></g></g></g><g fill="#000000" fill-opacity="1"><g transform="translate(238.226898, 302.041626)"><g><path d="M 31.09375 -37.875 L 39.390625 0 L 28.890625 0 L 27.484375 -6.578125 L 13.921875 -6.578125 L 10.25 0 L -0.203125 0 L 20.34375 -37.875 Z M 17.828125 -14.109375 L 26.015625 -14.109375 L 23.90625 -26.171875 L 23.8125 -26.171875 Z M 17.828125 -14.109375 "/></g></g></g><g fill="#000000" fill-opacity="1"><g transform="translate(276.3438, 302.041626)"><g><path d="M 19.03125 -37.875 L 14.359375 -8.34375 L 26.171875 -8.34375 L 24.859375 0 L 3.21875 0 L 9.1875 -37.875 Z M 19.03125 -37.875 "/></g></g></g><g fill="#000000" fill-opacity="1"><g transform="translate(300.097577, 302.041626)"><g><path d="M 30.75 -37.875 L 29.4375 -29.53125 L 17.734375 -29.53125 L 16.734375 -23.203125 L 27.828125 -23.203125 L 26.53125 -14.875 L 15.421875 -14.875 L 14.359375 -8.34375 L 26.078125 -8.34375 L 24.765625 0 L 3.21875 0 L 9.1875 -37.875 Z M 30.75 -37.875 "/></g></g></g><g fill="#000000" fill-opacity="1"><g transform="translate(326.613496, 302.041626)"><g><path d="M 22.203125 -38.875 C 26.253906 -38.875 30.054688 -37.835938 33.609375 -35.765625 L 28.484375 -28.125 C 26.710938 -29.800781 24.671875 -30.640625 22.359375 -30.640625 C 21.148438 -30.640625 20.050781 -30.296875 19.0625 -29.609375 C 18.070312 -28.921875 17.578125 -28.078125 17.578125 -27.078125 C 17.578125 -26.335938 17.925781 -25.691406 18.625 -25.140625 C 19.332031 -24.585938 20.625 -24.046875 22.5 -23.515625 C 25.050781 -22.742188 26.894531 -21.992188 28.03125 -21.265625 C 29.164062 -20.546875 30.050781 -19.660156 30.6875 -18.609375 C 31.320312 -17.554688 31.640625 -16.242188 31.640625 -14.671875 C 31.640625 -12.390625 31.050781 -9.972656 29.875 -7.421875 C 28.707031 -4.878906 26.789062 -2.851562 24.125 -1.34375 C 21.46875 0.15625 18.316406 0.9375 14.671875 1 C 9.984375 1 5.765625 -0.4375 2.015625 -3.3125 L 7.484375 -11.25 C 10.097656 -8.632812 12.796875 -7.328125 15.578125 -7.328125 C 17.117188 -7.328125 18.414062 -7.726562 19.46875 -8.53125 C 20.519531 -9.34375 21.046875 -10.367188 21.046875 -11.609375 C 21.046875 -13.210938 19.4375 -14.453125 16.21875 -15.328125 C 12.34375 -16.390625 9.832031 -17.53125 8.6875 -18.75 C 7.550781 -19.976562 6.984375 -21.613281 6.984375 -23.65625 C 6.984375 -27.945312 8.445312 -31.554688 11.375 -34.484375 C 14.3125 -37.410156 17.921875 -38.875 22.203125 -38.875 Z M 22.203125 -38.875 "/></g></g></g></svg>